G04 #@! TF.GenerationSoftware,KiCad,Pcbnew,5.0.2-bee76a0~70~ubuntu16.04.1*
G04 #@! TF.CreationDate,2019-07-11T08:17:54+02:00*
G04 #@! TF.ProjectId,paste_dispenser,70617374-655f-4646-9973-70656e736572,rev?*
G04 #@! TF.SameCoordinates,PX3dfd240PY3dfd240*
G04 #@! TF.FileFunction,Soldermask,Top*
G04 #@! TF.FilePolarity,Negative*
%FSLAX46Y46*%
G04 Gerber Fmt 4.6, Leading zero omitted, Abs format (unit mm)*
G04 Created by KiCad (PCBNEW 5.0.2-bee76a0~70~ubuntu16.04.1) date Thu 11 Jul 2019 08:17:54 AM CEST*
%MOMM*%
%LPD*%
G01*
G04 APERTURE LIST*
%ADD10C,0.100000*%
G04 APERTURE END LIST*
D10*
G36*
X37818565Y3090611D02*
X38009834Y3011385D01*
X38181976Y2896363D01*
X38328363Y2749976D01*
X38443385Y2577834D01*
X38522611Y2386565D01*
X38563000Y2183516D01*
X38563000Y1976484D01*
X38522611Y1773435D01*
X38443385Y1582166D01*
X38328363Y1410024D01*
X38181976Y1263637D01*
X38009834Y1148615D01*
X37818565Y1069389D01*
X37615516Y1029000D01*
X37408484Y1029000D01*
X37205435Y1069389D01*
X37014166Y1148615D01*
X36842024Y1263637D01*
X36695637Y1410024D01*
X36580615Y1582166D01*
X36501389Y1773435D01*
X36461000Y1976484D01*
X36461000Y2183516D01*
X36501389Y2386565D01*
X36580615Y2577834D01*
X36695637Y2749976D01*
X36842024Y2896363D01*
X37014166Y3011385D01*
X37205435Y3090611D01*
X37408484Y3131000D01*
X37615516Y3131000D01*
X37818565Y3090611D01*
X37818565Y3090611D01*
G37*
G36*
X31318565Y3090611D02*
X31509834Y3011385D01*
X31681976Y2896363D01*
X31828363Y2749976D01*
X31943385Y2577834D01*
X32022611Y2386565D01*
X32063000Y2183516D01*
X32063000Y1976484D01*
X32022611Y1773435D01*
X31943385Y1582166D01*
X31828363Y1410024D01*
X31681976Y1263637D01*
X31509834Y1148615D01*
X31318565Y1069389D01*
X31115516Y1029000D01*
X30908484Y1029000D01*
X30705435Y1069389D01*
X30514166Y1148615D01*
X30342024Y1263637D01*
X30195637Y1410024D01*
X30080615Y1582166D01*
X30001389Y1773435D01*
X29961000Y1976484D01*
X29961000Y2183516D01*
X30001389Y2386565D01*
X30080615Y2577834D01*
X30195637Y2749976D01*
X30342024Y2896363D01*
X30514166Y3011385D01*
X30705435Y3090611D01*
X30908484Y3131000D01*
X31115516Y3131000D01*
X31318565Y3090611D01*
X31318565Y3090611D01*
G37*
G36*
X18514565Y3090611D02*
X18705834Y3011385D01*
X18877976Y2896363D01*
X19024363Y2749976D01*
X19139385Y2577834D01*
X19218611Y2386565D01*
X19259000Y2183516D01*
X19259000Y1976484D01*
X19218611Y1773435D01*
X19139385Y1582166D01*
X19024363Y1410024D01*
X18877976Y1263637D01*
X18705834Y1148615D01*
X18514565Y1069389D01*
X18311516Y1029000D01*
X18104484Y1029000D01*
X17901435Y1069389D01*
X17710166Y1148615D01*
X17538024Y1263637D01*
X17391637Y1410024D01*
X17276615Y1582166D01*
X17197389Y1773435D01*
X17157000Y1976484D01*
X17157000Y2183516D01*
X17197389Y2386565D01*
X17276615Y2577834D01*
X17391637Y2749976D01*
X17538024Y2896363D01*
X17710166Y3011385D01*
X17901435Y3090611D01*
X18104484Y3131000D01*
X18311516Y3131000D01*
X18514565Y3090611D01*
X18514565Y3090611D01*
G37*
G36*
X12014565Y3090611D02*
X12205834Y3011385D01*
X12377976Y2896363D01*
X12524363Y2749976D01*
X12639385Y2577834D01*
X12718611Y2386565D01*
X12759000Y2183516D01*
X12759000Y1976484D01*
X12718611Y1773435D01*
X12639385Y1582166D01*
X12524363Y1410024D01*
X12377976Y1263637D01*
X12205834Y1148615D01*
X12014565Y1069389D01*
X11811516Y1029000D01*
X11604484Y1029000D01*
X11401435Y1069389D01*
X11210166Y1148615D01*
X11038024Y1263637D01*
X10891637Y1410024D01*
X10776615Y1582166D01*
X10697389Y1773435D01*
X10657000Y1976484D01*
X10657000Y2183516D01*
X10697389Y2386565D01*
X10776615Y2577834D01*
X10891637Y2749976D01*
X11038024Y2896363D01*
X11210166Y3011385D01*
X11401435Y3090611D01*
X11604484Y3131000D01*
X11811516Y3131000D01*
X12014565Y3090611D01*
X12014565Y3090611D01*
G37*
G36*
X2362565Y3090611D02*
X2553834Y3011385D01*
X2725976Y2896363D01*
X2872363Y2749976D01*
X2987385Y2577834D01*
X3066611Y2386565D01*
X3107000Y2183516D01*
X3107000Y1976484D01*
X3066611Y1773435D01*
X2987385Y1582166D01*
X2872363Y1410024D01*
X2725976Y1263637D01*
X2553834Y1148615D01*
X2362565Y1069389D01*
X2159516Y1029000D01*
X1952484Y1029000D01*
X1749435Y1069389D01*
X1558166Y1148615D01*
X1386024Y1263637D01*
X1239637Y1410024D01*
X1124615Y1582166D01*
X1045389Y1773435D01*
X1005000Y1976484D01*
X1005000Y2183516D01*
X1045389Y2386565D01*
X1124615Y2577834D01*
X1239637Y2749976D01*
X1386024Y2896363D01*
X1558166Y3011385D01*
X1749435Y3090611D01*
X1952484Y3131000D01*
X2159516Y3131000D01*
X2362565Y3090611D01*
X2362565Y3090611D01*
G37*
G36*
X28166565Y3090611D02*
X28357834Y3011385D01*
X28529976Y2896363D01*
X28676363Y2749976D01*
X28791385Y2577834D01*
X28870611Y2386565D01*
X28911000Y2183516D01*
X28911000Y1976484D01*
X28870611Y1773435D01*
X28791385Y1582166D01*
X28676363Y1410024D01*
X28529976Y1263637D01*
X28357834Y1148615D01*
X28166565Y1069389D01*
X27963516Y1029000D01*
X27756484Y1029000D01*
X27553435Y1069389D01*
X27362166Y1148615D01*
X27190024Y1263637D01*
X27043637Y1410024D01*
X26928615Y1582166D01*
X26849389Y1773435D01*
X26809000Y1976484D01*
X26809000Y2183516D01*
X26849389Y2386565D01*
X26928615Y2577834D01*
X27043637Y2749976D01*
X27190024Y2896363D01*
X27362166Y3011385D01*
X27553435Y3090611D01*
X27756484Y3131000D01*
X27963516Y3131000D01*
X28166565Y3090611D01*
X28166565Y3090611D01*
G37*
G36*
X21666565Y3090611D02*
X21857834Y3011385D01*
X22029976Y2896363D01*
X22176363Y2749976D01*
X22291385Y2577834D01*
X22370611Y2386565D01*
X22411000Y2183516D01*
X22411000Y1976484D01*
X22370611Y1773435D01*
X22291385Y1582166D01*
X22176363Y1410024D01*
X22029976Y1263637D01*
X21857834Y1148615D01*
X21666565Y1069389D01*
X21463516Y1029000D01*
X21256484Y1029000D01*
X21053435Y1069389D01*
X20862166Y1148615D01*
X20690024Y1263637D01*
X20543637Y1410024D01*
X20428615Y1582166D01*
X20349389Y1773435D01*
X20309000Y1976484D01*
X20309000Y2183516D01*
X20349389Y2386565D01*
X20428615Y2577834D01*
X20543637Y2749976D01*
X20690024Y2896363D01*
X20862166Y3011385D01*
X21053435Y3090611D01*
X21256484Y3131000D01*
X21463516Y3131000D01*
X21666565Y3090611D01*
X21666565Y3090611D01*
G37*
G36*
X8862565Y3090611D02*
X9053834Y3011385D01*
X9225976Y2896363D01*
X9372363Y2749976D01*
X9487385Y2577834D01*
X9566611Y2386565D01*
X9607000Y2183516D01*
X9607000Y1976484D01*
X9566611Y1773435D01*
X9487385Y1582166D01*
X9372363Y1410024D01*
X9225976Y1263637D01*
X9053834Y1148615D01*
X8862565Y1069389D01*
X8659516Y1029000D01*
X8452484Y1029000D01*
X8249435Y1069389D01*
X8058166Y1148615D01*
X7886024Y1263637D01*
X7739637Y1410024D01*
X7624615Y1582166D01*
X7545389Y1773435D01*
X7505000Y1976484D01*
X7505000Y2183516D01*
X7545389Y2386565D01*
X7624615Y2577834D01*
X7739637Y2749976D01*
X7886024Y2896363D01*
X8058166Y3011385D01*
X8249435Y3090611D01*
X8452484Y3131000D01*
X8659516Y3131000D01*
X8862565Y3090611D01*
X8862565Y3090611D01*
G37*
G36*
X34561764Y4015598D02*
X34684445Y3991195D01*
X34915571Y3895459D01*
X35123581Y3756471D01*
X35300471Y3579581D01*
X35300473Y3579578D01*
X35439459Y3371571D01*
X35535195Y3140445D01*
X35559597Y3017765D01*
X35583746Y2896365D01*
X35584000Y2895084D01*
X35584000Y2644916D01*
X35535195Y2399555D01*
X35529814Y2386565D01*
X35439459Y2168429D01*
X35300471Y1960419D01*
X35123581Y1783529D01*
X35123578Y1783527D01*
X34915571Y1644541D01*
X34684445Y1548805D01*
X34561764Y1524402D01*
X34439086Y1500000D01*
X34188914Y1500000D01*
X34066236Y1524402D01*
X33943555Y1548805D01*
X33712429Y1644541D01*
X33504422Y1783527D01*
X33504419Y1783529D01*
X33327529Y1960419D01*
X33188541Y2168429D01*
X33098186Y2386565D01*
X33092805Y2399555D01*
X33044000Y2644916D01*
X33044000Y2895084D01*
X33044255Y2896365D01*
X33068403Y3017765D01*
X33092805Y3140445D01*
X33188541Y3371571D01*
X33327527Y3579578D01*
X33327529Y3579581D01*
X33504419Y3756471D01*
X33712429Y3895459D01*
X33943555Y3991195D01*
X34066236Y4015598D01*
X34188914Y4040000D01*
X34439086Y4040000D01*
X34561764Y4015598D01*
X34561764Y4015598D01*
G37*
G36*
X5605764Y4015598D02*
X5728445Y3991195D01*
X5959571Y3895459D01*
X6167581Y3756471D01*
X6344471Y3579581D01*
X6344473Y3579578D01*
X6483459Y3371571D01*
X6579195Y3140445D01*
X6603597Y3017765D01*
X6627746Y2896365D01*
X6628000Y2895084D01*
X6628000Y2644916D01*
X6579195Y2399555D01*
X6573814Y2386565D01*
X6483459Y2168429D01*
X6344471Y1960419D01*
X6167581Y1783529D01*
X6167578Y1783527D01*
X5959571Y1644541D01*
X5728445Y1548805D01*
X5605764Y1524402D01*
X5483086Y1500000D01*
X5232914Y1500000D01*
X5110236Y1524402D01*
X4987555Y1548805D01*
X4756429Y1644541D01*
X4548422Y1783527D01*
X4548419Y1783529D01*
X4371529Y1960419D01*
X4232541Y2168429D01*
X4142186Y2386565D01*
X4136805Y2399555D01*
X4088000Y2644916D01*
X4088000Y2895084D01*
X4088255Y2896365D01*
X4112403Y3017765D01*
X4136805Y3140445D01*
X4232541Y3371571D01*
X4371527Y3579578D01*
X4371529Y3579581D01*
X4548419Y3756471D01*
X4756429Y3895459D01*
X4987555Y3991195D01*
X5110236Y4015598D01*
X5232914Y4040000D01*
X5483086Y4040000D01*
X5605764Y4015598D01*
X5605764Y4015598D01*
G37*
G36*
X28166565Y7590611D02*
X28357834Y7511385D01*
X28529976Y7396363D01*
X28676363Y7249976D01*
X28791385Y7077834D01*
X28870611Y6886565D01*
X28911000Y6683516D01*
X28911000Y6476484D01*
X28870611Y6273435D01*
X28791385Y6082166D01*
X28676363Y5910024D01*
X28529976Y5763637D01*
X28357834Y5648615D01*
X28166565Y5569389D01*
X27963516Y5529000D01*
X27756484Y5529000D01*
X27553435Y5569389D01*
X27362166Y5648615D01*
X27190024Y5763637D01*
X27043637Y5910024D01*
X26928615Y6082166D01*
X26849389Y6273435D01*
X26809000Y6476484D01*
X26809000Y6683516D01*
X26849389Y6886565D01*
X26928615Y7077834D01*
X27043637Y7249976D01*
X27190024Y7396363D01*
X27362166Y7511385D01*
X27553435Y7590611D01*
X27756484Y7631000D01*
X27963516Y7631000D01*
X28166565Y7590611D01*
X28166565Y7590611D01*
G37*
G36*
X21666565Y7590611D02*
X21857834Y7511385D01*
X22029976Y7396363D01*
X22176363Y7249976D01*
X22291385Y7077834D01*
X22370611Y6886565D01*
X22411000Y6683516D01*
X22411000Y6476484D01*
X22370611Y6273435D01*
X22291385Y6082166D01*
X22176363Y5910024D01*
X22029976Y5763637D01*
X21857834Y5648615D01*
X21666565Y5569389D01*
X21463516Y5529000D01*
X21256484Y5529000D01*
X21053435Y5569389D01*
X20862166Y5648615D01*
X20690024Y5763637D01*
X20543637Y5910024D01*
X20428615Y6082166D01*
X20349389Y6273435D01*
X20309000Y6476484D01*
X20309000Y6683516D01*
X20349389Y6886565D01*
X20428615Y7077834D01*
X20543637Y7249976D01*
X20690024Y7396363D01*
X20862166Y7511385D01*
X21053435Y7590611D01*
X21256484Y7631000D01*
X21463516Y7631000D01*
X21666565Y7590611D01*
X21666565Y7590611D01*
G37*
G36*
X8862565Y7590611D02*
X9053834Y7511385D01*
X9225976Y7396363D01*
X9372363Y7249976D01*
X9487385Y7077834D01*
X9566611Y6886565D01*
X9607000Y6683516D01*
X9607000Y6476484D01*
X9566611Y6273435D01*
X9487385Y6082166D01*
X9372363Y5910024D01*
X9225976Y5763637D01*
X9053834Y5648615D01*
X8862565Y5569389D01*
X8659516Y5529000D01*
X8452484Y5529000D01*
X8249435Y5569389D01*
X8058166Y5648615D01*
X7886024Y5763637D01*
X7739637Y5910024D01*
X7624615Y6082166D01*
X7545389Y6273435D01*
X7505000Y6476484D01*
X7505000Y6683516D01*
X7545389Y6886565D01*
X7624615Y7077834D01*
X7739637Y7249976D01*
X7886024Y7396363D01*
X8058166Y7511385D01*
X8249435Y7590611D01*
X8452484Y7631000D01*
X8659516Y7631000D01*
X8862565Y7590611D01*
X8862565Y7590611D01*
G37*
G36*
X2362565Y7590611D02*
X2553834Y7511385D01*
X2725976Y7396363D01*
X2872363Y7249976D01*
X2987385Y7077834D01*
X3066611Y6886565D01*
X3107000Y6683516D01*
X3107000Y6476484D01*
X3066611Y6273435D01*
X2987385Y6082166D01*
X2872363Y5910024D01*
X2725976Y5763637D01*
X2553834Y5648615D01*
X2362565Y5569389D01*
X2159516Y5529000D01*
X1952484Y5529000D01*
X1749435Y5569389D01*
X1558166Y5648615D01*
X1386024Y5763637D01*
X1239637Y5910024D01*
X1124615Y6082166D01*
X1045389Y6273435D01*
X1005000Y6476484D01*
X1005000Y6683516D01*
X1045389Y6886565D01*
X1124615Y7077834D01*
X1239637Y7249976D01*
X1386024Y7396363D01*
X1558166Y7511385D01*
X1749435Y7590611D01*
X1952484Y7631000D01*
X2159516Y7631000D01*
X2362565Y7590611D01*
X2362565Y7590611D01*
G37*
G36*
X31318565Y7590611D02*
X31509834Y7511385D01*
X31681976Y7396363D01*
X31828363Y7249976D01*
X31943385Y7077834D01*
X32022611Y6886565D01*
X32063000Y6683516D01*
X32063000Y6476484D01*
X32022611Y6273435D01*
X31943385Y6082166D01*
X31828363Y5910024D01*
X31681976Y5763637D01*
X31509834Y5648615D01*
X31318565Y5569389D01*
X31115516Y5529000D01*
X30908484Y5529000D01*
X30705435Y5569389D01*
X30514166Y5648615D01*
X30342024Y5763637D01*
X30195637Y5910024D01*
X30080615Y6082166D01*
X30001389Y6273435D01*
X29961000Y6476484D01*
X29961000Y6683516D01*
X30001389Y6886565D01*
X30080615Y7077834D01*
X30195637Y7249976D01*
X30342024Y7396363D01*
X30514166Y7511385D01*
X30705435Y7590611D01*
X30908484Y7631000D01*
X31115516Y7631000D01*
X31318565Y7590611D01*
X31318565Y7590611D01*
G37*
G36*
X18514565Y7590611D02*
X18705834Y7511385D01*
X18877976Y7396363D01*
X19024363Y7249976D01*
X19139385Y7077834D01*
X19218611Y6886565D01*
X19259000Y6683516D01*
X19259000Y6476484D01*
X19218611Y6273435D01*
X19139385Y6082166D01*
X19024363Y5910024D01*
X18877976Y5763637D01*
X18705834Y5648615D01*
X18514565Y5569389D01*
X18311516Y5529000D01*
X18104484Y5529000D01*
X17901435Y5569389D01*
X17710166Y5648615D01*
X17538024Y5763637D01*
X17391637Y5910024D01*
X17276615Y6082166D01*
X17197389Y6273435D01*
X17157000Y6476484D01*
X17157000Y6683516D01*
X17197389Y6886565D01*
X17276615Y7077834D01*
X17391637Y7249976D01*
X17538024Y7396363D01*
X17710166Y7511385D01*
X17901435Y7590611D01*
X18104484Y7631000D01*
X18311516Y7631000D01*
X18514565Y7590611D01*
X18514565Y7590611D01*
G37*
G36*
X37818565Y7590611D02*
X38009834Y7511385D01*
X38181976Y7396363D01*
X38328363Y7249976D01*
X38443385Y7077834D01*
X38522611Y6886565D01*
X38563000Y6683516D01*
X38563000Y6476484D01*
X38522611Y6273435D01*
X38443385Y6082166D01*
X38328363Y5910024D01*
X38181976Y5763637D01*
X38009834Y5648615D01*
X37818565Y5569389D01*
X37615516Y5529000D01*
X37408484Y5529000D01*
X37205435Y5569389D01*
X37014166Y5648615D01*
X36842024Y5763637D01*
X36695637Y5910024D01*
X36580615Y6082166D01*
X36501389Y6273435D01*
X36461000Y6476484D01*
X36461000Y6683516D01*
X36501389Y6886565D01*
X36580615Y7077834D01*
X36695637Y7249976D01*
X36842024Y7396363D01*
X37014166Y7511385D01*
X37205435Y7590611D01*
X37408484Y7631000D01*
X37615516Y7631000D01*
X37818565Y7590611D01*
X37818565Y7590611D01*
G37*
G36*
X12014565Y7590611D02*
X12205834Y7511385D01*
X12377976Y7396363D01*
X12524363Y7249976D01*
X12639385Y7077834D01*
X12718611Y6886565D01*
X12759000Y6683516D01*
X12759000Y6476484D01*
X12718611Y6273435D01*
X12639385Y6082166D01*
X12524363Y5910024D01*
X12377976Y5763637D01*
X12205834Y5648615D01*
X12014565Y5569389D01*
X11811516Y5529000D01*
X11604484Y5529000D01*
X11401435Y5569389D01*
X11210166Y5648615D01*
X11038024Y5763637D01*
X10891637Y5910024D01*
X10776615Y6082166D01*
X10697389Y6273435D01*
X10657000Y6476484D01*
X10657000Y6683516D01*
X10697389Y6886565D01*
X10776615Y7077834D01*
X10891637Y7249976D01*
X11038024Y7396363D01*
X11210166Y7511385D01*
X11401435Y7590611D01*
X11604484Y7631000D01*
X11811516Y7631000D01*
X12014565Y7590611D01*
X12014565Y7590611D01*
G37*
G36*
X15778604Y10677653D02*
X15815145Y10666568D01*
X15848820Y10648569D01*
X15878341Y10624341D01*
X15902569Y10594820D01*
X15920568Y10561145D01*
X15931653Y10524604D01*
X15936000Y10480462D01*
X15936000Y9531538D01*
X15931653Y9487396D01*
X15920568Y9450855D01*
X15902569Y9417180D01*
X15878341Y9387659D01*
X15848820Y9363431D01*
X15815145Y9345432D01*
X15778604Y9334347D01*
X15734462Y9330000D01*
X14285538Y9330000D01*
X14241396Y9334347D01*
X14204855Y9345432D01*
X14171180Y9363431D01*
X14141659Y9387659D01*
X14117431Y9417180D01*
X14099432Y9450855D01*
X14088347Y9487396D01*
X14084000Y9531538D01*
X14084000Y10480462D01*
X14088347Y10524604D01*
X14099432Y10561145D01*
X14117431Y10594820D01*
X14141659Y10624341D01*
X14171180Y10648569D01*
X14204855Y10666568D01*
X14241396Y10677653D01*
X14285538Y10682000D01*
X15734462Y10682000D01*
X15778604Y10677653D01*
X15778604Y10677653D01*
G37*
G36*
X10514466Y10494435D02*
X10553137Y10482704D01*
X10588779Y10463652D01*
X10620017Y10438017D01*
X10645652Y10406779D01*
X10664704Y10371137D01*
X10676435Y10332466D01*
X10681000Y10286112D01*
X10681000Y9634888D01*
X10676435Y9588534D01*
X10664704Y9549863D01*
X10645652Y9514221D01*
X10620017Y9482983D01*
X10588779Y9457348D01*
X10553137Y9438296D01*
X10514466Y9426565D01*
X10468112Y9422000D01*
X9391888Y9422000D01*
X9345534Y9426565D01*
X9306863Y9438296D01*
X9271221Y9457348D01*
X9239983Y9482983D01*
X9214348Y9514221D01*
X9195296Y9549863D01*
X9183565Y9588534D01*
X9179000Y9634888D01*
X9179000Y10286112D01*
X9183565Y10332466D01*
X9195296Y10371137D01*
X9214348Y10406779D01*
X9239983Y10438017D01*
X9271221Y10463652D01*
X9306863Y10482704D01*
X9345534Y10494435D01*
X9391888Y10499000D01*
X10468112Y10499000D01*
X10514466Y10494435D01*
X10514466Y10494435D01*
G37*
G36*
X6450466Y10494435D02*
X6489137Y10482704D01*
X6524779Y10463652D01*
X6556017Y10438017D01*
X6581652Y10406779D01*
X6600704Y10371137D01*
X6612435Y10332466D01*
X6617000Y10286112D01*
X6617000Y9634888D01*
X6612435Y9588534D01*
X6600704Y9549863D01*
X6581652Y9514221D01*
X6556017Y9482983D01*
X6524779Y9457348D01*
X6489137Y9438296D01*
X6450466Y9426565D01*
X6404112Y9422000D01*
X5327888Y9422000D01*
X5281534Y9426565D01*
X5242863Y9438296D01*
X5207221Y9457348D01*
X5175983Y9482983D01*
X5150348Y9514221D01*
X5131296Y9549863D01*
X5119565Y9588534D01*
X5115000Y9634888D01*
X5115000Y10286112D01*
X5119565Y10332466D01*
X5131296Y10371137D01*
X5150348Y10406779D01*
X5175983Y10438017D01*
X5207221Y10463652D01*
X5242863Y10482704D01*
X5281534Y10494435D01*
X5327888Y10499000D01*
X6404112Y10499000D01*
X6450466Y10494435D01*
X6450466Y10494435D01*
G37*
G36*
X31630442Y11538482D02*
X31696627Y11531963D01*
X31806267Y11498704D01*
X31866467Y11480443D01*
X31970448Y11424863D01*
X32022991Y11396778D01*
X32048478Y11375861D01*
X32160186Y11284186D01*
X32243448Y11182729D01*
X32272778Y11146991D01*
X32272779Y11146989D01*
X32356443Y10990467D01*
X32356443Y10990466D01*
X32407963Y10820627D01*
X32425359Y10644000D01*
X32407963Y10467373D01*
X32378770Y10371137D01*
X32356443Y10297533D01*
X32282348Y10158913D01*
X32272778Y10141009D01*
X32243448Y10105271D01*
X32160186Y10003814D01*
X32058729Y9920552D01*
X32022991Y9891222D01*
X32022989Y9891221D01*
X31866467Y9807557D01*
X31809853Y9790384D01*
X31696627Y9756037D01*
X31630442Y9749518D01*
X31564260Y9743000D01*
X31475740Y9743000D01*
X31409558Y9749518D01*
X31343373Y9756037D01*
X31230147Y9790384D01*
X31173533Y9807557D01*
X31017011Y9891221D01*
X31017009Y9891222D01*
X30981271Y9920552D01*
X30879814Y10003814D01*
X30796552Y10105271D01*
X30767222Y10141009D01*
X30757652Y10158913D01*
X30683557Y10297533D01*
X30661230Y10371137D01*
X30632037Y10467373D01*
X30614641Y10644000D01*
X30632037Y10820627D01*
X30683557Y10990466D01*
X30683557Y10990467D01*
X30767221Y11146989D01*
X30767222Y11146991D01*
X30796552Y11182729D01*
X30879814Y11284186D01*
X30991522Y11375861D01*
X31017009Y11396778D01*
X31069552Y11424863D01*
X31173533Y11480443D01*
X31233733Y11498704D01*
X31343373Y11531963D01*
X31409558Y11538482D01*
X31475740Y11545000D01*
X31564260Y11545000D01*
X31630442Y11538482D01*
X31630442Y11538482D01*
G37*
G36*
X34170442Y11538482D02*
X34236627Y11531963D01*
X34346267Y11498704D01*
X34406467Y11480443D01*
X34510448Y11424863D01*
X34562991Y11396778D01*
X34588478Y11375861D01*
X34700186Y11284186D01*
X34783448Y11182729D01*
X34812778Y11146991D01*
X34812779Y11146989D01*
X34896443Y10990467D01*
X34896443Y10990466D01*
X34947963Y10820627D01*
X34965359Y10644000D01*
X34947963Y10467373D01*
X34918770Y10371137D01*
X34896443Y10297533D01*
X34822348Y10158913D01*
X34812778Y10141009D01*
X34783448Y10105271D01*
X34700186Y10003814D01*
X34598729Y9920552D01*
X34562991Y9891222D01*
X34562989Y9891221D01*
X34406467Y9807557D01*
X34349853Y9790384D01*
X34236627Y9756037D01*
X34170442Y9749518D01*
X34104260Y9743000D01*
X34015740Y9743000D01*
X33949558Y9749518D01*
X33883373Y9756037D01*
X33770147Y9790384D01*
X33713533Y9807557D01*
X33557011Y9891221D01*
X33557009Y9891222D01*
X33521271Y9920552D01*
X33419814Y10003814D01*
X33336552Y10105271D01*
X33307222Y10141009D01*
X33297652Y10158913D01*
X33223557Y10297533D01*
X33201230Y10371137D01*
X33172037Y10467373D01*
X33154641Y10644000D01*
X33172037Y10820627D01*
X33223557Y10990466D01*
X33223557Y10990467D01*
X33307221Y11146989D01*
X33307222Y11146991D01*
X33336552Y11182729D01*
X33419814Y11284186D01*
X33531522Y11375861D01*
X33557009Y11396778D01*
X33609552Y11424863D01*
X33713533Y11480443D01*
X33773733Y11498704D01*
X33883373Y11531963D01*
X33949558Y11538482D01*
X34015740Y11545000D01*
X34104260Y11545000D01*
X34170442Y11538482D01*
X34170442Y11538482D01*
G37*
G36*
X29090442Y11538482D02*
X29156627Y11531963D01*
X29266267Y11498704D01*
X29326467Y11480443D01*
X29430448Y11424863D01*
X29482991Y11396778D01*
X29508478Y11375861D01*
X29620186Y11284186D01*
X29703448Y11182729D01*
X29732778Y11146991D01*
X29732779Y11146989D01*
X29816443Y10990467D01*
X29816443Y10990466D01*
X29867963Y10820627D01*
X29885359Y10644000D01*
X29867963Y10467373D01*
X29838770Y10371137D01*
X29816443Y10297533D01*
X29742348Y10158913D01*
X29732778Y10141009D01*
X29703448Y10105271D01*
X29620186Y10003814D01*
X29518729Y9920552D01*
X29482991Y9891222D01*
X29482989Y9891221D01*
X29326467Y9807557D01*
X29269853Y9790384D01*
X29156627Y9756037D01*
X29090442Y9749518D01*
X29024260Y9743000D01*
X28935740Y9743000D01*
X28869558Y9749518D01*
X28803373Y9756037D01*
X28690147Y9790384D01*
X28633533Y9807557D01*
X28477011Y9891221D01*
X28477009Y9891222D01*
X28441271Y9920552D01*
X28339814Y10003814D01*
X28256552Y10105271D01*
X28227222Y10141009D01*
X28217652Y10158913D01*
X28143557Y10297533D01*
X28121230Y10371137D01*
X28092037Y10467373D01*
X28074641Y10644000D01*
X28092037Y10820627D01*
X28143557Y10990466D01*
X28143557Y10990467D01*
X28227221Y11146989D01*
X28227222Y11146991D01*
X28256552Y11182729D01*
X28339814Y11284186D01*
X28451522Y11375861D01*
X28477009Y11396778D01*
X28529552Y11424863D01*
X28633533Y11480443D01*
X28693733Y11498704D01*
X28803373Y11531963D01*
X28869558Y11538482D01*
X28935740Y11545000D01*
X29024260Y11545000D01*
X29090442Y11538482D01*
X29090442Y11538482D01*
G37*
G36*
X20928466Y11510435D02*
X20967137Y11498704D01*
X21002779Y11479652D01*
X21034017Y11454017D01*
X21059652Y11422779D01*
X21078704Y11387137D01*
X21090435Y11348466D01*
X21095000Y11302112D01*
X21095000Y10650888D01*
X21090435Y10604534D01*
X21078704Y10565863D01*
X21059652Y10530221D01*
X21034017Y10498983D01*
X21002779Y10473348D01*
X20967137Y10454296D01*
X20928466Y10442565D01*
X20882112Y10438000D01*
X19805888Y10438000D01*
X19759534Y10442565D01*
X19720863Y10454296D01*
X19685221Y10473348D01*
X19653983Y10498983D01*
X19628348Y10530221D01*
X19609296Y10565863D01*
X19597565Y10604534D01*
X19593000Y10650888D01*
X19593000Y11302112D01*
X19597565Y11348466D01*
X19609296Y11387137D01*
X19628348Y11422779D01*
X19653983Y11454017D01*
X19685221Y11479652D01*
X19720863Y11498704D01*
X19759534Y11510435D01*
X19805888Y11515000D01*
X20882112Y11515000D01*
X20928466Y11510435D01*
X20928466Y11510435D01*
G37*
G36*
X26008466Y11510435D02*
X26047137Y11498704D01*
X26082779Y11479652D01*
X26114017Y11454017D01*
X26139652Y11422779D01*
X26158704Y11387137D01*
X26170435Y11348466D01*
X26175000Y11302112D01*
X26175000Y10650888D01*
X26170435Y10604534D01*
X26158704Y10565863D01*
X26139652Y10530221D01*
X26114017Y10498983D01*
X26082779Y10473348D01*
X26047137Y10454296D01*
X26008466Y10442565D01*
X25962112Y10438000D01*
X24885888Y10438000D01*
X24839534Y10442565D01*
X24800863Y10454296D01*
X24765221Y10473348D01*
X24733983Y10498983D01*
X24708348Y10530221D01*
X24689296Y10565863D01*
X24677565Y10604534D01*
X24673000Y10650888D01*
X24673000Y11302112D01*
X24677565Y11348466D01*
X24689296Y11387137D01*
X24708348Y11422779D01*
X24733983Y11454017D01*
X24765221Y11479652D01*
X24800863Y11498704D01*
X24839534Y11510435D01*
X24885888Y11515000D01*
X25962112Y11515000D01*
X26008466Y11510435D01*
X26008466Y11510435D01*
G37*
G36*
X38771000Y11267000D02*
X36969000Y11267000D01*
X36969000Y13069000D01*
X38771000Y13069000D01*
X38771000Y11267000D01*
X38771000Y11267000D01*
G37*
G36*
X6450466Y12369435D02*
X6489137Y12357704D01*
X6524779Y12338652D01*
X6556017Y12313017D01*
X6581652Y12281779D01*
X6600704Y12246137D01*
X6612435Y12207466D01*
X6617000Y12161112D01*
X6617000Y11509888D01*
X6612435Y11463535D01*
X6600704Y11424863D01*
X6581652Y11389221D01*
X6556017Y11357983D01*
X6524779Y11332348D01*
X6489137Y11313296D01*
X6450466Y11301565D01*
X6404112Y11297000D01*
X5327888Y11297000D01*
X5281534Y11301565D01*
X5242863Y11313296D01*
X5207221Y11332348D01*
X5175983Y11357983D01*
X5150348Y11389221D01*
X5131296Y11424863D01*
X5119565Y11463535D01*
X5115000Y11509888D01*
X5115000Y12161112D01*
X5119565Y12207466D01*
X5131296Y12246137D01*
X5150348Y12281779D01*
X5175983Y12313017D01*
X5207221Y12338652D01*
X5242863Y12357704D01*
X5281534Y12369435D01*
X5327888Y12374000D01*
X6404112Y12374000D01*
X6450466Y12369435D01*
X6450466Y12369435D01*
G37*
G36*
X10514466Y12369435D02*
X10553137Y12357704D01*
X10588779Y12338652D01*
X10620017Y12313017D01*
X10645652Y12281779D01*
X10664704Y12246137D01*
X10676435Y12207466D01*
X10681000Y12161112D01*
X10681000Y11509888D01*
X10676435Y11463535D01*
X10664704Y11424863D01*
X10645652Y11389221D01*
X10620017Y11357983D01*
X10588779Y11332348D01*
X10553137Y11313296D01*
X10514466Y11301565D01*
X10468112Y11297000D01*
X9391888Y11297000D01*
X9345534Y11301565D01*
X9306863Y11313296D01*
X9271221Y11332348D01*
X9239983Y11357983D01*
X9214348Y11389221D01*
X9195296Y11424863D01*
X9183565Y11463535D01*
X9179000Y11509888D01*
X9179000Y12161112D01*
X9183565Y12207466D01*
X9195296Y12246137D01*
X9214348Y12281779D01*
X9239983Y12313017D01*
X9271221Y12338652D01*
X9306863Y12357704D01*
X9345534Y12369435D01*
X9391888Y12374000D01*
X10468112Y12374000D01*
X10514466Y12369435D01*
X10514466Y12369435D01*
G37*
G36*
X15778604Y13477653D02*
X15815145Y13466568D01*
X15848820Y13448569D01*
X15878341Y13424341D01*
X15902569Y13394820D01*
X15920568Y13361145D01*
X15931653Y13324604D01*
X15936000Y13280462D01*
X15936000Y12331538D01*
X15931653Y12287396D01*
X15920568Y12250855D01*
X15902569Y12217180D01*
X15878341Y12187659D01*
X15848820Y12163431D01*
X15815145Y12145432D01*
X15778604Y12134347D01*
X15734462Y12130000D01*
X14285538Y12130000D01*
X14241396Y12134347D01*
X14204855Y12145432D01*
X14171180Y12163431D01*
X14141659Y12187659D01*
X14117431Y12217180D01*
X14099432Y12250855D01*
X14088347Y12287396D01*
X14084000Y12331538D01*
X14084000Y13280462D01*
X14088347Y13324604D01*
X14099432Y13361145D01*
X14117431Y13394820D01*
X14141659Y13424341D01*
X14171180Y13448569D01*
X14204855Y13466568D01*
X14241396Y13477653D01*
X14285538Y13482000D01*
X15734462Y13482000D01*
X15778604Y13477653D01*
X15778604Y13477653D01*
G37*
G36*
X34961000Y12283000D02*
X33159000Y12283000D01*
X33159000Y14085000D01*
X34961000Y14085000D01*
X34961000Y12283000D01*
X34961000Y12283000D01*
G37*
G36*
X31630443Y14078481D02*
X31696627Y14071963D01*
X31809853Y14037616D01*
X31866467Y14020443D01*
X31988485Y13955222D01*
X32022991Y13936778D01*
X32058729Y13907448D01*
X32160186Y13824186D01*
X32243448Y13722729D01*
X32272778Y13686991D01*
X32272779Y13686989D01*
X32356443Y13530467D01*
X32356443Y13530466D01*
X32407963Y13360627D01*
X32425359Y13184000D01*
X32407963Y13007373D01*
X32373616Y12894147D01*
X32356443Y12837533D01*
X32282348Y12698913D01*
X32272778Y12681009D01*
X32243448Y12645271D01*
X32160186Y12543814D01*
X32081859Y12479534D01*
X32022991Y12431222D01*
X32022989Y12431221D01*
X31866467Y12347557D01*
X31820110Y12333495D01*
X31696627Y12296037D01*
X31630443Y12289519D01*
X31564260Y12283000D01*
X31475740Y12283000D01*
X31409558Y12289518D01*
X31343373Y12296037D01*
X31219890Y12333495D01*
X31173533Y12347557D01*
X31017011Y12431221D01*
X31017009Y12431222D01*
X30958141Y12479534D01*
X30879814Y12543814D01*
X30796552Y12645271D01*
X30767222Y12681009D01*
X30757652Y12698913D01*
X30683557Y12837533D01*
X30666384Y12894147D01*
X30632037Y13007373D01*
X30614641Y13184000D01*
X30632037Y13360627D01*
X30683557Y13530466D01*
X30683557Y13530467D01*
X30767221Y13686989D01*
X30767222Y13686991D01*
X30796552Y13722729D01*
X30879814Y13824186D01*
X30981271Y13907448D01*
X31017009Y13936778D01*
X31051515Y13955222D01*
X31173533Y14020443D01*
X31230147Y14037616D01*
X31343373Y14071963D01*
X31409557Y14078481D01*
X31475740Y14085000D01*
X31564260Y14085000D01*
X31630443Y14078481D01*
X31630443Y14078481D01*
G37*
G36*
X29090443Y14078481D02*
X29156627Y14071963D01*
X29269853Y14037616D01*
X29326467Y14020443D01*
X29448485Y13955222D01*
X29482991Y13936778D01*
X29518729Y13907448D01*
X29620186Y13824186D01*
X29703448Y13722729D01*
X29732778Y13686991D01*
X29732779Y13686989D01*
X29816443Y13530467D01*
X29816443Y13530466D01*
X29867963Y13360627D01*
X29885359Y13184000D01*
X29867963Y13007373D01*
X29833616Y12894147D01*
X29816443Y12837533D01*
X29742348Y12698913D01*
X29732778Y12681009D01*
X29703448Y12645271D01*
X29620186Y12543814D01*
X29541859Y12479534D01*
X29482991Y12431222D01*
X29482989Y12431221D01*
X29326467Y12347557D01*
X29280110Y12333495D01*
X29156627Y12296037D01*
X29090443Y12289519D01*
X29024260Y12283000D01*
X28935740Y12283000D01*
X28869558Y12289518D01*
X28803373Y12296037D01*
X28679890Y12333495D01*
X28633533Y12347557D01*
X28477011Y12431221D01*
X28477009Y12431222D01*
X28418141Y12479534D01*
X28339814Y12543814D01*
X28256552Y12645271D01*
X28227222Y12681009D01*
X28217652Y12698913D01*
X28143557Y12837533D01*
X28126384Y12894147D01*
X28092037Y13007373D01*
X28074641Y13184000D01*
X28092037Y13360627D01*
X28143557Y13530466D01*
X28143557Y13530467D01*
X28227221Y13686989D01*
X28227222Y13686991D01*
X28256552Y13722729D01*
X28339814Y13824186D01*
X28441271Y13907448D01*
X28477009Y13936778D01*
X28511515Y13955222D01*
X28633533Y14020443D01*
X28690147Y14037616D01*
X28803373Y14071963D01*
X28869557Y14078481D01*
X28935740Y14085000D01*
X29024260Y14085000D01*
X29090443Y14078481D01*
X29090443Y14078481D01*
G37*
G36*
X26008466Y13385435D02*
X26047137Y13373704D01*
X26082779Y13354652D01*
X26114017Y13329017D01*
X26139652Y13297779D01*
X26158704Y13262137D01*
X26170435Y13223466D01*
X26175000Y13177112D01*
X26175000Y12525888D01*
X26170435Y12479534D01*
X26158704Y12440863D01*
X26139652Y12405221D01*
X26114017Y12373983D01*
X26082779Y12348348D01*
X26047137Y12329296D01*
X26008466Y12317565D01*
X25962112Y12313000D01*
X24885888Y12313000D01*
X24839534Y12317565D01*
X24800863Y12329296D01*
X24765221Y12348348D01*
X24733983Y12373983D01*
X24708348Y12405221D01*
X24689296Y12440863D01*
X24677565Y12479534D01*
X24673000Y12525888D01*
X24673000Y13177112D01*
X24677565Y13223466D01*
X24689296Y13262137D01*
X24708348Y13297779D01*
X24733983Y13329017D01*
X24765221Y13354652D01*
X24800863Y13373704D01*
X24839534Y13385435D01*
X24885888Y13390000D01*
X25962112Y13390000D01*
X26008466Y13385435D01*
X26008466Y13385435D01*
G37*
G36*
X20928466Y13385435D02*
X20967137Y13373704D01*
X21002779Y13354652D01*
X21034017Y13329017D01*
X21059652Y13297779D01*
X21078704Y13262137D01*
X21090435Y13223466D01*
X21095000Y13177112D01*
X21095000Y12525888D01*
X21090435Y12479534D01*
X21078704Y12440863D01*
X21059652Y12405221D01*
X21034017Y12373983D01*
X21002779Y12348348D01*
X20967137Y12329296D01*
X20928466Y12317565D01*
X20882112Y12313000D01*
X19805888Y12313000D01*
X19759534Y12317565D01*
X19720863Y12329296D01*
X19685221Y12348348D01*
X19653983Y12373983D01*
X19628348Y12405221D01*
X19609296Y12440863D01*
X19597565Y12479534D01*
X19593000Y12525888D01*
X19593000Y13177112D01*
X19597565Y13223466D01*
X19609296Y13262137D01*
X19628348Y13297779D01*
X19653983Y13329017D01*
X19685221Y13354652D01*
X19720863Y13373704D01*
X19759534Y13385435D01*
X19805888Y13390000D01*
X20882112Y13390000D01*
X20928466Y13385435D01*
X20928466Y13385435D01*
G37*
G36*
X37980442Y15602482D02*
X38046627Y15595963D01*
X38159853Y15561616D01*
X38216467Y15544443D01*
X38355087Y15470348D01*
X38372991Y15460778D01*
X38408729Y15431448D01*
X38510186Y15348186D01*
X38593448Y15246729D01*
X38622778Y15210991D01*
X38622779Y15210989D01*
X38706443Y15054467D01*
X38706443Y15054466D01*
X38757963Y14884627D01*
X38775359Y14708000D01*
X38757963Y14531373D01*
X38723616Y14418147D01*
X38706443Y14361533D01*
X38632348Y14222913D01*
X38622778Y14205009D01*
X38601433Y14179000D01*
X38510186Y14067814D01*
X38408729Y13984552D01*
X38372991Y13955222D01*
X38372989Y13955221D01*
X38216467Y13871557D01*
X38159853Y13854384D01*
X38046627Y13820037D01*
X37980443Y13813519D01*
X37914260Y13807000D01*
X37825740Y13807000D01*
X37759558Y13813518D01*
X37693373Y13820037D01*
X37580147Y13854384D01*
X37523533Y13871557D01*
X37367011Y13955221D01*
X37367009Y13955222D01*
X37331271Y13984552D01*
X37229814Y14067814D01*
X37138567Y14179000D01*
X37117222Y14205009D01*
X37107652Y14222913D01*
X37033557Y14361533D01*
X37016384Y14418147D01*
X36982037Y14531373D01*
X36964641Y14708000D01*
X36982037Y14884627D01*
X37033557Y15054466D01*
X37033557Y15054467D01*
X37117221Y15210989D01*
X37117222Y15210991D01*
X37146552Y15246729D01*
X37229814Y15348186D01*
X37331271Y15431448D01*
X37367009Y15460778D01*
X37384913Y15470348D01*
X37523533Y15544443D01*
X37580147Y15561616D01*
X37693373Y15595963D01*
X37759558Y15602482D01*
X37825740Y15609000D01*
X37914260Y15609000D01*
X37980442Y15602482D01*
X37980442Y15602482D01*
G37*
G36*
X11024000Y14179000D02*
X4772000Y14179000D01*
X4772000Y15881000D01*
X11024000Y15881000D01*
X11024000Y14179000D01*
X11024000Y14179000D01*
G37*
G36*
X24628000Y15154000D02*
X17076000Y15154000D01*
X17076000Y16256000D01*
X24628000Y16256000D01*
X24628000Y15154000D01*
X24628000Y15154000D01*
G37*
G36*
X28481000Y15847000D02*
X27479000Y15847000D01*
X27479000Y16749000D01*
X28481000Y16749000D01*
X28481000Y15847000D01*
X28481000Y15847000D01*
G37*
G36*
X4499000Y16154000D02*
X2797000Y16154000D01*
X2797000Y22406000D01*
X4499000Y22406000D01*
X4499000Y16154000D01*
X4499000Y16154000D01*
G37*
G36*
X12999000Y16154000D02*
X11297000Y16154000D01*
X11297000Y22406000D01*
X12999000Y22406000D01*
X12999000Y16154000D01*
X12999000Y16154000D01*
G37*
G36*
X37980442Y18142482D02*
X38046627Y18135963D01*
X38159853Y18101616D01*
X38216467Y18084443D01*
X38355087Y18010348D01*
X38372991Y18000778D01*
X38408729Y17971448D01*
X38510186Y17888186D01*
X38593448Y17786729D01*
X38622778Y17750991D01*
X38622779Y17750989D01*
X38706443Y17594467D01*
X38706443Y17594466D01*
X38757963Y17424627D01*
X38775359Y17248000D01*
X38757963Y17071373D01*
X38723616Y16958147D01*
X38706443Y16901533D01*
X38655379Y16806000D01*
X38622778Y16745009D01*
X38593448Y16709271D01*
X38510186Y16607814D01*
X38408729Y16524552D01*
X38372991Y16495222D01*
X38372989Y16495221D01*
X38216467Y16411557D01*
X38159853Y16394384D01*
X38046627Y16360037D01*
X37980443Y16353519D01*
X37914260Y16347000D01*
X37825740Y16347000D01*
X37759557Y16353519D01*
X37693373Y16360037D01*
X37580147Y16394384D01*
X37523533Y16411557D01*
X37367011Y16495221D01*
X37367009Y16495222D01*
X37331271Y16524552D01*
X37229814Y16607814D01*
X37146552Y16709271D01*
X37117222Y16745009D01*
X37084621Y16806000D01*
X37033557Y16901533D01*
X37016384Y16958147D01*
X36982037Y17071373D01*
X36964641Y17248000D01*
X36982037Y17424627D01*
X37033557Y17594466D01*
X37033557Y17594467D01*
X37117221Y17750989D01*
X37117222Y17750991D01*
X37146552Y17786729D01*
X37229814Y17888186D01*
X37331271Y17971448D01*
X37367009Y18000778D01*
X37384913Y18010348D01*
X37523533Y18084443D01*
X37580147Y18101616D01*
X37693373Y18135963D01*
X37759557Y18142481D01*
X37825740Y18149000D01*
X37914260Y18149000D01*
X37980442Y18142482D01*
X37980442Y18142482D01*
G37*
G36*
X34170442Y18142482D02*
X34236627Y18135963D01*
X34349853Y18101616D01*
X34406467Y18084443D01*
X34545087Y18010348D01*
X34562991Y18000778D01*
X34598729Y17971448D01*
X34700186Y17888186D01*
X34783448Y17786729D01*
X34812778Y17750991D01*
X34812779Y17750989D01*
X34896443Y17594467D01*
X34896443Y17594466D01*
X34947963Y17424627D01*
X34965359Y17248000D01*
X34947963Y17071373D01*
X34913616Y16958147D01*
X34896443Y16901533D01*
X34845379Y16806000D01*
X34812778Y16745009D01*
X34783448Y16709271D01*
X34700186Y16607814D01*
X34598729Y16524552D01*
X34562991Y16495222D01*
X34562989Y16495221D01*
X34406467Y16411557D01*
X34349853Y16394384D01*
X34236627Y16360037D01*
X34170443Y16353519D01*
X34104260Y16347000D01*
X34015740Y16347000D01*
X33949557Y16353519D01*
X33883373Y16360037D01*
X33770147Y16394384D01*
X33713533Y16411557D01*
X33557011Y16495221D01*
X33557009Y16495222D01*
X33521271Y16524552D01*
X33419814Y16607814D01*
X33336552Y16709271D01*
X33307222Y16745009D01*
X33274621Y16806000D01*
X33223557Y16901533D01*
X33206384Y16958147D01*
X33172037Y17071373D01*
X33154641Y17248000D01*
X33172037Y17424627D01*
X33223557Y17594466D01*
X33223557Y17594467D01*
X33307221Y17750989D01*
X33307222Y17750991D01*
X33336552Y17786729D01*
X33419814Y17888186D01*
X33521271Y17971448D01*
X33557009Y18000778D01*
X33574913Y18010348D01*
X33713533Y18084443D01*
X33770147Y18101616D01*
X33883373Y18135963D01*
X33949557Y18142481D01*
X34015740Y18149000D01*
X34104260Y18149000D01*
X34170442Y18142482D01*
X34170442Y18142482D01*
G37*
G36*
X30481000Y16797000D02*
X29479000Y16797000D01*
X29479000Y17699000D01*
X30481000Y17699000D01*
X30481000Y16797000D01*
X30481000Y16797000D01*
G37*
G36*
X28481000Y17747000D02*
X27479000Y17747000D01*
X27479000Y18649000D01*
X28481000Y18649000D01*
X28481000Y17747000D01*
X28481000Y17747000D01*
G37*
G36*
X34170443Y20682481D02*
X34236627Y20675963D01*
X34349853Y20641616D01*
X34406467Y20624443D01*
X34545087Y20550348D01*
X34562991Y20540778D01*
X34598729Y20511448D01*
X34700186Y20428186D01*
X34783448Y20326729D01*
X34812778Y20290991D01*
X34812779Y20290989D01*
X34896443Y20134467D01*
X34896443Y20134466D01*
X34947963Y19964627D01*
X34965359Y19788000D01*
X34947963Y19611373D01*
X34913616Y19498147D01*
X34896443Y19441533D01*
X34849655Y19354000D01*
X34812778Y19285009D01*
X34783448Y19249271D01*
X34700186Y19147814D01*
X34598729Y19064552D01*
X34562991Y19035222D01*
X34562989Y19035221D01*
X34406467Y18951557D01*
X34349853Y18934384D01*
X34236627Y18900037D01*
X34170442Y18893518D01*
X34104260Y18887000D01*
X34015740Y18887000D01*
X33949558Y18893518D01*
X33883373Y18900037D01*
X33770147Y18934384D01*
X33713533Y18951557D01*
X33557011Y19035221D01*
X33557009Y19035222D01*
X33521271Y19064552D01*
X33419814Y19147814D01*
X33336552Y19249271D01*
X33307222Y19285009D01*
X33270345Y19354000D01*
X33223557Y19441533D01*
X33206384Y19498147D01*
X33172037Y19611373D01*
X33154641Y19788000D01*
X33172037Y19964627D01*
X33223557Y20134466D01*
X33223557Y20134467D01*
X33307221Y20290989D01*
X33307222Y20290991D01*
X33336552Y20326729D01*
X33419814Y20428186D01*
X33521271Y20511448D01*
X33557009Y20540778D01*
X33574913Y20550348D01*
X33713533Y20624443D01*
X33770147Y20641616D01*
X33883373Y20675963D01*
X33949557Y20682481D01*
X34015740Y20689000D01*
X34104260Y20689000D01*
X34170443Y20682481D01*
X34170443Y20682481D01*
G37*
G36*
X37980443Y20682481D02*
X38046627Y20675963D01*
X38159853Y20641616D01*
X38216467Y20624443D01*
X38355087Y20550348D01*
X38372991Y20540778D01*
X38408729Y20511448D01*
X38510186Y20428186D01*
X38593448Y20326729D01*
X38622778Y20290991D01*
X38622779Y20290989D01*
X38706443Y20134467D01*
X38706443Y20134466D01*
X38757963Y19964627D01*
X38775359Y19788000D01*
X38757963Y19611373D01*
X38723616Y19498147D01*
X38706443Y19441533D01*
X38659655Y19354000D01*
X38622778Y19285009D01*
X38593448Y19249271D01*
X38510186Y19147814D01*
X38408729Y19064552D01*
X38372991Y19035222D01*
X38372989Y19035221D01*
X38216467Y18951557D01*
X38159853Y18934384D01*
X38046627Y18900037D01*
X37980442Y18893518D01*
X37914260Y18887000D01*
X37825740Y18887000D01*
X37759558Y18893518D01*
X37693373Y18900037D01*
X37580147Y18934384D01*
X37523533Y18951557D01*
X37367011Y19035221D01*
X37367009Y19035222D01*
X37331271Y19064552D01*
X37229814Y19147814D01*
X37146552Y19249271D01*
X37117222Y19285009D01*
X37080345Y19354000D01*
X37033557Y19441533D01*
X37016384Y19498147D01*
X36982037Y19611373D01*
X36964641Y19788000D01*
X36982037Y19964627D01*
X37033557Y20134466D01*
X37033557Y20134467D01*
X37117221Y20290989D01*
X37117222Y20290991D01*
X37146552Y20326729D01*
X37229814Y20428186D01*
X37331271Y20511448D01*
X37367009Y20540778D01*
X37384913Y20550348D01*
X37523533Y20624443D01*
X37580147Y20641616D01*
X37693373Y20675963D01*
X37759557Y20682481D01*
X37825740Y20689000D01*
X37914260Y20689000D01*
X37980443Y20682481D01*
X37980443Y20682481D01*
G37*
G36*
X37980443Y23222481D02*
X38046627Y23215963D01*
X38159853Y23181616D01*
X38216467Y23164443D01*
X38306628Y23116250D01*
X38372991Y23080778D01*
X38398445Y23059888D01*
X38510186Y22968186D01*
X38580630Y22882348D01*
X38622778Y22830991D01*
X38622779Y22830989D01*
X38706443Y22674467D01*
X38706443Y22674466D01*
X38757963Y22504627D01*
X38775359Y22328000D01*
X38757963Y22151373D01*
X38723616Y22038147D01*
X38706443Y21981533D01*
X38632348Y21842913D01*
X38622778Y21825009D01*
X38593448Y21789271D01*
X38510186Y21687814D01*
X38410494Y21606000D01*
X38372991Y21575222D01*
X38372989Y21575221D01*
X38216467Y21491557D01*
X38159853Y21474384D01*
X38046627Y21440037D01*
X37980443Y21433519D01*
X37914260Y21427000D01*
X37825740Y21427000D01*
X37759557Y21433519D01*
X37693373Y21440037D01*
X37580147Y21474384D01*
X37523533Y21491557D01*
X37367011Y21575221D01*
X37367009Y21575222D01*
X37329506Y21606000D01*
X37229814Y21687814D01*
X37146552Y21789271D01*
X37117222Y21825009D01*
X37107652Y21842913D01*
X37033557Y21981533D01*
X37016384Y22038147D01*
X36982037Y22151373D01*
X36964641Y22328000D01*
X36982037Y22504627D01*
X37033557Y22674466D01*
X37033557Y22674467D01*
X37117221Y22830989D01*
X37117222Y22830991D01*
X37159370Y22882348D01*
X37229814Y22968186D01*
X37341555Y23059888D01*
X37367009Y23080778D01*
X37433372Y23116250D01*
X37523533Y23164443D01*
X37580147Y23181616D01*
X37693373Y23215963D01*
X37759557Y23222481D01*
X37825740Y23229000D01*
X37914260Y23229000D01*
X37980443Y23222481D01*
X37980443Y23222481D01*
G37*
G36*
X34170443Y23222481D02*
X34236627Y23215963D01*
X34349853Y23181616D01*
X34406467Y23164443D01*
X34496628Y23116250D01*
X34562991Y23080778D01*
X34588445Y23059888D01*
X34700186Y22968186D01*
X34770630Y22882348D01*
X34812778Y22830991D01*
X34812779Y22830989D01*
X34896443Y22674467D01*
X34896443Y22674466D01*
X34947963Y22504627D01*
X34965359Y22328000D01*
X34947963Y22151373D01*
X34913616Y22038147D01*
X34896443Y21981533D01*
X34822348Y21842913D01*
X34812778Y21825009D01*
X34783448Y21789271D01*
X34700186Y21687814D01*
X34600494Y21606000D01*
X34562991Y21575222D01*
X34562989Y21575221D01*
X34406467Y21491557D01*
X34349853Y21474384D01*
X34236627Y21440037D01*
X34170443Y21433519D01*
X34104260Y21427000D01*
X34015740Y21427000D01*
X33949557Y21433519D01*
X33883373Y21440037D01*
X33770147Y21474384D01*
X33713533Y21491557D01*
X33557011Y21575221D01*
X33557009Y21575222D01*
X33519506Y21606000D01*
X33419814Y21687814D01*
X33336552Y21789271D01*
X33307222Y21825009D01*
X33297652Y21842913D01*
X33223557Y21981533D01*
X33206384Y22038147D01*
X33172037Y22151373D01*
X33154641Y22328000D01*
X33172037Y22504627D01*
X33223557Y22674466D01*
X33223557Y22674467D01*
X33307221Y22830989D01*
X33307222Y22830991D01*
X33349370Y22882348D01*
X33419814Y22968186D01*
X33531555Y23059888D01*
X33557009Y23080778D01*
X33623372Y23116250D01*
X33713533Y23164443D01*
X33770147Y23181616D01*
X33883373Y23215963D01*
X33949557Y23222481D01*
X34015740Y23229000D01*
X34104260Y23229000D01*
X34170443Y23222481D01*
X34170443Y23222481D01*
G37*
G36*
X24628000Y22304000D02*
X17076000Y22304000D01*
X17076000Y23406000D01*
X24628000Y23406000D01*
X24628000Y22304000D01*
X24628000Y22304000D01*
G37*
G36*
X11024000Y22679000D02*
X4772000Y22679000D01*
X4772000Y24381000D01*
X11024000Y24381000D01*
X11024000Y22679000D01*
X11024000Y22679000D01*
G37*
G36*
X29781466Y24344435D02*
X29820137Y24332704D01*
X29855779Y24313652D01*
X29887017Y24288017D01*
X29912652Y24256779D01*
X29931704Y24221137D01*
X29943435Y24182466D01*
X29948000Y24136112D01*
X29948000Y23059888D01*
X29943435Y23013534D01*
X29931704Y22974863D01*
X29912652Y22939221D01*
X29887017Y22907983D01*
X29855779Y22882348D01*
X29820137Y22863296D01*
X29781466Y22851565D01*
X29735112Y22847000D01*
X29083888Y22847000D01*
X29037534Y22851565D01*
X28998863Y22863296D01*
X28963221Y22882348D01*
X28931983Y22907983D01*
X28906348Y22939221D01*
X28887296Y22974863D01*
X28875565Y23013534D01*
X28871000Y23059888D01*
X28871000Y24136112D01*
X28875565Y24182466D01*
X28887296Y24221137D01*
X28906348Y24256779D01*
X28931983Y24288017D01*
X28963221Y24313652D01*
X28998863Y24332704D01*
X29037534Y24344435D01*
X29083888Y24349000D01*
X29735112Y24349000D01*
X29781466Y24344435D01*
X29781466Y24344435D01*
G37*
G36*
X27906466Y24344435D02*
X27945137Y24332704D01*
X27980779Y24313652D01*
X28012017Y24288017D01*
X28037652Y24256779D01*
X28056704Y24221137D01*
X28068435Y24182466D01*
X28073000Y24136112D01*
X28073000Y23059888D01*
X28068435Y23013534D01*
X28056704Y22974863D01*
X28037652Y22939221D01*
X28012017Y22907983D01*
X27980779Y22882348D01*
X27945137Y22863296D01*
X27906466Y22851565D01*
X27860112Y22847000D01*
X27208888Y22847000D01*
X27162534Y22851565D01*
X27123863Y22863296D01*
X27088221Y22882348D01*
X27056983Y22907983D01*
X27031348Y22939221D01*
X27012296Y22974863D01*
X27000565Y23013534D01*
X26996000Y23059888D01*
X26996000Y24136112D01*
X27000565Y24182466D01*
X27012296Y24221137D01*
X27031348Y24256779D01*
X27056983Y24288017D01*
X27088221Y24313652D01*
X27123863Y24332704D01*
X27162534Y24344435D01*
X27208888Y24349000D01*
X27860112Y24349000D01*
X27906466Y24344435D01*
X27906466Y24344435D01*
G37*
G36*
X37980443Y25762481D02*
X38046627Y25755963D01*
X38159853Y25721616D01*
X38216467Y25704443D01*
X38355087Y25630348D01*
X38372991Y25620778D01*
X38408729Y25591448D01*
X38510186Y25508186D01*
X38593448Y25406729D01*
X38622778Y25370991D01*
X38622779Y25370989D01*
X38706443Y25214467D01*
X38706443Y25214466D01*
X38757963Y25044627D01*
X38775359Y24868000D01*
X38757963Y24691373D01*
X38723616Y24578147D01*
X38706443Y24521533D01*
X38632348Y24382913D01*
X38622778Y24365009D01*
X38605893Y24344435D01*
X38510186Y24227814D01*
X38408729Y24144552D01*
X38372991Y24115222D01*
X38372989Y24115221D01*
X38216467Y24031557D01*
X38159853Y24014384D01*
X38046627Y23980037D01*
X37980443Y23973519D01*
X37914260Y23967000D01*
X37825740Y23967000D01*
X37759557Y23973519D01*
X37693373Y23980037D01*
X37580147Y24014384D01*
X37523533Y24031557D01*
X37367011Y24115221D01*
X37367009Y24115222D01*
X37331271Y24144552D01*
X37229814Y24227814D01*
X37134107Y24344435D01*
X37117222Y24365009D01*
X37107652Y24382913D01*
X37033557Y24521533D01*
X37016384Y24578147D01*
X36982037Y24691373D01*
X36964641Y24868000D01*
X36982037Y25044627D01*
X37033557Y25214466D01*
X37033557Y25214467D01*
X37117221Y25370989D01*
X37117222Y25370991D01*
X37146552Y25406729D01*
X37229814Y25508186D01*
X37331271Y25591448D01*
X37367009Y25620778D01*
X37384913Y25630348D01*
X37523533Y25704443D01*
X37580147Y25721616D01*
X37693373Y25755963D01*
X37759557Y25762481D01*
X37825740Y25769000D01*
X37914260Y25769000D01*
X37980443Y25762481D01*
X37980443Y25762481D01*
G37*
G36*
X34961000Y23967000D02*
X33159000Y23967000D01*
X33159000Y25769000D01*
X34961000Y25769000D01*
X34961000Y23967000D01*
X34961000Y23967000D01*
G37*
G36*
X1742000Y25757000D02*
X1240000Y25757000D01*
X1240000Y29059000D01*
X1742000Y29059000D01*
X1742000Y25757000D01*
X1742000Y25757000D01*
G37*
G36*
X2942000Y25757000D02*
X2440000Y25757000D01*
X2440000Y29059000D01*
X2942000Y29059000D01*
X2942000Y25757000D01*
X2942000Y25757000D01*
G37*
G36*
X4142000Y25757000D02*
X3640000Y25757000D01*
X3640000Y29059000D01*
X4142000Y29059000D01*
X4142000Y25757000D01*
X4142000Y25757000D01*
G37*
G36*
X11784466Y27258435D02*
X11823137Y27246704D01*
X11858779Y27227652D01*
X11890017Y27202017D01*
X11915652Y27170779D01*
X11934704Y27135137D01*
X11946435Y27096466D01*
X11951000Y27050112D01*
X11951000Y26398888D01*
X11946435Y26352534D01*
X11934704Y26313863D01*
X11915652Y26278221D01*
X11890017Y26246983D01*
X11858779Y26221348D01*
X11823137Y26202296D01*
X11784466Y26190565D01*
X11738112Y26186000D01*
X10661888Y26186000D01*
X10615534Y26190565D01*
X10576863Y26202296D01*
X10541221Y26221348D01*
X10509983Y26246983D01*
X10484348Y26278221D01*
X10465296Y26313863D01*
X10453565Y26352534D01*
X10449000Y26398888D01*
X10449000Y27050112D01*
X10453565Y27096466D01*
X10465296Y27135137D01*
X10484348Y27170779D01*
X10509983Y27202017D01*
X10541221Y27227652D01*
X10576863Y27246704D01*
X10615534Y27258435D01*
X10661888Y27263000D01*
X11738112Y27263000D01*
X11784466Y27258435D01*
X11784466Y27258435D01*
G37*
G36*
X7720466Y27258435D02*
X7759137Y27246704D01*
X7794779Y27227652D01*
X7826017Y27202017D01*
X7851652Y27170779D01*
X7870704Y27135137D01*
X7882435Y27096466D01*
X7887000Y27050112D01*
X7887000Y26398888D01*
X7882435Y26352534D01*
X7870704Y26313863D01*
X7851652Y26278221D01*
X7826017Y26246983D01*
X7794779Y26221348D01*
X7759137Y26202296D01*
X7720466Y26190565D01*
X7674112Y26186000D01*
X6597888Y26186000D01*
X6551534Y26190565D01*
X6512863Y26202296D01*
X6477221Y26221348D01*
X6445983Y26246983D01*
X6420348Y26278221D01*
X6401296Y26313863D01*
X6389565Y26352534D01*
X6385000Y26398888D01*
X6385000Y27050112D01*
X6389565Y27096466D01*
X6401296Y27135137D01*
X6420348Y27170779D01*
X6445983Y27202017D01*
X6477221Y27227652D01*
X6512863Y27246704D01*
X6551534Y27258435D01*
X6597888Y27263000D01*
X7674112Y27263000D01*
X7720466Y27258435D01*
X7720466Y27258435D01*
G37*
G36*
X38117765Y29542597D02*
X38240445Y29518195D01*
X38471571Y29422459D01*
X38679581Y29283471D01*
X38856471Y29106581D01*
X38856473Y29106578D01*
X38995459Y28898571D01*
X39091195Y28667445D01*
X39100309Y28621623D01*
X39140000Y28422086D01*
X39140000Y28171914D01*
X39133624Y28139861D01*
X39091195Y27926555D01*
X38995917Y27696534D01*
X38995459Y27695429D01*
X38856471Y27487419D01*
X38679581Y27310529D01*
X38679578Y27310527D01*
X38471571Y27171541D01*
X38240445Y27075805D01*
X38117765Y27051403D01*
X37995086Y27027000D01*
X37744914Y27027000D01*
X37622236Y27051402D01*
X37499555Y27075805D01*
X37268429Y27171541D01*
X37060422Y27310527D01*
X37060419Y27310529D01*
X36883529Y27487419D01*
X36744541Y27695429D01*
X36744083Y27696534D01*
X36648805Y27926555D01*
X36606376Y28139861D01*
X36600000Y28171914D01*
X36600000Y28422086D01*
X36639691Y28621623D01*
X36648805Y28667445D01*
X36744541Y28898571D01*
X36883527Y29106578D01*
X36883529Y29106581D01*
X37060419Y29283471D01*
X37268429Y29422459D01*
X37499555Y29518195D01*
X37622236Y29542598D01*
X37744914Y29567000D01*
X37995086Y29567000D01*
X38117765Y29542597D01*
X38117765Y29542597D01*
G37*
G36*
X16673000Y27142000D02*
X14871000Y27142000D01*
X14871000Y28944000D01*
X16673000Y28944000D01*
X16673000Y27142000D01*
X16673000Y27142000D01*
G37*
G36*
X18422442Y28937482D02*
X18488627Y28930963D01*
X18595409Y28898571D01*
X18658467Y28879443D01*
X18797087Y28805348D01*
X18814991Y28795778D01*
X18850729Y28766448D01*
X18952186Y28683186D01*
X19015516Y28606017D01*
X19064778Y28545991D01*
X19064779Y28545989D01*
X19148443Y28389467D01*
X19148443Y28389466D01*
X19199963Y28219627D01*
X19217359Y28043000D01*
X19199963Y27866373D01*
X19165616Y27753147D01*
X19148443Y27696533D01*
X19074348Y27557913D01*
X19064778Y27540009D01*
X19035448Y27504271D01*
X18952186Y27402814D01*
X18864937Y27331212D01*
X18814991Y27290222D01*
X18814989Y27290221D01*
X18658467Y27206557D01*
X18643500Y27202017D01*
X18488627Y27155037D01*
X18422443Y27148519D01*
X18356260Y27142000D01*
X18267740Y27142000D01*
X18201557Y27148519D01*
X18135373Y27155037D01*
X17980500Y27202017D01*
X17965533Y27206557D01*
X17809011Y27290221D01*
X17809009Y27290222D01*
X17759063Y27331212D01*
X17671814Y27402814D01*
X17588552Y27504271D01*
X17559222Y27540009D01*
X17549652Y27557913D01*
X17475557Y27696533D01*
X17458384Y27753147D01*
X17424037Y27866373D01*
X17406641Y28043000D01*
X17424037Y28219627D01*
X17475557Y28389466D01*
X17475557Y28389467D01*
X17559221Y28545989D01*
X17559222Y28545991D01*
X17608484Y28606017D01*
X17671814Y28683186D01*
X17773271Y28766448D01*
X17809009Y28795778D01*
X17826913Y28805348D01*
X17965533Y28879443D01*
X18028591Y28898571D01*
X18135373Y28930963D01*
X18201558Y28937482D01*
X18267740Y28944000D01*
X18356260Y28944000D01*
X18422442Y28937482D01*
X18422442Y28937482D01*
G37*
G36*
X20962442Y28937482D02*
X21028627Y28930963D01*
X21135409Y28898571D01*
X21198467Y28879443D01*
X21337087Y28805348D01*
X21354991Y28795778D01*
X21390729Y28766448D01*
X21492186Y28683186D01*
X21555516Y28606017D01*
X21604778Y28545991D01*
X21604779Y28545989D01*
X21688443Y28389467D01*
X21688443Y28389466D01*
X21739963Y28219627D01*
X21757359Y28043000D01*
X21739963Y27866373D01*
X21705616Y27753147D01*
X21688443Y27696533D01*
X21614348Y27557913D01*
X21604778Y27540009D01*
X21575448Y27504271D01*
X21492186Y27402814D01*
X21404937Y27331212D01*
X21354991Y27290222D01*
X21354989Y27290221D01*
X21198467Y27206557D01*
X21183500Y27202017D01*
X21028627Y27155037D01*
X20962443Y27148519D01*
X20896260Y27142000D01*
X20807740Y27142000D01*
X20741557Y27148519D01*
X20675373Y27155037D01*
X20520500Y27202017D01*
X20505533Y27206557D01*
X20349011Y27290221D01*
X20349009Y27290222D01*
X20299063Y27331212D01*
X20211814Y27402814D01*
X20128552Y27504271D01*
X20099222Y27540009D01*
X20089652Y27557913D01*
X20015557Y27696533D01*
X19998384Y27753147D01*
X19964037Y27866373D01*
X19946641Y28043000D01*
X19964037Y28219627D01*
X20015557Y28389466D01*
X20015557Y28389467D01*
X20099221Y28545989D01*
X20099222Y28545991D01*
X20148484Y28606017D01*
X20211814Y28683186D01*
X20313271Y28766448D01*
X20349009Y28795778D01*
X20366913Y28805348D01*
X20505533Y28879443D01*
X20568591Y28898571D01*
X20675373Y28930963D01*
X20741558Y28937482D01*
X20807740Y28944000D01*
X20896260Y28944000D01*
X20962442Y28937482D01*
X20962442Y28937482D01*
G37*
G36*
X23502442Y28937482D02*
X23568627Y28930963D01*
X23675409Y28898571D01*
X23738467Y28879443D01*
X23877087Y28805348D01*
X23894991Y28795778D01*
X23930729Y28766448D01*
X24032186Y28683186D01*
X24095516Y28606017D01*
X24144778Y28545991D01*
X24144779Y28545989D01*
X24228443Y28389467D01*
X24228443Y28389466D01*
X24279963Y28219627D01*
X24297359Y28043000D01*
X24279963Y27866373D01*
X24245616Y27753147D01*
X24228443Y27696533D01*
X24154348Y27557913D01*
X24144778Y27540009D01*
X24115448Y27504271D01*
X24032186Y27402814D01*
X23944937Y27331212D01*
X23894991Y27290222D01*
X23894989Y27290221D01*
X23738467Y27206557D01*
X23723500Y27202017D01*
X23568627Y27155037D01*
X23502443Y27148519D01*
X23436260Y27142000D01*
X23347740Y27142000D01*
X23281557Y27148519D01*
X23215373Y27155037D01*
X23060500Y27202017D01*
X23045533Y27206557D01*
X22889011Y27290221D01*
X22889009Y27290222D01*
X22839063Y27331212D01*
X22751814Y27402814D01*
X22668552Y27504271D01*
X22639222Y27540009D01*
X22629652Y27557913D01*
X22555557Y27696533D01*
X22538384Y27753147D01*
X22504037Y27866373D01*
X22486641Y28043000D01*
X22504037Y28219627D01*
X22555557Y28389466D01*
X22555557Y28389467D01*
X22639221Y28545989D01*
X22639222Y28545991D01*
X22688484Y28606017D01*
X22751814Y28683186D01*
X22853271Y28766448D01*
X22889009Y28795778D01*
X22906913Y28805348D01*
X23045533Y28879443D01*
X23108591Y28898571D01*
X23215373Y28930963D01*
X23281558Y28937482D01*
X23347740Y28944000D01*
X23436260Y28944000D01*
X23502442Y28937482D01*
X23502442Y28937482D01*
G37*
G36*
X26042442Y28937482D02*
X26108627Y28930963D01*
X26215409Y28898571D01*
X26278467Y28879443D01*
X26417087Y28805348D01*
X26434991Y28795778D01*
X26470729Y28766448D01*
X26572186Y28683186D01*
X26635516Y28606017D01*
X26684778Y28545991D01*
X26684779Y28545989D01*
X26768443Y28389467D01*
X26768443Y28389466D01*
X26819963Y28219627D01*
X26837359Y28043000D01*
X26819963Y27866373D01*
X26785616Y27753147D01*
X26768443Y27696533D01*
X26694348Y27557913D01*
X26684778Y27540009D01*
X26655448Y27504271D01*
X26572186Y27402814D01*
X26484937Y27331212D01*
X26434991Y27290222D01*
X26434989Y27290221D01*
X26278467Y27206557D01*
X26263500Y27202017D01*
X26108627Y27155037D01*
X26042443Y27148519D01*
X25976260Y27142000D01*
X25887740Y27142000D01*
X25821557Y27148519D01*
X25755373Y27155037D01*
X25600500Y27202017D01*
X25585533Y27206557D01*
X25429011Y27290221D01*
X25429009Y27290222D01*
X25379063Y27331212D01*
X25291814Y27402814D01*
X25208552Y27504271D01*
X25179222Y27540009D01*
X25169652Y27557913D01*
X25095557Y27696533D01*
X25078384Y27753147D01*
X25044037Y27866373D01*
X25026641Y28043000D01*
X25044037Y28219627D01*
X25095557Y28389466D01*
X25095557Y28389467D01*
X25179221Y28545989D01*
X25179222Y28545991D01*
X25228484Y28606017D01*
X25291814Y28683186D01*
X25393271Y28766448D01*
X25429009Y28795778D01*
X25446913Y28805348D01*
X25585533Y28879443D01*
X25648591Y28898571D01*
X25755373Y28930963D01*
X25821558Y28937482D01*
X25887740Y28944000D01*
X25976260Y28944000D01*
X26042442Y28937482D01*
X26042442Y28937482D01*
G37*
G36*
X29811466Y28662435D02*
X29850137Y28650704D01*
X29885779Y28631652D01*
X29917017Y28606017D01*
X29942652Y28574779D01*
X29961704Y28539137D01*
X29973435Y28500466D01*
X29978000Y28454112D01*
X29978000Y27377888D01*
X29973435Y27331534D01*
X29961704Y27292863D01*
X29942652Y27257221D01*
X29917017Y27225983D01*
X29885779Y27200348D01*
X29850137Y27181296D01*
X29811466Y27169565D01*
X29765112Y27165000D01*
X29113888Y27165000D01*
X29067534Y27169565D01*
X29028863Y27181296D01*
X28993221Y27200348D01*
X28961983Y27225983D01*
X28936348Y27257221D01*
X28917296Y27292863D01*
X28905565Y27331534D01*
X28901000Y27377888D01*
X28901000Y28454112D01*
X28905565Y28500466D01*
X28917296Y28539137D01*
X28936348Y28574779D01*
X28961983Y28606017D01*
X28993221Y28631652D01*
X29028863Y28650704D01*
X29067534Y28662435D01*
X29113888Y28667000D01*
X29765112Y28667000D01*
X29811466Y28662435D01*
X29811466Y28662435D01*
G37*
G36*
X31686466Y28662435D02*
X31725137Y28650704D01*
X31760779Y28631652D01*
X31792017Y28606017D01*
X31817652Y28574779D01*
X31836704Y28539137D01*
X31848435Y28500466D01*
X31853000Y28454112D01*
X31853000Y27377888D01*
X31848435Y27331534D01*
X31836704Y27292863D01*
X31817652Y27257221D01*
X31792017Y27225983D01*
X31760779Y27200348D01*
X31725137Y27181296D01*
X31686466Y27169565D01*
X31640112Y27165000D01*
X30988888Y27165000D01*
X30942534Y27169565D01*
X30903863Y27181296D01*
X30868221Y27200348D01*
X30836983Y27225983D01*
X30811348Y27257221D01*
X30792296Y27292863D01*
X30780565Y27331534D01*
X30776000Y27377888D01*
X30776000Y28454112D01*
X30780565Y28500466D01*
X30792296Y28539137D01*
X30811348Y28574779D01*
X30836983Y28606017D01*
X30868221Y28631652D01*
X30903863Y28650704D01*
X30942534Y28662435D01*
X30988888Y28667000D01*
X31640112Y28667000D01*
X31686466Y28662435D01*
X31686466Y28662435D01*
G37*
G36*
X11784466Y29133435D02*
X11823137Y29121704D01*
X11858779Y29102652D01*
X11890017Y29077017D01*
X11915652Y29045779D01*
X11934704Y29010137D01*
X11946435Y28971466D01*
X11951000Y28925112D01*
X11951000Y28273888D01*
X11946435Y28227534D01*
X11934704Y28188863D01*
X11915652Y28153221D01*
X11890017Y28121983D01*
X11858779Y28096348D01*
X11823137Y28077296D01*
X11784466Y28065565D01*
X11738112Y28061000D01*
X10661888Y28061000D01*
X10615534Y28065565D01*
X10576863Y28077296D01*
X10541221Y28096348D01*
X10509983Y28121983D01*
X10484348Y28153221D01*
X10465296Y28188863D01*
X10453565Y28227534D01*
X10449000Y28273888D01*
X10449000Y28925112D01*
X10453565Y28971466D01*
X10465296Y29010137D01*
X10484348Y29045779D01*
X10509983Y29077017D01*
X10541221Y29102652D01*
X10576863Y29121704D01*
X10615534Y29133435D01*
X10661888Y29138000D01*
X11738112Y29138000D01*
X11784466Y29133435D01*
X11784466Y29133435D01*
G37*
G36*
X7720466Y29133435D02*
X7759137Y29121704D01*
X7794779Y29102652D01*
X7826017Y29077017D01*
X7851652Y29045779D01*
X7870704Y29010137D01*
X7882435Y28971466D01*
X7887000Y28925112D01*
X7887000Y28273888D01*
X7882435Y28227534D01*
X7870704Y28188863D01*
X7851652Y28153221D01*
X7826017Y28121983D01*
X7794779Y28096348D01*
X7759137Y28077296D01*
X7720466Y28065565D01*
X7674112Y28061000D01*
X6597888Y28061000D01*
X6551534Y28065565D01*
X6512863Y28077296D01*
X6477221Y28096348D01*
X6445983Y28121983D01*
X6420348Y28153221D01*
X6401296Y28188863D01*
X6389565Y28227534D01*
X6385000Y28273888D01*
X6385000Y28925112D01*
X6389565Y28971466D01*
X6401296Y29010137D01*
X6420348Y29045779D01*
X6445983Y29077017D01*
X6477221Y29102652D01*
X6512863Y29121704D01*
X6551534Y29133435D01*
X6597888Y29138000D01*
X7674112Y29138000D01*
X7720466Y29133435D01*
X7720466Y29133435D01*
G37*
M02*
