M48
;DRILL file {KiCad 5.0.2-bee76a0~70~ubuntu16.04.1} date Thu 11 Jul 2019 08:19:45 AM CEST
;FORMAT={2:4/ absolute / inch / suppress leading zeros}
FMAT,2
INCH,TZ
T1C0.0160
T2C0.0240
T3C0.0394
T4C0.0433
%
G90
G05
T1
X1059Y9841
X2109Y7741
X2459Y7441
X2809Y7141
X2959Y9941
X2959Y3941
X3259Y6591
X3609Y8591
X4559Y3941
X5409Y6191
X6259Y6191
X6659Y3941
X8009Y6741
X8659Y4341
X9359Y6741
X10409Y7191
X11409Y8091
X12959Y10991
T2
X7409Y9791
X9009Y9791
T3
X11409Y5191
X11409Y4191
X12409Y5191
X12409Y4191
X13409Y5191
X13409Y4191
X13409Y9791
X13409Y8791
X13409Y7791
X13409Y6791
X6209Y11041
X7209Y11041
X8209Y11041
X9209Y11041
X10209Y11041
X14909Y9791
X14909Y8791
X14909Y7791
X14909Y6791
X14909Y5791
X14909Y4791
T4
X4609Y2591
X4609Y819
X7169Y2591
X7169Y819
X12209Y2591
X12209Y819
X14769Y2591
X14769Y819
X809Y2591
X809Y819
X3369Y2591
X3369Y819
X8409Y2591
X8409Y819
X10969Y2591
X10969Y819
T0
M30
