G04 #@! TF.GenerationSoftware,KiCad,Pcbnew,5.0.2-bee76a0~70~ubuntu16.04.1*
G04 #@! TF.CreationDate,2019-07-11T08:17:53+02:00*
G04 #@! TF.ProjectId,paste_dispenser,70617374-655f-4646-9973-70656e736572,rev?*
G04 #@! TF.SameCoordinates,PX3dfd240PY3dfd240*
G04 #@! TF.FileFunction,Copper,L2,Bot*
G04 #@! TF.FilePolarity,Positive*
%FSLAX46Y46*%
G04 Gerber Fmt 4.6, Leading zero omitted, Abs format (unit mm)*
G04 Created by KiCad (PCBNEW 5.0.2-bee76a0~70~ubuntu16.04.1) date Thu 11 Jul 2019 08:17:53 AM CEST*
%MOMM*%
%LPD*%
G01*
G04 APERTURE LIST*
G04 #@! TA.AperFunction,ComponentPad*
%ADD10R,1.700000X1.700000*%
G04 #@! TD*
G04 #@! TA.AperFunction,ComponentPad*
%ADD11O,1.700000X1.700000*%
G04 #@! TD*
G04 #@! TA.AperFunction,ComponentPad*
%ADD12C,2.000000*%
G04 #@! TD*
G04 #@! TA.AperFunction,ViaPad*
%ADD13C,0.812800*%
G04 #@! TD*
G04 #@! TA.AperFunction,ViaPad*
%ADD14C,1.219200*%
G04 #@! TD*
G04 #@! TA.AperFunction,Conductor*
%ADD15C,0.254000*%
G04 #@! TD*
G04 #@! TA.AperFunction,Conductor*
%ADD16C,0.203200*%
G04 #@! TD*
G04 APERTURE END LIST*
D10*
G04 #@! TO.P,J2,1*
G04 #@! TO.N,VDD*
X37870000Y12168000D03*
D11*
G04 #@! TO.P,J2,2*
G04 #@! TO.N,/RXD*
X37870000Y14708000D03*
G04 #@! TO.P,J2,3*
G04 #@! TO.N,/TXD*
X37870000Y17248000D03*
G04 #@! TO.P,J2,4*
G04 #@! TO.N,GND*
X37870000Y19788000D03*
G04 #@! TO.P,J2,5*
G04 #@! TO.N,/FOOTSWITCH*
X37870000Y22328000D03*
G04 #@! TO.P,J2,6*
G04 #@! TO.N,GND*
X37870000Y24868000D03*
G04 #@! TD*
D10*
G04 #@! TO.P,J3,1*
G04 #@! TO.N,/MOT_B1*
X15772000Y28043000D03*
D11*
G04 #@! TO.P,J3,2*
G04 #@! TO.N,/MOT_B2*
X18312000Y28043000D03*
G04 #@! TO.P,J3,3*
G04 #@! TO.N,GND*
X20852000Y28043000D03*
G04 #@! TO.P,J3,4*
G04 #@! TO.N,/MOT_A2*
X23392000Y28043000D03*
G04 #@! TO.P,J3,5*
G04 #@! TO.N,/MOT_A1*
X25932000Y28043000D03*
G04 #@! TD*
D10*
G04 #@! TO.P,J1,1*
G04 #@! TO.N,/MISO*
X34060000Y13184000D03*
D11*
G04 #@! TO.P,J1,2*
G04 #@! TO.N,+5V*
X34060000Y10644000D03*
G04 #@! TO.P,J1,3*
G04 #@! TO.N,/SCK*
X31520000Y13184000D03*
G04 #@! TO.P,J1,4*
G04 #@! TO.N,/MOSI*
X31520000Y10644000D03*
G04 #@! TO.P,J1,5*
G04 #@! TO.N,/RESET*
X28980000Y13184000D03*
G04 #@! TO.P,J1,6*
G04 #@! TO.N,GND*
X28980000Y10644000D03*
G04 #@! TD*
D10*
G04 #@! TO.P,J4,1*
G04 #@! TO.N,GND*
X34060000Y24868000D03*
D11*
G04 #@! TO.P,J4,2*
G04 #@! TO.N,+5V*
X34060000Y22328000D03*
G04 #@! TO.P,J4,3*
G04 #@! TO.N,/SCL*
X34060000Y19788000D03*
G04 #@! TO.P,J4,4*
G04 #@! TO.N,/SDA*
X34060000Y17248000D03*
G04 #@! TD*
D12*
G04 #@! TO.P,SW4,1*
G04 #@! TO.N,/BUTTON_SLOW*
X37512000Y6580000D03*
G04 #@! TO.P,SW4,2*
G04 #@! TO.N,GND*
X37512000Y2080000D03*
G04 #@! TO.P,SW4,1*
G04 #@! TO.N,/BUTTON_SLOW*
X31012000Y6580000D03*
G04 #@! TO.P,SW4,2*
G04 #@! TO.N,GND*
X31012000Y2080000D03*
G04 #@! TD*
G04 #@! TO.P,SW3,2*
G04 #@! TO.N,GND*
X21360000Y2080000D03*
G04 #@! TO.P,SW3,1*
G04 #@! TO.N,/BUTTON_FAST*
X21360000Y6580000D03*
G04 #@! TO.P,SW3,2*
G04 #@! TO.N,GND*
X27860000Y2080000D03*
G04 #@! TO.P,SW3,1*
G04 #@! TO.N,/BUTTON_FAST*
X27860000Y6580000D03*
G04 #@! TD*
G04 #@! TO.P,SW1,1*
G04 #@! TO.N,/BUTTON_PULL*
X8556000Y6580000D03*
G04 #@! TO.P,SW1,2*
G04 #@! TO.N,GND*
X8556000Y2080000D03*
G04 #@! TO.P,SW1,1*
G04 #@! TO.N,/BUTTON_PULL*
X2056000Y6580000D03*
G04 #@! TO.P,SW1,2*
G04 #@! TO.N,GND*
X2056000Y2080000D03*
G04 #@! TD*
G04 #@! TO.P,SW2,2*
G04 #@! TO.N,GND*
X11708000Y2080000D03*
G04 #@! TO.P,SW2,1*
G04 #@! TO.N,/BUTTON_PUSH*
X11708000Y6580000D03*
G04 #@! TO.P,SW2,2*
G04 #@! TO.N,GND*
X18208000Y2080000D03*
G04 #@! TO.P,SW2,1*
G04 #@! TO.N,/BUTTON_PUSH*
X18208000Y6580000D03*
G04 #@! TD*
D13*
G04 #@! TO.N,/RESET*
X28980000Y20550000D03*
G04 #@! TO.N,GND*
X2691000Y24995000D03*
X26440000Y18264000D03*
X20344000Y17121000D03*
X7517000Y10009000D03*
X11581000Y10009000D03*
X16915000Y10009000D03*
X21995000Y11025000D03*
X8279000Y16740000D03*
D14*
X18820000Y24868000D03*
X22884000Y24868000D03*
D13*
X32917000Y27916000D03*
X7517000Y25249000D03*
X9168000Y21820000D03*
G04 #@! TO.N,/STEP_STBY*
X13740000Y15724000D03*
X5358000Y19661000D03*
G04 #@! TO.N,/STEP_PWMB*
X15899000Y15724000D03*
X7136000Y18137000D03*
G04 #@! TO.N,/STEP_PWMA*
X23773000Y17121000D03*
X6247000Y18899000D03*
G04 #@! TD*
D15*
G04 #@! TO.N,/RESET*
X28980000Y13184000D02*
X28980000Y20550000D01*
G04 #@! TO.N,/BUTTON_PULL*
X8556000Y6580000D02*
X2056000Y6580000D01*
G04 #@! TO.N,/STEP_STBY*
X5358000Y19086264D02*
X5358000Y19661000D01*
X5358000Y18570830D02*
X5358000Y19086264D01*
X8204830Y15724000D02*
X5358000Y18570830D01*
X13740000Y15724000D02*
X8204830Y15724000D01*
G04 #@! TO.N,/STEP_PWMB*
X13486000Y18137000D02*
X15899000Y15724000D01*
X7136000Y18137000D02*
X13486000Y18137000D01*
G04 #@! TO.N,/STEP_PWMA*
X21995000Y18899000D02*
X23773000Y17121000D01*
X6247000Y18899000D02*
X21995000Y18899000D01*
G04 #@! TD*
D16*
G04 #@! TO.N,GND*
G36*
X39620201Y379800D02*
X379800Y379800D01*
X379800Y1124245D01*
X1243930Y1124245D01*
X1358512Y947138D01*
X1845133Y766455D01*
X2363856Y785747D01*
X2753488Y947138D01*
X2868070Y1124245D01*
X7743930Y1124245D01*
X7858512Y947138D01*
X8345133Y766455D01*
X8863856Y785747D01*
X9253488Y947138D01*
X9368070Y1124245D01*
X10895930Y1124245D01*
X11010512Y947138D01*
X11497133Y766455D01*
X12015856Y785747D01*
X12405488Y947138D01*
X12520070Y1124245D01*
X17395930Y1124245D01*
X17510512Y947138D01*
X17997133Y766455D01*
X18515856Y785747D01*
X18905488Y947138D01*
X19020070Y1124245D01*
X20547930Y1124245D01*
X20662512Y947138D01*
X21149133Y766455D01*
X21667856Y785747D01*
X22057488Y947138D01*
X22172070Y1124245D01*
X27047930Y1124245D01*
X27162512Y947138D01*
X27649133Y766455D01*
X28167856Y785747D01*
X28557488Y947138D01*
X28672070Y1124245D01*
X30199930Y1124245D01*
X30314512Y947138D01*
X30801133Y766455D01*
X31319856Y785747D01*
X31709488Y947138D01*
X31824070Y1124245D01*
X36699930Y1124245D01*
X36814512Y947138D01*
X37301133Y766455D01*
X37819856Y785747D01*
X38209488Y947138D01*
X38324070Y1124245D01*
X37512000Y1936316D01*
X36699930Y1124245D01*
X31824070Y1124245D01*
X31012000Y1936316D01*
X30199930Y1124245D01*
X28672070Y1124245D01*
X27860000Y1936316D01*
X27047930Y1124245D01*
X22172070Y1124245D01*
X21360000Y1936316D01*
X20547930Y1124245D01*
X19020070Y1124245D01*
X18208000Y1936316D01*
X17395930Y1124245D01*
X12520070Y1124245D01*
X11708000Y1936316D01*
X10895930Y1124245D01*
X9368070Y1124245D01*
X8556000Y1936316D01*
X7743930Y1124245D01*
X2868070Y1124245D01*
X2056000Y1936316D01*
X1243930Y1124245D01*
X379800Y1124245D01*
X379800Y2290867D01*
X742455Y2290867D01*
X761747Y1772144D01*
X923138Y1382512D01*
X1100245Y1267930D01*
X1912316Y2080000D01*
X2199684Y2080000D01*
X3011755Y1267930D01*
X3188862Y1382512D01*
X3369545Y1869133D01*
X3353861Y2290867D01*
X7242455Y2290867D01*
X7261747Y1772144D01*
X7423138Y1382512D01*
X7600245Y1267930D01*
X8412316Y2080000D01*
X8699684Y2080000D01*
X9511755Y1267930D01*
X9688862Y1382512D01*
X9869545Y1869133D01*
X9853861Y2290867D01*
X10394455Y2290867D01*
X10413747Y1772144D01*
X10575138Y1382512D01*
X10752245Y1267930D01*
X11564316Y2080000D01*
X11851684Y2080000D01*
X12663755Y1267930D01*
X12840862Y1382512D01*
X13021545Y1869133D01*
X13005861Y2290867D01*
X16894455Y2290867D01*
X16913747Y1772144D01*
X17075138Y1382512D01*
X17252245Y1267930D01*
X18064316Y2080000D01*
X18351684Y2080000D01*
X19163755Y1267930D01*
X19340862Y1382512D01*
X19521545Y1869133D01*
X19505861Y2290867D01*
X20046455Y2290867D01*
X20065747Y1772144D01*
X20227138Y1382512D01*
X20404245Y1267930D01*
X21216316Y2080000D01*
X21503684Y2080000D01*
X22315755Y1267930D01*
X22492862Y1382512D01*
X22673545Y1869133D01*
X22657861Y2290867D01*
X26546455Y2290867D01*
X26565747Y1772144D01*
X26727138Y1382512D01*
X26904245Y1267930D01*
X27716316Y2080000D01*
X28003684Y2080000D01*
X28815755Y1267930D01*
X28992862Y1382512D01*
X29173545Y1869133D01*
X29157861Y2290867D01*
X29698455Y2290867D01*
X29717747Y1772144D01*
X29879138Y1382512D01*
X30056245Y1267930D01*
X30868316Y2080000D01*
X31155684Y2080000D01*
X31967755Y1267930D01*
X32144862Y1382512D01*
X32325545Y1869133D01*
X32309861Y2290867D01*
X36198455Y2290867D01*
X36217747Y1772144D01*
X36379138Y1382512D01*
X36556245Y1267930D01*
X37368316Y2080000D01*
X37655684Y2080000D01*
X38467755Y1267930D01*
X38644862Y1382512D01*
X38825545Y1869133D01*
X38806253Y2387856D01*
X38644862Y2777488D01*
X38467755Y2892070D01*
X37655684Y2080000D01*
X37368316Y2080000D01*
X36556245Y2892070D01*
X36379138Y2777488D01*
X36198455Y2290867D01*
X32309861Y2290867D01*
X32306253Y2387856D01*
X32144862Y2777488D01*
X31967755Y2892070D01*
X31155684Y2080000D01*
X30868316Y2080000D01*
X30056245Y2892070D01*
X29879138Y2777488D01*
X29698455Y2290867D01*
X29157861Y2290867D01*
X29154253Y2387856D01*
X28992862Y2777488D01*
X28815755Y2892070D01*
X28003684Y2080000D01*
X27716316Y2080000D01*
X26904245Y2892070D01*
X26727138Y2777488D01*
X26546455Y2290867D01*
X22657861Y2290867D01*
X22654253Y2387856D01*
X22492862Y2777488D01*
X22315755Y2892070D01*
X21503684Y2080000D01*
X21216316Y2080000D01*
X20404245Y2892070D01*
X20227138Y2777488D01*
X20046455Y2290867D01*
X19505861Y2290867D01*
X19502253Y2387856D01*
X19340862Y2777488D01*
X19163755Y2892070D01*
X18351684Y2080000D01*
X18064316Y2080000D01*
X17252245Y2892070D01*
X17075138Y2777488D01*
X16894455Y2290867D01*
X13005861Y2290867D01*
X13002253Y2387856D01*
X12840862Y2777488D01*
X12663755Y2892070D01*
X11851684Y2080000D01*
X11564316Y2080000D01*
X10752245Y2892070D01*
X10575138Y2777488D01*
X10394455Y2290867D01*
X9853861Y2290867D01*
X9850253Y2387856D01*
X9688862Y2777488D01*
X9511755Y2892070D01*
X8699684Y2080000D01*
X8412316Y2080000D01*
X7600245Y2892070D01*
X7423138Y2777488D01*
X7242455Y2290867D01*
X3353861Y2290867D01*
X3350253Y2387856D01*
X3188862Y2777488D01*
X3011755Y2892070D01*
X2199684Y2080000D01*
X1912316Y2080000D01*
X1100245Y2892070D01*
X923138Y2777488D01*
X742455Y2290867D01*
X379800Y2290867D01*
X379800Y3035755D01*
X1243930Y3035755D01*
X2056000Y2223684D01*
X2868070Y3035755D01*
X7743930Y3035755D01*
X8556000Y2223684D01*
X9368070Y3035755D01*
X10895930Y3035755D01*
X11708000Y2223684D01*
X12520070Y3035755D01*
X17395930Y3035755D01*
X18208000Y2223684D01*
X19020070Y3035755D01*
X20547930Y3035755D01*
X21360000Y2223684D01*
X22172070Y3035755D01*
X27047930Y3035755D01*
X27860000Y2223684D01*
X28672070Y3035755D01*
X30199930Y3035755D01*
X31012000Y2223684D01*
X31824070Y3035755D01*
X36699930Y3035755D01*
X37512000Y2223684D01*
X38324070Y3035755D01*
X38209488Y3212862D01*
X37722867Y3393545D01*
X37204144Y3374253D01*
X36814512Y3212862D01*
X36699930Y3035755D01*
X31824070Y3035755D01*
X31709488Y3212862D01*
X31222867Y3393545D01*
X30704144Y3374253D01*
X30314512Y3212862D01*
X30199930Y3035755D01*
X28672070Y3035755D01*
X28557488Y3212862D01*
X28070867Y3393545D01*
X27552144Y3374253D01*
X27162512Y3212862D01*
X27047930Y3035755D01*
X22172070Y3035755D01*
X22057488Y3212862D01*
X21570867Y3393545D01*
X21052144Y3374253D01*
X20662512Y3212862D01*
X20547930Y3035755D01*
X19020070Y3035755D01*
X18905488Y3212862D01*
X18418867Y3393545D01*
X17900144Y3374253D01*
X17510512Y3212862D01*
X17395930Y3035755D01*
X12520070Y3035755D01*
X12405488Y3212862D01*
X11918867Y3393545D01*
X11400144Y3374253D01*
X11010512Y3212862D01*
X10895930Y3035755D01*
X9368070Y3035755D01*
X9253488Y3212862D01*
X8766867Y3393545D01*
X8248144Y3374253D01*
X7858512Y3212862D01*
X7743930Y3035755D01*
X2868070Y3035755D01*
X2753488Y3212862D01*
X2266867Y3393545D01*
X1748144Y3374253D01*
X1358512Y3212862D01*
X1243930Y3035755D01*
X379800Y3035755D01*
X379800Y6839541D01*
X751200Y6839541D01*
X751200Y6320459D01*
X949844Y5840890D01*
X1316890Y5473844D01*
X1796459Y5275200D01*
X2315541Y5275200D01*
X2795110Y5473844D01*
X3162156Y5840890D01*
X3289448Y6148200D01*
X7322552Y6148200D01*
X7449844Y5840890D01*
X7816890Y5473844D01*
X8296459Y5275200D01*
X8815541Y5275200D01*
X9295110Y5473844D01*
X9662156Y5840890D01*
X9860800Y6320459D01*
X9860800Y6839541D01*
X10403200Y6839541D01*
X10403200Y6320459D01*
X10601844Y5840890D01*
X10968890Y5473844D01*
X11448459Y5275200D01*
X11967541Y5275200D01*
X12447110Y5473844D01*
X12814156Y5840890D01*
X13012800Y6320459D01*
X13012800Y6839541D01*
X16903200Y6839541D01*
X16903200Y6320459D01*
X17101844Y5840890D01*
X17468890Y5473844D01*
X17948459Y5275200D01*
X18467541Y5275200D01*
X18947110Y5473844D01*
X19314156Y5840890D01*
X19512800Y6320459D01*
X19512800Y6839541D01*
X20055200Y6839541D01*
X20055200Y6320459D01*
X20253844Y5840890D01*
X20620890Y5473844D01*
X21100459Y5275200D01*
X21619541Y5275200D01*
X22099110Y5473844D01*
X22466156Y5840890D01*
X22664800Y6320459D01*
X22664800Y6839541D01*
X26555200Y6839541D01*
X26555200Y6320459D01*
X26753844Y5840890D01*
X27120890Y5473844D01*
X27600459Y5275200D01*
X28119541Y5275200D01*
X28599110Y5473844D01*
X28966156Y5840890D01*
X29164800Y6320459D01*
X29164800Y6839541D01*
X29707200Y6839541D01*
X29707200Y6320459D01*
X29905844Y5840890D01*
X30272890Y5473844D01*
X30752459Y5275200D01*
X31271541Y5275200D01*
X31751110Y5473844D01*
X32118156Y5840890D01*
X32316800Y6320459D01*
X32316800Y6839541D01*
X36207200Y6839541D01*
X36207200Y6320459D01*
X36405844Y5840890D01*
X36772890Y5473844D01*
X37252459Y5275200D01*
X37771541Y5275200D01*
X38251110Y5473844D01*
X38618156Y5840890D01*
X38816800Y6320459D01*
X38816800Y6839541D01*
X38618156Y7319110D01*
X38251110Y7686156D01*
X37771541Y7884800D01*
X37252459Y7884800D01*
X36772890Y7686156D01*
X36405844Y7319110D01*
X36207200Y6839541D01*
X32316800Y6839541D01*
X32118156Y7319110D01*
X31751110Y7686156D01*
X31271541Y7884800D01*
X30752459Y7884800D01*
X30272890Y7686156D01*
X29905844Y7319110D01*
X29707200Y6839541D01*
X29164800Y6839541D01*
X28966156Y7319110D01*
X28599110Y7686156D01*
X28119541Y7884800D01*
X27600459Y7884800D01*
X27120890Y7686156D01*
X26753844Y7319110D01*
X26555200Y6839541D01*
X22664800Y6839541D01*
X22466156Y7319110D01*
X22099110Y7686156D01*
X21619541Y7884800D01*
X21100459Y7884800D01*
X20620890Y7686156D01*
X20253844Y7319110D01*
X20055200Y6839541D01*
X19512800Y6839541D01*
X19314156Y7319110D01*
X18947110Y7686156D01*
X18467541Y7884800D01*
X17948459Y7884800D01*
X17468890Y7686156D01*
X17101844Y7319110D01*
X16903200Y6839541D01*
X13012800Y6839541D01*
X12814156Y7319110D01*
X12447110Y7686156D01*
X11967541Y7884800D01*
X11448459Y7884800D01*
X10968890Y7686156D01*
X10601844Y7319110D01*
X10403200Y6839541D01*
X9860800Y6839541D01*
X9662156Y7319110D01*
X9295110Y7686156D01*
X8815541Y7884800D01*
X8296459Y7884800D01*
X7816890Y7686156D01*
X7449844Y7319110D01*
X7322552Y7011800D01*
X3289448Y7011800D01*
X3162156Y7319110D01*
X2795110Y7686156D01*
X2315541Y7884800D01*
X1796459Y7884800D01*
X1316890Y7686156D01*
X949844Y7319110D01*
X751200Y6839541D01*
X379800Y6839541D01*
X379800Y10363699D01*
X27859724Y10363699D01*
X28052266Y9956325D01*
X28386047Y9653643D01*
X28699701Y9523734D01*
X28878400Y9570196D01*
X28878400Y10542400D01*
X29081600Y10542400D01*
X29081600Y9570196D01*
X29260299Y9523734D01*
X29573953Y9653643D01*
X29907734Y9956325D01*
X30100276Y10363699D01*
X30054132Y10542400D01*
X29081600Y10542400D01*
X28878400Y10542400D01*
X27905868Y10542400D01*
X27859724Y10363699D01*
X379800Y10363699D01*
X379800Y10644000D01*
X30342577Y10644000D01*
X30432203Y10193420D01*
X30687436Y9811436D01*
X31069420Y9556203D01*
X31406267Y9489200D01*
X31633733Y9489200D01*
X31970580Y9556203D01*
X32352564Y9811436D01*
X32607797Y10193420D01*
X32697423Y10644000D01*
X32882577Y10644000D01*
X32972203Y10193420D01*
X33227436Y9811436D01*
X33609420Y9556203D01*
X33946267Y9489200D01*
X34173733Y9489200D01*
X34510580Y9556203D01*
X34892564Y9811436D01*
X35147797Y10193420D01*
X35237423Y10644000D01*
X35147797Y11094580D01*
X34892564Y11476564D01*
X34510580Y11731797D01*
X34173733Y11798800D01*
X33946267Y11798800D01*
X33609420Y11731797D01*
X33227436Y11476564D01*
X32972203Y11094580D01*
X32882577Y10644000D01*
X32697423Y10644000D01*
X32607797Y11094580D01*
X32352564Y11476564D01*
X31970580Y11731797D01*
X31633733Y11798800D01*
X31406267Y11798800D01*
X31069420Y11731797D01*
X30687436Y11476564D01*
X30432203Y11094580D01*
X30342577Y10644000D01*
X379800Y10644000D01*
X379800Y10924301D01*
X27859724Y10924301D01*
X27905868Y10745600D01*
X28878400Y10745600D01*
X28878400Y11717804D01*
X29081600Y11717804D01*
X29081600Y10745600D01*
X30054132Y10745600D01*
X30100276Y10924301D01*
X29907734Y11331675D01*
X29573953Y11634357D01*
X29260299Y11764266D01*
X29081600Y11717804D01*
X28878400Y11717804D01*
X28699701Y11764266D01*
X28386047Y11634357D01*
X28052266Y11331675D01*
X27859724Y10924301D01*
X379800Y10924301D01*
X379800Y13184000D01*
X27802577Y13184000D01*
X27892203Y12733420D01*
X28147436Y12351436D01*
X28529420Y12096203D01*
X28866267Y12029200D01*
X29093733Y12029200D01*
X29430580Y12096203D01*
X29812564Y12351436D01*
X30067797Y12733420D01*
X30157423Y13184000D01*
X30342577Y13184000D01*
X30432203Y12733420D01*
X30687436Y12351436D01*
X31069420Y12096203D01*
X31406267Y12029200D01*
X31633733Y12029200D01*
X31970580Y12096203D01*
X32352564Y12351436D01*
X32607797Y12733420D01*
X32697423Y13184000D01*
X32607797Y13634580D01*
X32352564Y14016564D01*
X32326470Y14034000D01*
X32899229Y14034000D01*
X32899229Y12334000D01*
X32922885Y12215073D01*
X32990252Y12114252D01*
X33091073Y12046885D01*
X33210000Y12023229D01*
X34910000Y12023229D01*
X35028927Y12046885D01*
X35129748Y12114252D01*
X35197115Y12215073D01*
X35220771Y12334000D01*
X35220771Y13018000D01*
X36709229Y13018000D01*
X36709229Y11318000D01*
X36732885Y11199073D01*
X36800252Y11098252D01*
X36901073Y11030885D01*
X37020000Y11007229D01*
X38720000Y11007229D01*
X38838927Y11030885D01*
X38939748Y11098252D01*
X39007115Y11199073D01*
X39030771Y11318000D01*
X39030771Y13018000D01*
X39007115Y13136927D01*
X38939748Y13237748D01*
X38838927Y13305115D01*
X38720000Y13328771D01*
X37020000Y13328771D01*
X36901073Y13305115D01*
X36800252Y13237748D01*
X36732885Y13136927D01*
X36709229Y13018000D01*
X35220771Y13018000D01*
X35220771Y14034000D01*
X35197115Y14152927D01*
X35129748Y14253748D01*
X35028927Y14321115D01*
X34910000Y14344771D01*
X33210000Y14344771D01*
X33091073Y14321115D01*
X32990252Y14253748D01*
X32922885Y14152927D01*
X32899229Y14034000D01*
X32326470Y14034000D01*
X31970580Y14271797D01*
X31633733Y14338800D01*
X31406267Y14338800D01*
X31069420Y14271797D01*
X30687436Y14016564D01*
X30432203Y13634580D01*
X30342577Y13184000D01*
X30157423Y13184000D01*
X30067797Y13634580D01*
X29812564Y14016564D01*
X29430580Y14271797D01*
X29411800Y14275533D01*
X29411800Y14708000D01*
X36692577Y14708000D01*
X36782203Y14257420D01*
X37037436Y13875436D01*
X37419420Y13620203D01*
X37756267Y13553200D01*
X37983733Y13553200D01*
X38320580Y13620203D01*
X38702564Y13875436D01*
X38957797Y14257420D01*
X39047423Y14708000D01*
X38957797Y15158580D01*
X38702564Y15540564D01*
X38320580Y15795797D01*
X37983733Y15862800D01*
X37756267Y15862800D01*
X37419420Y15795797D01*
X37037436Y15540564D01*
X36782203Y15158580D01*
X36692577Y14708000D01*
X29411800Y14708000D01*
X29411800Y17248000D01*
X32882577Y17248000D01*
X32972203Y16797420D01*
X33227436Y16415436D01*
X33609420Y16160203D01*
X33946267Y16093200D01*
X34173733Y16093200D01*
X34510580Y16160203D01*
X34892564Y16415436D01*
X35147797Y16797420D01*
X35237423Y17248000D01*
X36692577Y17248000D01*
X36782203Y16797420D01*
X37037436Y16415436D01*
X37419420Y16160203D01*
X37756267Y16093200D01*
X37983733Y16093200D01*
X38320580Y16160203D01*
X38702564Y16415436D01*
X38957797Y16797420D01*
X39047423Y17248000D01*
X38957797Y17698580D01*
X38702564Y18080564D01*
X38320580Y18335797D01*
X37983733Y18402800D01*
X37756267Y18402800D01*
X37419420Y18335797D01*
X37037436Y18080564D01*
X36782203Y17698580D01*
X36692577Y17248000D01*
X35237423Y17248000D01*
X35147797Y17698580D01*
X34892564Y18080564D01*
X34510580Y18335797D01*
X34173733Y18402800D01*
X33946267Y18402800D01*
X33609420Y18335797D01*
X33227436Y18080564D01*
X32972203Y17698580D01*
X32882577Y17248000D01*
X29411800Y17248000D01*
X29411800Y19788000D01*
X32882577Y19788000D01*
X32972203Y19337420D01*
X33227436Y18955436D01*
X33609420Y18700203D01*
X33946267Y18633200D01*
X34173733Y18633200D01*
X34510580Y18700203D01*
X34892564Y18955436D01*
X35147797Y19337420D01*
X35181668Y19507701D01*
X36749734Y19507701D01*
X36879643Y19194047D01*
X37182325Y18860266D01*
X37589699Y18667724D01*
X37768400Y18713868D01*
X37768400Y19686400D01*
X37971600Y19686400D01*
X37971600Y18713868D01*
X38150301Y18667724D01*
X38557675Y18860266D01*
X38860357Y19194047D01*
X38990266Y19507701D01*
X38943804Y19686400D01*
X37971600Y19686400D01*
X37768400Y19686400D01*
X36796196Y19686400D01*
X36749734Y19507701D01*
X35181668Y19507701D01*
X35237423Y19788000D01*
X35181669Y20068299D01*
X36749734Y20068299D01*
X36796196Y19889600D01*
X37768400Y19889600D01*
X37768400Y20862132D01*
X37971600Y20862132D01*
X37971600Y19889600D01*
X38943804Y19889600D01*
X38990266Y20068299D01*
X38860357Y20381953D01*
X38557675Y20715734D01*
X38150301Y20908276D01*
X37971600Y20862132D01*
X37768400Y20862132D01*
X37589699Y20908276D01*
X37182325Y20715734D01*
X36879643Y20381953D01*
X36749734Y20068299D01*
X35181669Y20068299D01*
X35147797Y20238580D01*
X34892564Y20620564D01*
X34510580Y20875797D01*
X34173733Y20942800D01*
X33946267Y20942800D01*
X33609420Y20875797D01*
X33227436Y20620564D01*
X32972203Y20238580D01*
X32882577Y19788000D01*
X29411800Y19788000D01*
X29411800Y19976012D01*
X29582926Y20147138D01*
X29691200Y20408534D01*
X29691200Y20691466D01*
X29582926Y20952862D01*
X29382862Y21152926D01*
X29121466Y21261200D01*
X28838534Y21261200D01*
X28577138Y21152926D01*
X28377074Y20952862D01*
X28268800Y20691466D01*
X28268800Y20408534D01*
X28377074Y20147138D01*
X28548201Y19976011D01*
X28548200Y14275533D01*
X28529420Y14271797D01*
X28147436Y14016564D01*
X27892203Y13634580D01*
X27802577Y13184000D01*
X379800Y13184000D01*
X379800Y19802466D01*
X4646800Y19802466D01*
X4646800Y19519534D01*
X4755074Y19258138D01*
X4926200Y19087012D01*
X4926200Y19043739D01*
X4926201Y19043735D01*
X4926200Y18613353D01*
X4917742Y18570830D01*
X4926200Y18528308D01*
X4926200Y18528305D01*
X4951254Y18402351D01*
X5046690Y18259520D01*
X5082743Y18235430D01*
X7869430Y15448743D01*
X7893520Y15412690D01*
X7929572Y15388601D01*
X8036350Y15317254D01*
X8204830Y15283741D01*
X8247356Y15292200D01*
X13166012Y15292200D01*
X13337138Y15121074D01*
X13598534Y15012800D01*
X13881466Y15012800D01*
X14142862Y15121074D01*
X14342926Y15321138D01*
X14451200Y15582534D01*
X14451200Y15865466D01*
X14342926Y16126862D01*
X14142862Y16326926D01*
X13881466Y16435200D01*
X13598534Y16435200D01*
X13337138Y16326926D01*
X13166012Y16155800D01*
X8383687Y16155800D01*
X7113687Y17425800D01*
X7277466Y17425800D01*
X7538862Y17534074D01*
X7709988Y17705200D01*
X13307143Y17705200D01*
X15187800Y15824543D01*
X15187800Y15582534D01*
X15296074Y15321138D01*
X15496138Y15121074D01*
X15757534Y15012800D01*
X16040466Y15012800D01*
X16301862Y15121074D01*
X16501926Y15321138D01*
X16610200Y15582534D01*
X16610200Y15865466D01*
X16501926Y16126862D01*
X16301862Y16326926D01*
X16040466Y16435200D01*
X15798457Y16435200D01*
X13821400Y18412257D01*
X13797310Y18448310D01*
X13769039Y18467200D01*
X21816143Y18467200D01*
X23061800Y17221542D01*
X23061800Y16979534D01*
X23170074Y16718138D01*
X23370138Y16518074D01*
X23631534Y16409800D01*
X23914466Y16409800D01*
X24175862Y16518074D01*
X24375926Y16718138D01*
X24484200Y16979534D01*
X24484200Y17262466D01*
X24375926Y17523862D01*
X24175862Y17723926D01*
X23914466Y17832200D01*
X23672458Y17832200D01*
X22330399Y19174258D01*
X22306310Y19210310D01*
X22163480Y19305746D01*
X22037526Y19330800D01*
X22037522Y19330800D01*
X21995000Y19339258D01*
X21952478Y19330800D01*
X6820988Y19330800D01*
X6649862Y19501926D01*
X6388466Y19610200D01*
X6105534Y19610200D01*
X6069200Y19595150D01*
X6069200Y19802466D01*
X5960926Y20063862D01*
X5760862Y20263926D01*
X5499466Y20372200D01*
X5216534Y20372200D01*
X4955138Y20263926D01*
X4755074Y20063862D01*
X4646800Y19802466D01*
X379800Y19802466D01*
X379800Y22328000D01*
X32882577Y22328000D01*
X32972203Y21877420D01*
X33227436Y21495436D01*
X33609420Y21240203D01*
X33946267Y21173200D01*
X34173733Y21173200D01*
X34510580Y21240203D01*
X34892564Y21495436D01*
X35147797Y21877420D01*
X35237423Y22328000D01*
X36692577Y22328000D01*
X36782203Y21877420D01*
X37037436Y21495436D01*
X37419420Y21240203D01*
X37756267Y21173200D01*
X37983733Y21173200D01*
X38320580Y21240203D01*
X38702564Y21495436D01*
X38957797Y21877420D01*
X39047423Y22328000D01*
X38957797Y22778580D01*
X38702564Y23160564D01*
X38320580Y23415797D01*
X37983733Y23482800D01*
X37756267Y23482800D01*
X37419420Y23415797D01*
X37037436Y23160564D01*
X36782203Y22778580D01*
X36692577Y22328000D01*
X35237423Y22328000D01*
X35147797Y22778580D01*
X34892564Y23160564D01*
X34510580Y23415797D01*
X34173733Y23482800D01*
X33946267Y23482800D01*
X33609420Y23415797D01*
X33227436Y23160564D01*
X32972203Y22778580D01*
X32882577Y22328000D01*
X379800Y22328000D01*
X379800Y24690200D01*
X32905200Y24690200D01*
X32905200Y23957371D01*
X32951603Y23845344D01*
X33037345Y23759603D01*
X33149372Y23713200D01*
X33882200Y23713200D01*
X33958400Y23789400D01*
X33958400Y24766400D01*
X34161600Y24766400D01*
X34161600Y23789400D01*
X34237800Y23713200D01*
X34970628Y23713200D01*
X35082655Y23759603D01*
X35168397Y23845344D01*
X35214800Y23957371D01*
X35214800Y24587701D01*
X36749734Y24587701D01*
X36879643Y24274047D01*
X37182325Y23940266D01*
X37589699Y23747724D01*
X37768400Y23793868D01*
X37768400Y24766400D01*
X37971600Y24766400D01*
X37971600Y23793868D01*
X38150301Y23747724D01*
X38557675Y23940266D01*
X38860357Y24274047D01*
X38990266Y24587701D01*
X38943804Y24766400D01*
X37971600Y24766400D01*
X37768400Y24766400D01*
X36796196Y24766400D01*
X36749734Y24587701D01*
X35214800Y24587701D01*
X35214800Y24690200D01*
X35138600Y24766400D01*
X34161600Y24766400D01*
X33958400Y24766400D01*
X32981400Y24766400D01*
X32905200Y24690200D01*
X379800Y24690200D01*
X379800Y25778629D01*
X32905200Y25778629D01*
X32905200Y25045800D01*
X32981400Y24969600D01*
X33958400Y24969600D01*
X33958400Y25946600D01*
X34161600Y25946600D01*
X34161600Y24969600D01*
X35138600Y24969600D01*
X35214800Y25045800D01*
X35214800Y25148299D01*
X36749734Y25148299D01*
X36796196Y24969600D01*
X37768400Y24969600D01*
X37768400Y25942132D01*
X37971600Y25942132D01*
X37971600Y24969600D01*
X38943804Y24969600D01*
X38990266Y25148299D01*
X38860357Y25461953D01*
X38557675Y25795734D01*
X38150301Y25988276D01*
X37971600Y25942132D01*
X37768400Y25942132D01*
X37589699Y25988276D01*
X37182325Y25795734D01*
X36879643Y25461953D01*
X36749734Y25148299D01*
X35214800Y25148299D01*
X35214800Y25778629D01*
X35168397Y25890656D01*
X35082655Y25976397D01*
X34970628Y26022800D01*
X34237800Y26022800D01*
X34161600Y25946600D01*
X33958400Y25946600D01*
X33882200Y26022800D01*
X33149372Y26022800D01*
X33037345Y25976397D01*
X32951603Y25890656D01*
X32905200Y25778629D01*
X379800Y25778629D01*
X379800Y28893000D01*
X14611229Y28893000D01*
X14611229Y27193000D01*
X14634885Y27074073D01*
X14702252Y26973252D01*
X14803073Y26905885D01*
X14922000Y26882229D01*
X16622000Y26882229D01*
X16740927Y26905885D01*
X16841748Y26973252D01*
X16909115Y27074073D01*
X16932771Y27193000D01*
X16932771Y28043000D01*
X17134577Y28043000D01*
X17224203Y27592420D01*
X17479436Y27210436D01*
X17861420Y26955203D01*
X18198267Y26888200D01*
X18425733Y26888200D01*
X18762580Y26955203D01*
X19144564Y27210436D01*
X19399797Y27592420D01*
X19433667Y27762699D01*
X19731724Y27762699D01*
X19924266Y27355325D01*
X20258047Y27052643D01*
X20571701Y26922734D01*
X20750400Y26969196D01*
X20750400Y27941400D01*
X20953600Y27941400D01*
X20953600Y26969196D01*
X21132299Y26922734D01*
X21445953Y27052643D01*
X21779734Y27355325D01*
X21972276Y27762699D01*
X21926132Y27941400D01*
X20953600Y27941400D01*
X20750400Y27941400D01*
X19777868Y27941400D01*
X19731724Y27762699D01*
X19433667Y27762699D01*
X19489423Y28043000D01*
X22214577Y28043000D01*
X22304203Y27592420D01*
X22559436Y27210436D01*
X22941420Y26955203D01*
X23278267Y26888200D01*
X23505733Y26888200D01*
X23842580Y26955203D01*
X24224564Y27210436D01*
X24479797Y27592420D01*
X24569423Y28043000D01*
X24754577Y28043000D01*
X24844203Y27592420D01*
X25099436Y27210436D01*
X25481420Y26955203D01*
X25818267Y26888200D01*
X26045733Y26888200D01*
X26382580Y26955203D01*
X26764564Y27210436D01*
X27019797Y27592420D01*
X27109423Y28043000D01*
X27019797Y28493580D01*
X26764564Y28875564D01*
X26382580Y29130797D01*
X26045733Y29197800D01*
X25818267Y29197800D01*
X25481420Y29130797D01*
X25099436Y28875564D01*
X24844203Y28493580D01*
X24754577Y28043000D01*
X24569423Y28043000D01*
X24479797Y28493580D01*
X24224564Y28875564D01*
X23842580Y29130797D01*
X23505733Y29197800D01*
X23278267Y29197800D01*
X22941420Y29130797D01*
X22559436Y28875564D01*
X22304203Y28493580D01*
X22214577Y28043000D01*
X19489423Y28043000D01*
X19433668Y28323301D01*
X19731724Y28323301D01*
X19777868Y28144600D01*
X20750400Y28144600D01*
X20750400Y29116804D01*
X20953600Y29116804D01*
X20953600Y28144600D01*
X21926132Y28144600D01*
X21972276Y28323301D01*
X21779734Y28730675D01*
X21445953Y29033357D01*
X21132299Y29163266D01*
X20953600Y29116804D01*
X20750400Y29116804D01*
X20571701Y29163266D01*
X20258047Y29033357D01*
X19924266Y28730675D01*
X19731724Y28323301D01*
X19433668Y28323301D01*
X19399797Y28493580D01*
X19144564Y28875564D01*
X18762580Y29130797D01*
X18425733Y29197800D01*
X18198267Y29197800D01*
X17861420Y29130797D01*
X17479436Y28875564D01*
X17224203Y28493580D01*
X17134577Y28043000D01*
X16932771Y28043000D01*
X16932771Y28893000D01*
X16909115Y29011927D01*
X16841748Y29112748D01*
X16740927Y29180115D01*
X16622000Y29203771D01*
X14922000Y29203771D01*
X14803073Y29180115D01*
X14702252Y29112748D01*
X14634885Y29011927D01*
X14611229Y28893000D01*
X379800Y28893000D01*
X379800Y29620200D01*
X39620200Y29620200D01*
X39620201Y379800D01*
X39620201Y379800D01*
G37*
X39620201Y379800D02*
X379800Y379800D01*
X379800Y1124245D01*
X1243930Y1124245D01*
X1358512Y947138D01*
X1845133Y766455D01*
X2363856Y785747D01*
X2753488Y947138D01*
X2868070Y1124245D01*
X7743930Y1124245D01*
X7858512Y947138D01*
X8345133Y766455D01*
X8863856Y785747D01*
X9253488Y947138D01*
X9368070Y1124245D01*
X10895930Y1124245D01*
X11010512Y947138D01*
X11497133Y766455D01*
X12015856Y785747D01*
X12405488Y947138D01*
X12520070Y1124245D01*
X17395930Y1124245D01*
X17510512Y947138D01*
X17997133Y766455D01*
X18515856Y785747D01*
X18905488Y947138D01*
X19020070Y1124245D01*
X20547930Y1124245D01*
X20662512Y947138D01*
X21149133Y766455D01*
X21667856Y785747D01*
X22057488Y947138D01*
X22172070Y1124245D01*
X27047930Y1124245D01*
X27162512Y947138D01*
X27649133Y766455D01*
X28167856Y785747D01*
X28557488Y947138D01*
X28672070Y1124245D01*
X30199930Y1124245D01*
X30314512Y947138D01*
X30801133Y766455D01*
X31319856Y785747D01*
X31709488Y947138D01*
X31824070Y1124245D01*
X36699930Y1124245D01*
X36814512Y947138D01*
X37301133Y766455D01*
X37819856Y785747D01*
X38209488Y947138D01*
X38324070Y1124245D01*
X37512000Y1936316D01*
X36699930Y1124245D01*
X31824070Y1124245D01*
X31012000Y1936316D01*
X30199930Y1124245D01*
X28672070Y1124245D01*
X27860000Y1936316D01*
X27047930Y1124245D01*
X22172070Y1124245D01*
X21360000Y1936316D01*
X20547930Y1124245D01*
X19020070Y1124245D01*
X18208000Y1936316D01*
X17395930Y1124245D01*
X12520070Y1124245D01*
X11708000Y1936316D01*
X10895930Y1124245D01*
X9368070Y1124245D01*
X8556000Y1936316D01*
X7743930Y1124245D01*
X2868070Y1124245D01*
X2056000Y1936316D01*
X1243930Y1124245D01*
X379800Y1124245D01*
X379800Y2290867D01*
X742455Y2290867D01*
X761747Y1772144D01*
X923138Y1382512D01*
X1100245Y1267930D01*
X1912316Y2080000D01*
X2199684Y2080000D01*
X3011755Y1267930D01*
X3188862Y1382512D01*
X3369545Y1869133D01*
X3353861Y2290867D01*
X7242455Y2290867D01*
X7261747Y1772144D01*
X7423138Y1382512D01*
X7600245Y1267930D01*
X8412316Y2080000D01*
X8699684Y2080000D01*
X9511755Y1267930D01*
X9688862Y1382512D01*
X9869545Y1869133D01*
X9853861Y2290867D01*
X10394455Y2290867D01*
X10413747Y1772144D01*
X10575138Y1382512D01*
X10752245Y1267930D01*
X11564316Y2080000D01*
X11851684Y2080000D01*
X12663755Y1267930D01*
X12840862Y1382512D01*
X13021545Y1869133D01*
X13005861Y2290867D01*
X16894455Y2290867D01*
X16913747Y1772144D01*
X17075138Y1382512D01*
X17252245Y1267930D01*
X18064316Y2080000D01*
X18351684Y2080000D01*
X19163755Y1267930D01*
X19340862Y1382512D01*
X19521545Y1869133D01*
X19505861Y2290867D01*
X20046455Y2290867D01*
X20065747Y1772144D01*
X20227138Y1382512D01*
X20404245Y1267930D01*
X21216316Y2080000D01*
X21503684Y2080000D01*
X22315755Y1267930D01*
X22492862Y1382512D01*
X22673545Y1869133D01*
X22657861Y2290867D01*
X26546455Y2290867D01*
X26565747Y1772144D01*
X26727138Y1382512D01*
X26904245Y1267930D01*
X27716316Y2080000D01*
X28003684Y2080000D01*
X28815755Y1267930D01*
X28992862Y1382512D01*
X29173545Y1869133D01*
X29157861Y2290867D01*
X29698455Y2290867D01*
X29717747Y1772144D01*
X29879138Y1382512D01*
X30056245Y1267930D01*
X30868316Y2080000D01*
X31155684Y2080000D01*
X31967755Y1267930D01*
X32144862Y1382512D01*
X32325545Y1869133D01*
X32309861Y2290867D01*
X36198455Y2290867D01*
X36217747Y1772144D01*
X36379138Y1382512D01*
X36556245Y1267930D01*
X37368316Y2080000D01*
X37655684Y2080000D01*
X38467755Y1267930D01*
X38644862Y1382512D01*
X38825545Y1869133D01*
X38806253Y2387856D01*
X38644862Y2777488D01*
X38467755Y2892070D01*
X37655684Y2080000D01*
X37368316Y2080000D01*
X36556245Y2892070D01*
X36379138Y2777488D01*
X36198455Y2290867D01*
X32309861Y2290867D01*
X32306253Y2387856D01*
X32144862Y2777488D01*
X31967755Y2892070D01*
X31155684Y2080000D01*
X30868316Y2080000D01*
X30056245Y2892070D01*
X29879138Y2777488D01*
X29698455Y2290867D01*
X29157861Y2290867D01*
X29154253Y2387856D01*
X28992862Y2777488D01*
X28815755Y2892070D01*
X28003684Y2080000D01*
X27716316Y2080000D01*
X26904245Y2892070D01*
X26727138Y2777488D01*
X26546455Y2290867D01*
X22657861Y2290867D01*
X22654253Y2387856D01*
X22492862Y2777488D01*
X22315755Y2892070D01*
X21503684Y2080000D01*
X21216316Y2080000D01*
X20404245Y2892070D01*
X20227138Y2777488D01*
X20046455Y2290867D01*
X19505861Y2290867D01*
X19502253Y2387856D01*
X19340862Y2777488D01*
X19163755Y2892070D01*
X18351684Y2080000D01*
X18064316Y2080000D01*
X17252245Y2892070D01*
X17075138Y2777488D01*
X16894455Y2290867D01*
X13005861Y2290867D01*
X13002253Y2387856D01*
X12840862Y2777488D01*
X12663755Y2892070D01*
X11851684Y2080000D01*
X11564316Y2080000D01*
X10752245Y2892070D01*
X10575138Y2777488D01*
X10394455Y2290867D01*
X9853861Y2290867D01*
X9850253Y2387856D01*
X9688862Y2777488D01*
X9511755Y2892070D01*
X8699684Y2080000D01*
X8412316Y2080000D01*
X7600245Y2892070D01*
X7423138Y2777488D01*
X7242455Y2290867D01*
X3353861Y2290867D01*
X3350253Y2387856D01*
X3188862Y2777488D01*
X3011755Y2892070D01*
X2199684Y2080000D01*
X1912316Y2080000D01*
X1100245Y2892070D01*
X923138Y2777488D01*
X742455Y2290867D01*
X379800Y2290867D01*
X379800Y3035755D01*
X1243930Y3035755D01*
X2056000Y2223684D01*
X2868070Y3035755D01*
X7743930Y3035755D01*
X8556000Y2223684D01*
X9368070Y3035755D01*
X10895930Y3035755D01*
X11708000Y2223684D01*
X12520070Y3035755D01*
X17395930Y3035755D01*
X18208000Y2223684D01*
X19020070Y3035755D01*
X20547930Y3035755D01*
X21360000Y2223684D01*
X22172070Y3035755D01*
X27047930Y3035755D01*
X27860000Y2223684D01*
X28672070Y3035755D01*
X30199930Y3035755D01*
X31012000Y2223684D01*
X31824070Y3035755D01*
X36699930Y3035755D01*
X37512000Y2223684D01*
X38324070Y3035755D01*
X38209488Y3212862D01*
X37722867Y3393545D01*
X37204144Y3374253D01*
X36814512Y3212862D01*
X36699930Y3035755D01*
X31824070Y3035755D01*
X31709488Y3212862D01*
X31222867Y3393545D01*
X30704144Y3374253D01*
X30314512Y3212862D01*
X30199930Y3035755D01*
X28672070Y3035755D01*
X28557488Y3212862D01*
X28070867Y3393545D01*
X27552144Y3374253D01*
X27162512Y3212862D01*
X27047930Y3035755D01*
X22172070Y3035755D01*
X22057488Y3212862D01*
X21570867Y3393545D01*
X21052144Y3374253D01*
X20662512Y3212862D01*
X20547930Y3035755D01*
X19020070Y3035755D01*
X18905488Y3212862D01*
X18418867Y3393545D01*
X17900144Y3374253D01*
X17510512Y3212862D01*
X17395930Y3035755D01*
X12520070Y3035755D01*
X12405488Y3212862D01*
X11918867Y3393545D01*
X11400144Y3374253D01*
X11010512Y3212862D01*
X10895930Y3035755D01*
X9368070Y3035755D01*
X9253488Y3212862D01*
X8766867Y3393545D01*
X8248144Y3374253D01*
X7858512Y3212862D01*
X7743930Y3035755D01*
X2868070Y3035755D01*
X2753488Y3212862D01*
X2266867Y3393545D01*
X1748144Y3374253D01*
X1358512Y3212862D01*
X1243930Y3035755D01*
X379800Y3035755D01*
X379800Y6839541D01*
X751200Y6839541D01*
X751200Y6320459D01*
X949844Y5840890D01*
X1316890Y5473844D01*
X1796459Y5275200D01*
X2315541Y5275200D01*
X2795110Y5473844D01*
X3162156Y5840890D01*
X3289448Y6148200D01*
X7322552Y6148200D01*
X7449844Y5840890D01*
X7816890Y5473844D01*
X8296459Y5275200D01*
X8815541Y5275200D01*
X9295110Y5473844D01*
X9662156Y5840890D01*
X9860800Y6320459D01*
X9860800Y6839541D01*
X10403200Y6839541D01*
X10403200Y6320459D01*
X10601844Y5840890D01*
X10968890Y5473844D01*
X11448459Y5275200D01*
X11967541Y5275200D01*
X12447110Y5473844D01*
X12814156Y5840890D01*
X13012800Y6320459D01*
X13012800Y6839541D01*
X16903200Y6839541D01*
X16903200Y6320459D01*
X17101844Y5840890D01*
X17468890Y5473844D01*
X17948459Y5275200D01*
X18467541Y5275200D01*
X18947110Y5473844D01*
X19314156Y5840890D01*
X19512800Y6320459D01*
X19512800Y6839541D01*
X20055200Y6839541D01*
X20055200Y6320459D01*
X20253844Y5840890D01*
X20620890Y5473844D01*
X21100459Y5275200D01*
X21619541Y5275200D01*
X22099110Y5473844D01*
X22466156Y5840890D01*
X22664800Y6320459D01*
X22664800Y6839541D01*
X26555200Y6839541D01*
X26555200Y6320459D01*
X26753844Y5840890D01*
X27120890Y5473844D01*
X27600459Y5275200D01*
X28119541Y5275200D01*
X28599110Y5473844D01*
X28966156Y5840890D01*
X29164800Y6320459D01*
X29164800Y6839541D01*
X29707200Y6839541D01*
X29707200Y6320459D01*
X29905844Y5840890D01*
X30272890Y5473844D01*
X30752459Y5275200D01*
X31271541Y5275200D01*
X31751110Y5473844D01*
X32118156Y5840890D01*
X32316800Y6320459D01*
X32316800Y6839541D01*
X36207200Y6839541D01*
X36207200Y6320459D01*
X36405844Y5840890D01*
X36772890Y5473844D01*
X37252459Y5275200D01*
X37771541Y5275200D01*
X38251110Y5473844D01*
X38618156Y5840890D01*
X38816800Y6320459D01*
X38816800Y6839541D01*
X38618156Y7319110D01*
X38251110Y7686156D01*
X37771541Y7884800D01*
X37252459Y7884800D01*
X36772890Y7686156D01*
X36405844Y7319110D01*
X36207200Y6839541D01*
X32316800Y6839541D01*
X32118156Y7319110D01*
X31751110Y7686156D01*
X31271541Y7884800D01*
X30752459Y7884800D01*
X30272890Y7686156D01*
X29905844Y7319110D01*
X29707200Y6839541D01*
X29164800Y6839541D01*
X28966156Y7319110D01*
X28599110Y7686156D01*
X28119541Y7884800D01*
X27600459Y7884800D01*
X27120890Y7686156D01*
X26753844Y7319110D01*
X26555200Y6839541D01*
X22664800Y6839541D01*
X22466156Y7319110D01*
X22099110Y7686156D01*
X21619541Y7884800D01*
X21100459Y7884800D01*
X20620890Y7686156D01*
X20253844Y7319110D01*
X20055200Y6839541D01*
X19512800Y6839541D01*
X19314156Y7319110D01*
X18947110Y7686156D01*
X18467541Y7884800D01*
X17948459Y7884800D01*
X17468890Y7686156D01*
X17101844Y7319110D01*
X16903200Y6839541D01*
X13012800Y6839541D01*
X12814156Y7319110D01*
X12447110Y7686156D01*
X11967541Y7884800D01*
X11448459Y7884800D01*
X10968890Y7686156D01*
X10601844Y7319110D01*
X10403200Y6839541D01*
X9860800Y6839541D01*
X9662156Y7319110D01*
X9295110Y7686156D01*
X8815541Y7884800D01*
X8296459Y7884800D01*
X7816890Y7686156D01*
X7449844Y7319110D01*
X7322552Y7011800D01*
X3289448Y7011800D01*
X3162156Y7319110D01*
X2795110Y7686156D01*
X2315541Y7884800D01*
X1796459Y7884800D01*
X1316890Y7686156D01*
X949844Y7319110D01*
X751200Y6839541D01*
X379800Y6839541D01*
X379800Y10363699D01*
X27859724Y10363699D01*
X28052266Y9956325D01*
X28386047Y9653643D01*
X28699701Y9523734D01*
X28878400Y9570196D01*
X28878400Y10542400D01*
X29081600Y10542400D01*
X29081600Y9570196D01*
X29260299Y9523734D01*
X29573953Y9653643D01*
X29907734Y9956325D01*
X30100276Y10363699D01*
X30054132Y10542400D01*
X29081600Y10542400D01*
X28878400Y10542400D01*
X27905868Y10542400D01*
X27859724Y10363699D01*
X379800Y10363699D01*
X379800Y10644000D01*
X30342577Y10644000D01*
X30432203Y10193420D01*
X30687436Y9811436D01*
X31069420Y9556203D01*
X31406267Y9489200D01*
X31633733Y9489200D01*
X31970580Y9556203D01*
X32352564Y9811436D01*
X32607797Y10193420D01*
X32697423Y10644000D01*
X32882577Y10644000D01*
X32972203Y10193420D01*
X33227436Y9811436D01*
X33609420Y9556203D01*
X33946267Y9489200D01*
X34173733Y9489200D01*
X34510580Y9556203D01*
X34892564Y9811436D01*
X35147797Y10193420D01*
X35237423Y10644000D01*
X35147797Y11094580D01*
X34892564Y11476564D01*
X34510580Y11731797D01*
X34173733Y11798800D01*
X33946267Y11798800D01*
X33609420Y11731797D01*
X33227436Y11476564D01*
X32972203Y11094580D01*
X32882577Y10644000D01*
X32697423Y10644000D01*
X32607797Y11094580D01*
X32352564Y11476564D01*
X31970580Y11731797D01*
X31633733Y11798800D01*
X31406267Y11798800D01*
X31069420Y11731797D01*
X30687436Y11476564D01*
X30432203Y11094580D01*
X30342577Y10644000D01*
X379800Y10644000D01*
X379800Y10924301D01*
X27859724Y10924301D01*
X27905868Y10745600D01*
X28878400Y10745600D01*
X28878400Y11717804D01*
X29081600Y11717804D01*
X29081600Y10745600D01*
X30054132Y10745600D01*
X30100276Y10924301D01*
X29907734Y11331675D01*
X29573953Y11634357D01*
X29260299Y11764266D01*
X29081600Y11717804D01*
X28878400Y11717804D01*
X28699701Y11764266D01*
X28386047Y11634357D01*
X28052266Y11331675D01*
X27859724Y10924301D01*
X379800Y10924301D01*
X379800Y13184000D01*
X27802577Y13184000D01*
X27892203Y12733420D01*
X28147436Y12351436D01*
X28529420Y12096203D01*
X28866267Y12029200D01*
X29093733Y12029200D01*
X29430580Y12096203D01*
X29812564Y12351436D01*
X30067797Y12733420D01*
X30157423Y13184000D01*
X30342577Y13184000D01*
X30432203Y12733420D01*
X30687436Y12351436D01*
X31069420Y12096203D01*
X31406267Y12029200D01*
X31633733Y12029200D01*
X31970580Y12096203D01*
X32352564Y12351436D01*
X32607797Y12733420D01*
X32697423Y13184000D01*
X32607797Y13634580D01*
X32352564Y14016564D01*
X32326470Y14034000D01*
X32899229Y14034000D01*
X32899229Y12334000D01*
X32922885Y12215073D01*
X32990252Y12114252D01*
X33091073Y12046885D01*
X33210000Y12023229D01*
X34910000Y12023229D01*
X35028927Y12046885D01*
X35129748Y12114252D01*
X35197115Y12215073D01*
X35220771Y12334000D01*
X35220771Y13018000D01*
X36709229Y13018000D01*
X36709229Y11318000D01*
X36732885Y11199073D01*
X36800252Y11098252D01*
X36901073Y11030885D01*
X37020000Y11007229D01*
X38720000Y11007229D01*
X38838927Y11030885D01*
X38939748Y11098252D01*
X39007115Y11199073D01*
X39030771Y11318000D01*
X39030771Y13018000D01*
X39007115Y13136927D01*
X38939748Y13237748D01*
X38838927Y13305115D01*
X38720000Y13328771D01*
X37020000Y13328771D01*
X36901073Y13305115D01*
X36800252Y13237748D01*
X36732885Y13136927D01*
X36709229Y13018000D01*
X35220771Y13018000D01*
X35220771Y14034000D01*
X35197115Y14152927D01*
X35129748Y14253748D01*
X35028927Y14321115D01*
X34910000Y14344771D01*
X33210000Y14344771D01*
X33091073Y14321115D01*
X32990252Y14253748D01*
X32922885Y14152927D01*
X32899229Y14034000D01*
X32326470Y14034000D01*
X31970580Y14271797D01*
X31633733Y14338800D01*
X31406267Y14338800D01*
X31069420Y14271797D01*
X30687436Y14016564D01*
X30432203Y13634580D01*
X30342577Y13184000D01*
X30157423Y13184000D01*
X30067797Y13634580D01*
X29812564Y14016564D01*
X29430580Y14271797D01*
X29411800Y14275533D01*
X29411800Y14708000D01*
X36692577Y14708000D01*
X36782203Y14257420D01*
X37037436Y13875436D01*
X37419420Y13620203D01*
X37756267Y13553200D01*
X37983733Y13553200D01*
X38320580Y13620203D01*
X38702564Y13875436D01*
X38957797Y14257420D01*
X39047423Y14708000D01*
X38957797Y15158580D01*
X38702564Y15540564D01*
X38320580Y15795797D01*
X37983733Y15862800D01*
X37756267Y15862800D01*
X37419420Y15795797D01*
X37037436Y15540564D01*
X36782203Y15158580D01*
X36692577Y14708000D01*
X29411800Y14708000D01*
X29411800Y17248000D01*
X32882577Y17248000D01*
X32972203Y16797420D01*
X33227436Y16415436D01*
X33609420Y16160203D01*
X33946267Y16093200D01*
X34173733Y16093200D01*
X34510580Y16160203D01*
X34892564Y16415436D01*
X35147797Y16797420D01*
X35237423Y17248000D01*
X36692577Y17248000D01*
X36782203Y16797420D01*
X37037436Y16415436D01*
X37419420Y16160203D01*
X37756267Y16093200D01*
X37983733Y16093200D01*
X38320580Y16160203D01*
X38702564Y16415436D01*
X38957797Y16797420D01*
X39047423Y17248000D01*
X38957797Y17698580D01*
X38702564Y18080564D01*
X38320580Y18335797D01*
X37983733Y18402800D01*
X37756267Y18402800D01*
X37419420Y18335797D01*
X37037436Y18080564D01*
X36782203Y17698580D01*
X36692577Y17248000D01*
X35237423Y17248000D01*
X35147797Y17698580D01*
X34892564Y18080564D01*
X34510580Y18335797D01*
X34173733Y18402800D01*
X33946267Y18402800D01*
X33609420Y18335797D01*
X33227436Y18080564D01*
X32972203Y17698580D01*
X32882577Y17248000D01*
X29411800Y17248000D01*
X29411800Y19788000D01*
X32882577Y19788000D01*
X32972203Y19337420D01*
X33227436Y18955436D01*
X33609420Y18700203D01*
X33946267Y18633200D01*
X34173733Y18633200D01*
X34510580Y18700203D01*
X34892564Y18955436D01*
X35147797Y19337420D01*
X35181668Y19507701D01*
X36749734Y19507701D01*
X36879643Y19194047D01*
X37182325Y18860266D01*
X37589699Y18667724D01*
X37768400Y18713868D01*
X37768400Y19686400D01*
X37971600Y19686400D01*
X37971600Y18713868D01*
X38150301Y18667724D01*
X38557675Y18860266D01*
X38860357Y19194047D01*
X38990266Y19507701D01*
X38943804Y19686400D01*
X37971600Y19686400D01*
X37768400Y19686400D01*
X36796196Y19686400D01*
X36749734Y19507701D01*
X35181668Y19507701D01*
X35237423Y19788000D01*
X35181669Y20068299D01*
X36749734Y20068299D01*
X36796196Y19889600D01*
X37768400Y19889600D01*
X37768400Y20862132D01*
X37971600Y20862132D01*
X37971600Y19889600D01*
X38943804Y19889600D01*
X38990266Y20068299D01*
X38860357Y20381953D01*
X38557675Y20715734D01*
X38150301Y20908276D01*
X37971600Y20862132D01*
X37768400Y20862132D01*
X37589699Y20908276D01*
X37182325Y20715734D01*
X36879643Y20381953D01*
X36749734Y20068299D01*
X35181669Y20068299D01*
X35147797Y20238580D01*
X34892564Y20620564D01*
X34510580Y20875797D01*
X34173733Y20942800D01*
X33946267Y20942800D01*
X33609420Y20875797D01*
X33227436Y20620564D01*
X32972203Y20238580D01*
X32882577Y19788000D01*
X29411800Y19788000D01*
X29411800Y19976012D01*
X29582926Y20147138D01*
X29691200Y20408534D01*
X29691200Y20691466D01*
X29582926Y20952862D01*
X29382862Y21152926D01*
X29121466Y21261200D01*
X28838534Y21261200D01*
X28577138Y21152926D01*
X28377074Y20952862D01*
X28268800Y20691466D01*
X28268800Y20408534D01*
X28377074Y20147138D01*
X28548201Y19976011D01*
X28548200Y14275533D01*
X28529420Y14271797D01*
X28147436Y14016564D01*
X27892203Y13634580D01*
X27802577Y13184000D01*
X379800Y13184000D01*
X379800Y19802466D01*
X4646800Y19802466D01*
X4646800Y19519534D01*
X4755074Y19258138D01*
X4926200Y19087012D01*
X4926200Y19043739D01*
X4926201Y19043735D01*
X4926200Y18613353D01*
X4917742Y18570830D01*
X4926200Y18528308D01*
X4926200Y18528305D01*
X4951254Y18402351D01*
X5046690Y18259520D01*
X5082743Y18235430D01*
X7869430Y15448743D01*
X7893520Y15412690D01*
X7929572Y15388601D01*
X8036350Y15317254D01*
X8204830Y15283741D01*
X8247356Y15292200D01*
X13166012Y15292200D01*
X13337138Y15121074D01*
X13598534Y15012800D01*
X13881466Y15012800D01*
X14142862Y15121074D01*
X14342926Y15321138D01*
X14451200Y15582534D01*
X14451200Y15865466D01*
X14342926Y16126862D01*
X14142862Y16326926D01*
X13881466Y16435200D01*
X13598534Y16435200D01*
X13337138Y16326926D01*
X13166012Y16155800D01*
X8383687Y16155800D01*
X7113687Y17425800D01*
X7277466Y17425800D01*
X7538862Y17534074D01*
X7709988Y17705200D01*
X13307143Y17705200D01*
X15187800Y15824543D01*
X15187800Y15582534D01*
X15296074Y15321138D01*
X15496138Y15121074D01*
X15757534Y15012800D01*
X16040466Y15012800D01*
X16301862Y15121074D01*
X16501926Y15321138D01*
X16610200Y15582534D01*
X16610200Y15865466D01*
X16501926Y16126862D01*
X16301862Y16326926D01*
X16040466Y16435200D01*
X15798457Y16435200D01*
X13821400Y18412257D01*
X13797310Y18448310D01*
X13769039Y18467200D01*
X21816143Y18467200D01*
X23061800Y17221542D01*
X23061800Y16979534D01*
X23170074Y16718138D01*
X23370138Y16518074D01*
X23631534Y16409800D01*
X23914466Y16409800D01*
X24175862Y16518074D01*
X24375926Y16718138D01*
X24484200Y16979534D01*
X24484200Y17262466D01*
X24375926Y17523862D01*
X24175862Y17723926D01*
X23914466Y17832200D01*
X23672458Y17832200D01*
X22330399Y19174258D01*
X22306310Y19210310D01*
X22163480Y19305746D01*
X22037526Y19330800D01*
X22037522Y19330800D01*
X21995000Y19339258D01*
X21952478Y19330800D01*
X6820988Y19330800D01*
X6649862Y19501926D01*
X6388466Y19610200D01*
X6105534Y19610200D01*
X6069200Y19595150D01*
X6069200Y19802466D01*
X5960926Y20063862D01*
X5760862Y20263926D01*
X5499466Y20372200D01*
X5216534Y20372200D01*
X4955138Y20263926D01*
X4755074Y20063862D01*
X4646800Y19802466D01*
X379800Y19802466D01*
X379800Y22328000D01*
X32882577Y22328000D01*
X32972203Y21877420D01*
X33227436Y21495436D01*
X33609420Y21240203D01*
X33946267Y21173200D01*
X34173733Y21173200D01*
X34510580Y21240203D01*
X34892564Y21495436D01*
X35147797Y21877420D01*
X35237423Y22328000D01*
X36692577Y22328000D01*
X36782203Y21877420D01*
X37037436Y21495436D01*
X37419420Y21240203D01*
X37756267Y21173200D01*
X37983733Y21173200D01*
X38320580Y21240203D01*
X38702564Y21495436D01*
X38957797Y21877420D01*
X39047423Y22328000D01*
X38957797Y22778580D01*
X38702564Y23160564D01*
X38320580Y23415797D01*
X37983733Y23482800D01*
X37756267Y23482800D01*
X37419420Y23415797D01*
X37037436Y23160564D01*
X36782203Y22778580D01*
X36692577Y22328000D01*
X35237423Y22328000D01*
X35147797Y22778580D01*
X34892564Y23160564D01*
X34510580Y23415797D01*
X34173733Y23482800D01*
X33946267Y23482800D01*
X33609420Y23415797D01*
X33227436Y23160564D01*
X32972203Y22778580D01*
X32882577Y22328000D01*
X379800Y22328000D01*
X379800Y24690200D01*
X32905200Y24690200D01*
X32905200Y23957371D01*
X32951603Y23845344D01*
X33037345Y23759603D01*
X33149372Y23713200D01*
X33882200Y23713200D01*
X33958400Y23789400D01*
X33958400Y24766400D01*
X34161600Y24766400D01*
X34161600Y23789400D01*
X34237800Y23713200D01*
X34970628Y23713200D01*
X35082655Y23759603D01*
X35168397Y23845344D01*
X35214800Y23957371D01*
X35214800Y24587701D01*
X36749734Y24587701D01*
X36879643Y24274047D01*
X37182325Y23940266D01*
X37589699Y23747724D01*
X37768400Y23793868D01*
X37768400Y24766400D01*
X37971600Y24766400D01*
X37971600Y23793868D01*
X38150301Y23747724D01*
X38557675Y23940266D01*
X38860357Y24274047D01*
X38990266Y24587701D01*
X38943804Y24766400D01*
X37971600Y24766400D01*
X37768400Y24766400D01*
X36796196Y24766400D01*
X36749734Y24587701D01*
X35214800Y24587701D01*
X35214800Y24690200D01*
X35138600Y24766400D01*
X34161600Y24766400D01*
X33958400Y24766400D01*
X32981400Y24766400D01*
X32905200Y24690200D01*
X379800Y24690200D01*
X379800Y25778629D01*
X32905200Y25778629D01*
X32905200Y25045800D01*
X32981400Y24969600D01*
X33958400Y24969600D01*
X33958400Y25946600D01*
X34161600Y25946600D01*
X34161600Y24969600D01*
X35138600Y24969600D01*
X35214800Y25045800D01*
X35214800Y25148299D01*
X36749734Y25148299D01*
X36796196Y24969600D01*
X37768400Y24969600D01*
X37768400Y25942132D01*
X37971600Y25942132D01*
X37971600Y24969600D01*
X38943804Y24969600D01*
X38990266Y25148299D01*
X38860357Y25461953D01*
X38557675Y25795734D01*
X38150301Y25988276D01*
X37971600Y25942132D01*
X37768400Y25942132D01*
X37589699Y25988276D01*
X37182325Y25795734D01*
X36879643Y25461953D01*
X36749734Y25148299D01*
X35214800Y25148299D01*
X35214800Y25778629D01*
X35168397Y25890656D01*
X35082655Y25976397D01*
X34970628Y26022800D01*
X34237800Y26022800D01*
X34161600Y25946600D01*
X33958400Y25946600D01*
X33882200Y26022800D01*
X33149372Y26022800D01*
X33037345Y25976397D01*
X32951603Y25890656D01*
X32905200Y25778629D01*
X379800Y25778629D01*
X379800Y28893000D01*
X14611229Y28893000D01*
X14611229Y27193000D01*
X14634885Y27074073D01*
X14702252Y26973252D01*
X14803073Y26905885D01*
X14922000Y26882229D01*
X16622000Y26882229D01*
X16740927Y26905885D01*
X16841748Y26973252D01*
X16909115Y27074073D01*
X16932771Y27193000D01*
X16932771Y28043000D01*
X17134577Y28043000D01*
X17224203Y27592420D01*
X17479436Y27210436D01*
X17861420Y26955203D01*
X18198267Y26888200D01*
X18425733Y26888200D01*
X18762580Y26955203D01*
X19144564Y27210436D01*
X19399797Y27592420D01*
X19433667Y27762699D01*
X19731724Y27762699D01*
X19924266Y27355325D01*
X20258047Y27052643D01*
X20571701Y26922734D01*
X20750400Y26969196D01*
X20750400Y27941400D01*
X20953600Y27941400D01*
X20953600Y26969196D01*
X21132299Y26922734D01*
X21445953Y27052643D01*
X21779734Y27355325D01*
X21972276Y27762699D01*
X21926132Y27941400D01*
X20953600Y27941400D01*
X20750400Y27941400D01*
X19777868Y27941400D01*
X19731724Y27762699D01*
X19433667Y27762699D01*
X19489423Y28043000D01*
X22214577Y28043000D01*
X22304203Y27592420D01*
X22559436Y27210436D01*
X22941420Y26955203D01*
X23278267Y26888200D01*
X23505733Y26888200D01*
X23842580Y26955203D01*
X24224564Y27210436D01*
X24479797Y27592420D01*
X24569423Y28043000D01*
X24754577Y28043000D01*
X24844203Y27592420D01*
X25099436Y27210436D01*
X25481420Y26955203D01*
X25818267Y26888200D01*
X26045733Y26888200D01*
X26382580Y26955203D01*
X26764564Y27210436D01*
X27019797Y27592420D01*
X27109423Y28043000D01*
X27019797Y28493580D01*
X26764564Y28875564D01*
X26382580Y29130797D01*
X26045733Y29197800D01*
X25818267Y29197800D01*
X25481420Y29130797D01*
X25099436Y28875564D01*
X24844203Y28493580D01*
X24754577Y28043000D01*
X24569423Y28043000D01*
X24479797Y28493580D01*
X24224564Y28875564D01*
X23842580Y29130797D01*
X23505733Y29197800D01*
X23278267Y29197800D01*
X22941420Y29130797D01*
X22559436Y28875564D01*
X22304203Y28493580D01*
X22214577Y28043000D01*
X19489423Y28043000D01*
X19433668Y28323301D01*
X19731724Y28323301D01*
X19777868Y28144600D01*
X20750400Y28144600D01*
X20750400Y29116804D01*
X20953600Y29116804D01*
X20953600Y28144600D01*
X21926132Y28144600D01*
X21972276Y28323301D01*
X21779734Y28730675D01*
X21445953Y29033357D01*
X21132299Y29163266D01*
X20953600Y29116804D01*
X20750400Y29116804D01*
X20571701Y29163266D01*
X20258047Y29033357D01*
X19924266Y28730675D01*
X19731724Y28323301D01*
X19433668Y28323301D01*
X19399797Y28493580D01*
X19144564Y28875564D01*
X18762580Y29130797D01*
X18425733Y29197800D01*
X18198267Y29197800D01*
X17861420Y29130797D01*
X17479436Y28875564D01*
X17224203Y28493580D01*
X17134577Y28043000D01*
X16932771Y28043000D01*
X16932771Y28893000D01*
X16909115Y29011927D01*
X16841748Y29112748D01*
X16740927Y29180115D01*
X16622000Y29203771D01*
X14922000Y29203771D01*
X14803073Y29180115D01*
X14702252Y29112748D01*
X14634885Y29011927D01*
X14611229Y28893000D01*
X379800Y28893000D01*
X379800Y29620200D01*
X39620200Y29620200D01*
X39620201Y379800D01*
G04 #@! TD*
M02*
