G04 #@! TF.GenerationSoftware,KiCad,Pcbnew,5.0.2-bee76a0~70~ubuntu16.04.1*
G04 #@! TF.CreationDate,2019-07-11T08:17:53+02:00*
G04 #@! TF.ProjectId,paste_dispenser,70617374-655f-4646-9973-70656e736572,rev?*
G04 #@! TF.SameCoordinates,PX3dfd240PY3dfd240*
G04 #@! TF.FileFunction,Legend,Top*
G04 #@! TF.FilePolarity,Positive*
%FSLAX46Y46*%
G04 Gerber Fmt 4.6, Leading zero omitted, Abs format (unit mm)*
G04 Created by KiCad (PCBNEW 5.0.2-bee76a0~70~ubuntu16.04.1) date Thu 11 Jul 2019 08:17:53 AM CEST*
%MOMM*%
%LPD*%
G01*
G04 APERTURE LIST*
%ADD10C,0.100000*%
%ADD11C,0.150000*%
%ADD12C,0.120000*%
%ADD13R,0.502000X3.302000*%
%ADD14R,1.802000X1.802000*%
%ADD15O,1.802000X1.802000*%
%ADD16C,1.077000*%
%ADD17C,2.540000*%
%ADD18R,1.002000X0.902000*%
%ADD19C,1.352000*%
%ADD20R,0.502000X1.102000*%
%ADD21C,2.102000*%
%ADD22R,0.652000X1.702000*%
%ADD23R,1.702000X0.652000*%
G04 APERTURE END LIST*
D10*
X27436904Y9375477D02*
X26636904Y9375477D01*
X27398809Y9718334D02*
X27436904Y9832620D01*
X27436904Y10023096D01*
X27398809Y10099286D01*
X27360714Y10137381D01*
X27284523Y10175477D01*
X27208333Y10175477D01*
X27132142Y10137381D01*
X27094047Y10099286D01*
X27055952Y10023096D01*
X27017857Y9870715D01*
X26979761Y9794524D01*
X26941666Y9756429D01*
X26865476Y9718334D01*
X26789285Y9718334D01*
X26713095Y9756429D01*
X26675000Y9794524D01*
X26636904Y9870715D01*
X26636904Y10061191D01*
X26675000Y10175477D01*
X27436904Y10518334D02*
X26636904Y10518334D01*
X26636904Y10823096D01*
X26675000Y10899286D01*
X26713095Y10937381D01*
X26789285Y10975477D01*
X26903571Y10975477D01*
X26979761Y10937381D01*
X27017857Y10899286D01*
X27055952Y10823096D01*
X27055952Y10518334D01*
X36022142Y10391477D02*
X36022142Y11001000D01*
X36326904Y10696239D02*
X35717380Y10696239D01*
X35526904Y11762905D02*
X35526904Y11381953D01*
X35907857Y11343858D01*
X35869761Y11381953D01*
X35831666Y11458143D01*
X35831666Y11648620D01*
X35869761Y11724810D01*
X35907857Y11762905D01*
X35984047Y11801000D01*
X36174523Y11801000D01*
X36250714Y11762905D01*
X36288809Y11724810D01*
X36326904Y11648620D01*
X36326904Y11458143D01*
X36288809Y11381953D01*
X36250714Y11343858D01*
X35526904Y12029572D02*
X36326904Y12296239D01*
X35526904Y12562905D01*
X36326904Y13896239D02*
X35945952Y13629572D01*
X36326904Y13439096D02*
X35526904Y13439096D01*
X35526904Y13743858D01*
X35565000Y13820048D01*
X35603095Y13858143D01*
X35679285Y13896239D01*
X35793571Y13896239D01*
X35869761Y13858143D01*
X35907857Y13820048D01*
X35945952Y13743858D01*
X35945952Y13439096D01*
X35526904Y14162905D02*
X36326904Y14696239D01*
X35526904Y14696239D02*
X36326904Y14162905D01*
X35526904Y15496239D02*
X35526904Y15953381D01*
X36326904Y15724810D02*
X35526904Y15724810D01*
X35526904Y16143858D02*
X36326904Y16677191D01*
X35526904Y16677191D02*
X36326904Y16143858D01*
X35565000Y18010524D02*
X35526904Y17934334D01*
X35526904Y17820048D01*
X35565000Y17705762D01*
X35641190Y17629572D01*
X35717380Y17591477D01*
X35869761Y17553381D01*
X35984047Y17553381D01*
X36136428Y17591477D01*
X36212619Y17629572D01*
X36288809Y17705762D01*
X36326904Y17820048D01*
X36326904Y17896239D01*
X36288809Y18010524D01*
X36250714Y18048620D01*
X35984047Y18048620D01*
X35984047Y17896239D01*
X36326904Y18391477D02*
X35526904Y18391477D01*
X36326904Y18848620D01*
X35526904Y18848620D01*
X36326904Y19229572D02*
X35526904Y19229572D01*
X35526904Y19420048D01*
X35565000Y19534334D01*
X35641190Y19610524D01*
X35717380Y19648620D01*
X35869761Y19686715D01*
X35984047Y19686715D01*
X36136428Y19648620D01*
X36212619Y19610524D01*
X36288809Y19534334D01*
X36326904Y19420048D01*
X36326904Y19229572D01*
X35907857Y20905762D02*
X35907857Y20639096D01*
X36326904Y20639096D02*
X35526904Y20639096D01*
X35526904Y21020048D01*
X35526904Y21210524D02*
X35526904Y21667667D01*
X36326904Y21439096D02*
X35526904Y21439096D01*
X36288809Y21896239D02*
X36326904Y22010524D01*
X36326904Y22201000D01*
X36288809Y22277191D01*
X36250714Y22315286D01*
X36174523Y22353381D01*
X36098333Y22353381D01*
X36022142Y22315286D01*
X35984047Y22277191D01*
X35945952Y22201000D01*
X35907857Y22048620D01*
X35869761Y21972429D01*
X35831666Y21934334D01*
X35755476Y21896239D01*
X35679285Y21896239D01*
X35603095Y21934334D01*
X35565000Y21972429D01*
X35526904Y22048620D01*
X35526904Y22239096D01*
X35565000Y22353381D01*
X35526904Y22620048D02*
X36326904Y22810524D01*
X35755476Y22962905D01*
X36326904Y23115286D01*
X35526904Y23305762D01*
X35565000Y24639096D02*
X35526904Y24562905D01*
X35526904Y24448620D01*
X35565000Y24334334D01*
X35641190Y24258143D01*
X35717380Y24220048D01*
X35869761Y24181953D01*
X35984047Y24181953D01*
X36136428Y24220048D01*
X36212619Y24258143D01*
X36288809Y24334334D01*
X36326904Y24448620D01*
X36326904Y24524810D01*
X36288809Y24639096D01*
X36250714Y24677191D01*
X35984047Y24677191D01*
X35984047Y24524810D01*
X36326904Y25020048D02*
X35526904Y25020048D01*
X36326904Y25477191D01*
X35526904Y25477191D01*
X36326904Y25858143D02*
X35526904Y25858143D01*
X35526904Y26048620D01*
X35565000Y26162905D01*
X35641190Y26239096D01*
X35717380Y26277191D01*
X35869761Y26315286D01*
X35984047Y26315286D01*
X36136428Y26277191D01*
X36212619Y26239096D01*
X36288809Y26162905D01*
X36326904Y26048620D01*
X36326904Y25858143D01*
D11*
X14613904Y25447429D02*
X14756761Y25399810D01*
X14804380Y25352191D01*
X14852000Y25256953D01*
X14852000Y25114096D01*
X14804380Y25018858D01*
X14756761Y24971239D01*
X14661523Y24923620D01*
X14280571Y24923620D01*
X14280571Y25923620D01*
X14613904Y25923620D01*
X14709142Y25876000D01*
X14756761Y25828381D01*
X14804380Y25733143D01*
X14804380Y25637905D01*
X14756761Y25542667D01*
X14709142Y25495048D01*
X14613904Y25447429D01*
X14280571Y25447429D01*
X15804380Y24923620D02*
X15232952Y24923620D01*
X15518666Y24923620D02*
X15518666Y25923620D01*
X15423428Y25780762D01*
X15328190Y25685524D01*
X15232952Y25637905D01*
X17328190Y25447429D02*
X17471047Y25399810D01*
X17518666Y25352191D01*
X17566285Y25256953D01*
X17566285Y25114096D01*
X17518666Y25018858D01*
X17471047Y24971239D01*
X17375809Y24923620D01*
X16994857Y24923620D01*
X16994857Y25923620D01*
X17328190Y25923620D01*
X17423428Y25876000D01*
X17471047Y25828381D01*
X17518666Y25733143D01*
X17518666Y25637905D01*
X17471047Y25542667D01*
X17423428Y25495048D01*
X17328190Y25447429D01*
X16994857Y25447429D01*
X17947238Y25828381D02*
X17994857Y25876000D01*
X18090095Y25923620D01*
X18328190Y25923620D01*
X18423428Y25876000D01*
X18471047Y25828381D01*
X18518666Y25733143D01*
X18518666Y25637905D01*
X18471047Y25495048D01*
X17899619Y24923620D01*
X18518666Y24923620D01*
X20232952Y25876000D02*
X20137714Y25923620D01*
X19994857Y25923620D01*
X19852000Y25876000D01*
X19756761Y25780762D01*
X19709142Y25685524D01*
X19661523Y25495048D01*
X19661523Y25352191D01*
X19709142Y25161715D01*
X19756761Y25066477D01*
X19852000Y24971239D01*
X19994857Y24923620D01*
X20090095Y24923620D01*
X20232952Y24971239D01*
X20280571Y25018858D01*
X20280571Y25352191D01*
X20090095Y25352191D01*
X20709142Y24923620D02*
X20709142Y25923620D01*
X21280571Y24923620D01*
X21280571Y25923620D01*
X21756761Y24923620D02*
X21756761Y25923620D01*
X21994857Y25923620D01*
X22137714Y25876000D01*
X22232952Y25780762D01*
X22280571Y25685524D01*
X22328190Y25495048D01*
X22328190Y25352191D01*
X22280571Y25161715D01*
X22232952Y25066477D01*
X22137714Y24971239D01*
X21994857Y24923620D01*
X21756761Y24923620D01*
X23471047Y25209334D02*
X23947238Y25209334D01*
X23375809Y24923620D02*
X23709142Y25923620D01*
X24042476Y24923620D01*
X24328190Y25828381D02*
X24375809Y25876000D01*
X24471047Y25923620D01*
X24709142Y25923620D01*
X24804380Y25876000D01*
X24852000Y25828381D01*
X24899619Y25733143D01*
X24899619Y25637905D01*
X24852000Y25495048D01*
X24280571Y24923620D01*
X24899619Y24923620D01*
X26042476Y25209334D02*
X26518666Y25209334D01*
X25947238Y24923620D02*
X26280571Y25923620D01*
X26613904Y24923620D01*
X27471047Y24923620D02*
X26899619Y24923620D01*
X27185333Y24923620D02*
X27185333Y25923620D01*
X27090095Y25780762D01*
X26994857Y25685524D01*
X26899619Y25637905D01*
D10*
X32478809Y15433381D02*
X32516904Y15547667D01*
X32516904Y15738143D01*
X32478809Y15814334D01*
X32440714Y15852429D01*
X32364523Y15890524D01*
X32288333Y15890524D01*
X32212142Y15852429D01*
X32174047Y15814334D01*
X32135952Y15738143D01*
X32097857Y15585762D01*
X32059761Y15509572D01*
X32021666Y15471477D01*
X31945476Y15433381D01*
X31869285Y15433381D01*
X31793095Y15471477D01*
X31755000Y15509572D01*
X31716904Y15585762D01*
X31716904Y15776239D01*
X31755000Y15890524D01*
X32516904Y16233381D02*
X31716904Y16233381D01*
X31716904Y16423858D01*
X31755000Y16538143D01*
X31831190Y16614334D01*
X31907380Y16652429D01*
X32059761Y16690524D01*
X32174047Y16690524D01*
X32326428Y16652429D01*
X32402619Y16614334D01*
X32478809Y16538143D01*
X32516904Y16423858D01*
X32516904Y16233381D01*
X32288333Y16995286D02*
X32288333Y17376239D01*
X32516904Y16919096D02*
X31716904Y17185762D01*
X32516904Y17452429D01*
X32478809Y18290524D02*
X32516904Y18404810D01*
X32516904Y18595286D01*
X32478809Y18671477D01*
X32440714Y18709572D01*
X32364523Y18747667D01*
X32288333Y18747667D01*
X32212142Y18709572D01*
X32174047Y18671477D01*
X32135952Y18595286D01*
X32097857Y18442905D01*
X32059761Y18366715D01*
X32021666Y18328620D01*
X31945476Y18290524D01*
X31869285Y18290524D01*
X31793095Y18328620D01*
X31755000Y18366715D01*
X31716904Y18442905D01*
X31716904Y18633381D01*
X31755000Y18747667D01*
X32440714Y19547667D02*
X32478809Y19509572D01*
X32516904Y19395286D01*
X32516904Y19319096D01*
X32478809Y19204810D01*
X32402619Y19128620D01*
X32326428Y19090524D01*
X32174047Y19052429D01*
X32059761Y19052429D01*
X31907380Y19090524D01*
X31831190Y19128620D01*
X31755000Y19204810D01*
X31716904Y19319096D01*
X31716904Y19395286D01*
X31755000Y19509572D01*
X31793095Y19547667D01*
X32516904Y19890524D02*
X31716904Y19890524D01*
X32516904Y20347667D02*
X32059761Y20004810D01*
X31716904Y20347667D02*
X32174047Y19890524D01*
X31716904Y21185762D02*
X32516904Y21452429D01*
X31716904Y21719096D01*
X32440714Y22442905D02*
X32478809Y22404810D01*
X32516904Y22290524D01*
X32516904Y22214334D01*
X32478809Y22100048D01*
X32402619Y22023858D01*
X32326428Y21985762D01*
X32174047Y21947667D01*
X32059761Y21947667D01*
X31907380Y21985762D01*
X31831190Y22023858D01*
X31755000Y22100048D01*
X31716904Y22214334D01*
X31716904Y22290524D01*
X31755000Y22404810D01*
X31793095Y22442905D01*
X32440714Y23242905D02*
X32478809Y23204810D01*
X32516904Y23090524D01*
X32516904Y23014334D01*
X32478809Y22900048D01*
X32402619Y22823858D01*
X32326428Y22785762D01*
X32174047Y22747667D01*
X32059761Y22747667D01*
X31907380Y22785762D01*
X31831190Y22823858D01*
X31755000Y22900048D01*
X31716904Y23014334D01*
X31716904Y23090524D01*
X31755000Y23204810D01*
X31793095Y23242905D01*
X31755000Y24614334D02*
X31716904Y24538143D01*
X31716904Y24423858D01*
X31755000Y24309572D01*
X31831190Y24233381D01*
X31907380Y24195286D01*
X32059761Y24157191D01*
X32174047Y24157191D01*
X32326428Y24195286D01*
X32402619Y24233381D01*
X32478809Y24309572D01*
X32516904Y24423858D01*
X32516904Y24500048D01*
X32478809Y24614334D01*
X32440714Y24652429D01*
X32174047Y24652429D01*
X32174047Y24500048D01*
X32516904Y24995286D02*
X31716904Y24995286D01*
X32516904Y25452429D01*
X31716904Y25452429D01*
X32516904Y25833381D02*
X31716904Y25833381D01*
X31716904Y26023858D01*
X31755000Y26138143D01*
X31831190Y26214334D01*
X31907380Y26252429D01*
X32059761Y26290524D01*
X32174047Y26290524D01*
X32326428Y26252429D01*
X32402619Y26214334D01*
X32478809Y26138143D01*
X32516904Y26023858D01*
X32516904Y25833381D01*
D11*
X23392142Y8556429D02*
X23058809Y8556429D01*
X23058809Y8032620D02*
X23058809Y9032620D01*
X23535000Y9032620D01*
X23868333Y8318334D02*
X24344523Y8318334D01*
X23773095Y8032620D02*
X24106428Y9032620D01*
X24439761Y8032620D01*
X24725476Y8080239D02*
X24868333Y8032620D01*
X25106428Y8032620D01*
X25201666Y8080239D01*
X25249285Y8127858D01*
X25296904Y8223096D01*
X25296904Y8318334D01*
X25249285Y8413572D01*
X25201666Y8461191D01*
X25106428Y8508810D01*
X24915952Y8556429D01*
X24820714Y8604048D01*
X24773095Y8651667D01*
X24725476Y8746905D01*
X24725476Y8842143D01*
X24773095Y8937381D01*
X24820714Y8985000D01*
X24915952Y9032620D01*
X25154047Y9032620D01*
X25296904Y8985000D01*
X25582619Y9032620D02*
X26154047Y9032620D01*
X25868333Y8032620D02*
X25868333Y9032620D01*
X32274285Y7953239D02*
X32417142Y7905620D01*
X32655238Y7905620D01*
X32750476Y7953239D01*
X32798095Y8000858D01*
X32845714Y8096096D01*
X32845714Y8191334D01*
X32798095Y8286572D01*
X32750476Y8334191D01*
X32655238Y8381810D01*
X32464761Y8429429D01*
X32369523Y8477048D01*
X32321904Y8524667D01*
X32274285Y8619905D01*
X32274285Y8715143D01*
X32321904Y8810381D01*
X32369523Y8858000D01*
X32464761Y8905620D01*
X32702857Y8905620D01*
X32845714Y8858000D01*
X33750476Y7905620D02*
X33274285Y7905620D01*
X33274285Y8905620D01*
X34274285Y8905620D02*
X34464761Y8905620D01*
X34560000Y8858000D01*
X34655238Y8762762D01*
X34702857Y8572286D01*
X34702857Y8238953D01*
X34655238Y8048477D01*
X34560000Y7953239D01*
X34464761Y7905620D01*
X34274285Y7905620D01*
X34179047Y7953239D01*
X34083809Y8048477D01*
X34036190Y8238953D01*
X34036190Y8572286D01*
X34083809Y8762762D01*
X34179047Y8858000D01*
X34274285Y8905620D01*
X35036190Y8905620D02*
X35274285Y7905620D01*
X35464761Y8619905D01*
X35655238Y7905620D01*
X35893333Y8905620D01*
X13224285Y7905620D02*
X13224285Y8905620D01*
X13605238Y8905620D01*
X13700476Y8858000D01*
X13748095Y8810381D01*
X13795714Y8715143D01*
X13795714Y8572286D01*
X13748095Y8477048D01*
X13700476Y8429429D01*
X13605238Y8381810D01*
X13224285Y8381810D01*
X14224285Y8905620D02*
X14224285Y8096096D01*
X14271904Y8000858D01*
X14319523Y7953239D01*
X14414761Y7905620D01*
X14605238Y7905620D01*
X14700476Y7953239D01*
X14748095Y8000858D01*
X14795714Y8096096D01*
X14795714Y8905620D01*
X15224285Y7953239D02*
X15367142Y7905620D01*
X15605238Y7905620D01*
X15700476Y7953239D01*
X15748095Y8000858D01*
X15795714Y8096096D01*
X15795714Y8191334D01*
X15748095Y8286572D01*
X15700476Y8334191D01*
X15605238Y8381810D01*
X15414761Y8429429D01*
X15319523Y8477048D01*
X15271904Y8524667D01*
X15224285Y8619905D01*
X15224285Y8715143D01*
X15271904Y8810381D01*
X15319523Y8858000D01*
X15414761Y8905620D01*
X15652857Y8905620D01*
X15795714Y8858000D01*
X16224285Y7905620D02*
X16224285Y8905620D01*
X16224285Y8429429D02*
X16795714Y8429429D01*
X16795714Y7905620D02*
X16795714Y8905620D01*
X3889761Y7905620D02*
X3889761Y8905620D01*
X4270714Y8905620D01*
X4365952Y8858000D01*
X4413571Y8810381D01*
X4461190Y8715143D01*
X4461190Y8572286D01*
X4413571Y8477048D01*
X4365952Y8429429D01*
X4270714Y8381810D01*
X3889761Y8381810D01*
X4889761Y8905620D02*
X4889761Y8096096D01*
X4937380Y8000858D01*
X4985000Y7953239D01*
X5080238Y7905620D01*
X5270714Y7905620D01*
X5365952Y7953239D01*
X5413571Y8000858D01*
X5461190Y8096096D01*
X5461190Y8905620D01*
X6413571Y7905620D02*
X5937380Y7905620D01*
X5937380Y8905620D01*
X7223095Y7905620D02*
X6746904Y7905620D01*
X6746904Y8905620D01*
D12*
G04 #@! TO.C,Y1*
X891000Y26208000D02*
X891000Y28208000D01*
X4491000Y28208000D02*
X4491000Y26208000D01*
X3441000Y28608000D02*
X3441000Y29008000D01*
X4691000Y26208000D02*
X4691000Y28208000D01*
X891000Y28208000D02*
X891000Y28608000D01*
X4491000Y28208000D02*
X4491000Y28608000D01*
X4691000Y28208000D02*
X4691000Y28608000D01*
X4491000Y26208000D02*
X4341000Y26208000D01*
X4491000Y28608000D02*
X4341000Y28608000D01*
X3441000Y28608000D02*
X3491000Y28608000D01*
X891000Y28608000D02*
X1041000Y28608000D01*
X891000Y26208000D02*
X1041000Y26208000D01*
G04 #@! TO.C,J2*
X39200000Y26198000D02*
X36540000Y26198000D01*
X39200000Y13438000D02*
X39200000Y26198000D01*
X36540000Y13438000D02*
X36540000Y26198000D01*
X39200000Y13438000D02*
X36540000Y13438000D01*
X39200000Y12168000D02*
X39200000Y10838000D01*
X39200000Y10838000D02*
X37870000Y10838000D01*
G04 #@! TO.C,C4*
X6426000Y27403422D02*
X6426000Y27920578D01*
X7846000Y27403422D02*
X7846000Y27920578D01*
G04 #@! TO.C,Q1*
X29740000Y15668000D02*
X29740000Y16598000D01*
X29740000Y18828000D02*
X29740000Y17898000D01*
X29740000Y18828000D02*
X27580000Y18828000D01*
X29740000Y15668000D02*
X28280000Y15668000D01*
G04 #@! TO.C,C5*
X15920000Y12008064D02*
X15920000Y10803936D01*
X14100000Y12008064D02*
X14100000Y10803936D01*
D10*
G04 #@! TO.C,U2*
X16902000Y16380000D02*
X16602000Y16380000D01*
X16602000Y16380000D02*
X16602000Y17230000D01*
X16952000Y22180000D02*
X16602000Y22180000D01*
X16602000Y22180000D02*
X16602000Y21330000D01*
X24752000Y16380000D02*
X25102000Y16380000D01*
X25102000Y16380000D02*
X25102000Y17080000D01*
X24652000Y22530000D02*
X24652000Y21980000D01*
X24652000Y21980000D02*
X24652000Y21930000D01*
X24652000Y21930000D02*
X25102000Y21480000D01*
X25102000Y21480000D02*
X25102000Y21080000D01*
D12*
G04 #@! TO.C,C6*
X21054000Y12172578D02*
X21054000Y11655422D01*
X19634000Y12172578D02*
X19634000Y11655422D01*
G04 #@! TO.C,J3*
X27262000Y26713000D02*
X27262000Y29373000D01*
X17042000Y26713000D02*
X27262000Y26713000D01*
X17042000Y29373000D02*
X27262000Y29373000D01*
X17042000Y26713000D02*
X17042000Y29373000D01*
X15772000Y26713000D02*
X14442000Y26713000D01*
X14442000Y26713000D02*
X14442000Y28043000D01*
G04 #@! TO.C,J1*
X27650000Y14514000D02*
X27650000Y9314000D01*
X32790000Y14514000D02*
X27650000Y14514000D01*
X35390000Y9314000D02*
X27650000Y9314000D01*
X32790000Y14514000D02*
X32790000Y11914000D01*
X32790000Y11914000D02*
X35390000Y11914000D01*
X35390000Y11914000D02*
X35390000Y9314000D01*
X34060000Y14514000D02*
X35390000Y14514000D01*
X35390000Y14514000D02*
X35390000Y13184000D01*
G04 #@! TO.C,J4*
X32730000Y23598000D02*
X35390000Y23598000D01*
X32730000Y23598000D02*
X32730000Y15918000D01*
X32730000Y15918000D02*
X35390000Y15918000D01*
X35390000Y23598000D02*
X35390000Y15918000D01*
X35390000Y26198000D02*
X35390000Y24868000D01*
X34060000Y26198000D02*
X35390000Y26198000D01*
G04 #@! TO.C,SW4*
X37762000Y3580000D02*
X37762000Y5080000D01*
X36512000Y7580000D02*
X32012000Y7580000D01*
X30762000Y5080000D02*
X30762000Y3580000D01*
X32012000Y1080000D02*
X36512000Y1080000D01*
G04 #@! TO.C,SW3*
X22360000Y1080000D02*
X26860000Y1080000D01*
X21110000Y5080000D02*
X21110000Y3580000D01*
X26860000Y7580000D02*
X22360000Y7580000D01*
X28110000Y3580000D02*
X28110000Y5080000D01*
G04 #@! TO.C,C3*
X6576000Y11156578D02*
X6576000Y10639422D01*
X5156000Y11156578D02*
X5156000Y10639422D01*
D11*
G04 #@! TO.C,U1*
X11523000Y22905000D02*
X11298000Y22905000D01*
X11523000Y15655000D02*
X11198000Y15655000D01*
X4273000Y15655000D02*
X4598000Y15655000D01*
X4273000Y22905000D02*
X4598000Y22905000D01*
X11523000Y22905000D02*
X11523000Y22580000D01*
X4273000Y22905000D02*
X4273000Y22580000D01*
X4273000Y15655000D02*
X4273000Y15980000D01*
X11523000Y15655000D02*
X11523000Y15980000D01*
X11298000Y22905000D02*
X11298000Y24330000D01*
D12*
G04 #@! TO.C,D1*
X29377000Y26956000D02*
X32062000Y26956000D01*
X32062000Y26956000D02*
X32062000Y28876000D01*
X32062000Y28876000D02*
X29377000Y28876000D01*
G04 #@! TO.C,C1*
X10640000Y11156578D02*
X10640000Y10639422D01*
X9220000Y11156578D02*
X9220000Y10639422D01*
G04 #@! TO.C,C2*
X10490000Y27920578D02*
X10490000Y27403422D01*
X11910000Y27920578D02*
X11910000Y27403422D01*
G04 #@! TO.C,R1*
X24714000Y12172578D02*
X24714000Y11655422D01*
X26134000Y12172578D02*
X26134000Y11655422D01*
G04 #@! TO.C,R2*
X28213422Y24308000D02*
X28730578Y24308000D01*
X28213422Y22888000D02*
X28730578Y22888000D01*
G04 #@! TO.C,SW1*
X8806000Y3580000D02*
X8806000Y5080000D01*
X7556000Y7580000D02*
X3056000Y7580000D01*
X1806000Y5080000D02*
X1806000Y3580000D01*
X3056000Y1080000D02*
X7556000Y1080000D01*
G04 #@! TO.C,SW2*
X12708000Y1080000D02*
X17208000Y1080000D01*
X11458000Y5080000D02*
X11458000Y3580000D01*
X17208000Y7580000D02*
X12708000Y7580000D01*
X18458000Y3580000D02*
X18458000Y5080000D01*
G04 #@! TO.C,Y1*
D11*
X1524190Y24137810D02*
X2000380Y24137810D01*
X1000380Y23804477D02*
X1524190Y24137810D01*
X1000380Y24471143D01*
X2000380Y25328286D02*
X2000380Y24756858D01*
X2000380Y25042572D02*
X1000380Y25042572D01*
X1143238Y24947334D01*
X1238476Y24852096D01*
X1286095Y24756858D01*
G04 #@! TO.C,J2*
X37322380Y9504667D02*
X38036666Y9504667D01*
X38179523Y9457048D01*
X38274761Y9361810D01*
X38322380Y9218953D01*
X38322380Y9123715D01*
X37417619Y9933239D02*
X37370000Y9980858D01*
X37322380Y10076096D01*
X37322380Y10314191D01*
X37370000Y10409429D01*
X37417619Y10457048D01*
X37512857Y10504667D01*
X37608095Y10504667D01*
X37750952Y10457048D01*
X38322380Y9885620D01*
X38322380Y10504667D01*
G04 #@! TO.C,C4*
X5843142Y27495334D02*
X5890761Y27447715D01*
X5938380Y27304858D01*
X5938380Y27209620D01*
X5890761Y27066762D01*
X5795523Y26971524D01*
X5700285Y26923905D01*
X5509809Y26876286D01*
X5366952Y26876286D01*
X5176476Y26923905D01*
X5081238Y26971524D01*
X4986000Y27066762D01*
X4938380Y27209620D01*
X4938380Y27304858D01*
X4986000Y27447715D01*
X5033619Y27495334D01*
X5271714Y28352477D02*
X5938380Y28352477D01*
X4890761Y28114381D02*
X5605047Y27876286D01*
X5605047Y28495334D01*
G04 #@! TO.C,FID3*
X34179071Y4873572D02*
X34179071Y4540239D01*
X34702880Y4540239D02*
X33702880Y4540239D01*
X33702880Y5016429D01*
X34702880Y5397381D02*
X33702880Y5397381D01*
X34702880Y5873572D02*
X33702880Y5873572D01*
X33702880Y6111667D01*
X33750500Y6254524D01*
X33845738Y6349762D01*
X33940976Y6397381D01*
X34131452Y6445000D01*
X34274309Y6445000D01*
X34464785Y6397381D01*
X34560023Y6349762D01*
X34655261Y6254524D01*
X34702880Y6111667D01*
X34702880Y5873572D01*
X33702880Y6778334D02*
X33702880Y7397381D01*
X34083833Y7064048D01*
X34083833Y7206905D01*
X34131452Y7302143D01*
X34179071Y7349762D01*
X34274309Y7397381D01*
X34512404Y7397381D01*
X34607642Y7349762D01*
X34655261Y7302143D01*
X34702880Y7206905D01*
X34702880Y6921191D01*
X34655261Y6825953D01*
X34607642Y6778334D01*
G04 #@! TO.C,FID2*
X5286571Y4873572D02*
X5286571Y4540239D01*
X5810380Y4540239D02*
X4810380Y4540239D01*
X4810380Y5016429D01*
X5810380Y5397381D02*
X4810380Y5397381D01*
X5810380Y5873572D02*
X4810380Y5873572D01*
X4810380Y6111667D01*
X4858000Y6254524D01*
X4953238Y6349762D01*
X5048476Y6397381D01*
X5238952Y6445000D01*
X5381809Y6445000D01*
X5572285Y6397381D01*
X5667523Y6349762D01*
X5762761Y6254524D01*
X5810380Y6111667D01*
X5810380Y5873572D01*
X4905619Y6825953D02*
X4858000Y6873572D01*
X4810380Y6968810D01*
X4810380Y7206905D01*
X4858000Y7302143D01*
X4905619Y7349762D01*
X5000857Y7397381D01*
X5096095Y7397381D01*
X5238952Y7349762D01*
X5810380Y6778334D01*
X5810380Y7397381D01*
G04 #@! TO.C,FID1*
X35512571Y27225572D02*
X35512571Y26892239D01*
X36036380Y26892239D02*
X35036380Y26892239D01*
X35036380Y27368429D01*
X36036380Y27749381D02*
X35036380Y27749381D01*
X36036380Y28225572D02*
X35036380Y28225572D01*
X35036380Y28463667D01*
X35084000Y28606524D01*
X35179238Y28701762D01*
X35274476Y28749381D01*
X35464952Y28797000D01*
X35607809Y28797000D01*
X35798285Y28749381D01*
X35893523Y28701762D01*
X35988761Y28606524D01*
X36036380Y28463667D01*
X36036380Y28225572D01*
X36036380Y29749381D02*
X36036380Y29177953D01*
X36036380Y29463667D02*
X35036380Y29463667D01*
X35179238Y29368429D01*
X35274476Y29273191D01*
X35322095Y29177953D01*
G04 #@! TO.C,Q1*
X26987619Y16390762D02*
X26940000Y16295524D01*
X26844761Y16200286D01*
X26701904Y16057429D01*
X26654285Y15962191D01*
X26654285Y15866953D01*
X26892380Y15914572D02*
X26844761Y15819334D01*
X26749523Y15724096D01*
X26559047Y15676477D01*
X26225714Y15676477D01*
X26035238Y15724096D01*
X25940000Y15819334D01*
X25892380Y15914572D01*
X25892380Y16105048D01*
X25940000Y16200286D01*
X26035238Y16295524D01*
X26225714Y16343143D01*
X26559047Y16343143D01*
X26749523Y16295524D01*
X26844761Y16200286D01*
X26892380Y16105048D01*
X26892380Y15914572D01*
X26892380Y17295524D02*
X26892380Y16724096D01*
X26892380Y17009810D02*
X25892380Y17009810D01*
X26035238Y16914572D01*
X26130476Y16819334D01*
X26178095Y16724096D01*
G04 #@! TO.C,C5*
X13335142Y11239334D02*
X13382761Y11191715D01*
X13430380Y11048858D01*
X13430380Y10953620D01*
X13382761Y10810762D01*
X13287523Y10715524D01*
X13192285Y10667905D01*
X13001809Y10620286D01*
X12858952Y10620286D01*
X12668476Y10667905D01*
X12573238Y10715524D01*
X12478000Y10810762D01*
X12430380Y10953620D01*
X12430380Y11048858D01*
X12478000Y11191715D01*
X12525619Y11239334D01*
X12430380Y12144096D02*
X12430380Y11667905D01*
X12906571Y11620286D01*
X12858952Y11667905D01*
X12811333Y11763143D01*
X12811333Y12001239D01*
X12858952Y12096477D01*
X12906571Y12144096D01*
X13001809Y12191715D01*
X13239904Y12191715D01*
X13335142Y12144096D01*
X13382761Y12096477D01*
X13430380Y12001239D01*
X13430380Y11763143D01*
X13382761Y11667905D01*
X13335142Y11620286D01*
G04 #@! TO.C,U2*
X14970380Y21693096D02*
X15779904Y21693096D01*
X15875142Y21740715D01*
X15922761Y21788334D01*
X15970380Y21883572D01*
X15970380Y22074048D01*
X15922761Y22169286D01*
X15875142Y22216905D01*
X15779904Y22264524D01*
X14970380Y22264524D01*
X15065619Y22693096D02*
X15018000Y22740715D01*
X14970380Y22835953D01*
X14970380Y23074048D01*
X15018000Y23169286D01*
X15065619Y23216905D01*
X15160857Y23264524D01*
X15256095Y23264524D01*
X15398952Y23216905D01*
X15970380Y22645477D01*
X15970380Y23264524D01*
G04 #@! TO.C,C6*
X18796142Y11747334D02*
X18843761Y11699715D01*
X18891380Y11556858D01*
X18891380Y11461620D01*
X18843761Y11318762D01*
X18748523Y11223524D01*
X18653285Y11175905D01*
X18462809Y11128286D01*
X18319952Y11128286D01*
X18129476Y11175905D01*
X18034238Y11223524D01*
X17939000Y11318762D01*
X17891380Y11461620D01*
X17891380Y11556858D01*
X17939000Y11699715D01*
X17986619Y11747334D01*
X17891380Y12604477D02*
X17891380Y12414000D01*
X17939000Y12318762D01*
X17986619Y12271143D01*
X18129476Y12175905D01*
X18319952Y12128286D01*
X18700904Y12128286D01*
X18796142Y12175905D01*
X18843761Y12223524D01*
X18891380Y12318762D01*
X18891380Y12509239D01*
X18843761Y12604477D01*
X18796142Y12652096D01*
X18700904Y12699715D01*
X18462809Y12699715D01*
X18367571Y12652096D01*
X18319952Y12604477D01*
X18272333Y12509239D01*
X18272333Y12318762D01*
X18319952Y12223524D01*
X18367571Y12175905D01*
X18462809Y12128286D01*
G04 #@! TO.C,J3*
X12684380Y27709667D02*
X13398666Y27709667D01*
X13541523Y27662048D01*
X13636761Y27566810D01*
X13684380Y27423953D01*
X13684380Y27328715D01*
X12684380Y28090620D02*
X12684380Y28709667D01*
X13065333Y28376334D01*
X13065333Y28519191D01*
X13112952Y28614429D01*
X13160571Y28662048D01*
X13255809Y28709667D01*
X13493904Y28709667D01*
X13589142Y28662048D01*
X13636761Y28614429D01*
X13684380Y28519191D01*
X13684380Y28233477D01*
X13636761Y28138239D01*
X13589142Y28090620D01*
G04 #@! TO.C,J1*
X26273380Y13866667D02*
X26987666Y13866667D01*
X27130523Y13819048D01*
X27225761Y13723810D01*
X27273380Y13580953D01*
X27273380Y13485715D01*
X27273380Y14866667D02*
X27273380Y14295239D01*
X27273380Y14580953D02*
X26273380Y14580953D01*
X26416238Y14485715D01*
X26511476Y14390477D01*
X26559095Y14295239D01*
G04 #@! TO.C,J4*
X33512380Y26947667D02*
X34226666Y26947667D01*
X34369523Y26900048D01*
X34464761Y26804810D01*
X34512380Y26661953D01*
X34512380Y26566715D01*
X33845714Y27852429D02*
X34512380Y27852429D01*
X33464761Y27614334D02*
X34179047Y27376239D01*
X34179047Y27995286D01*
G04 #@! TO.C,SW4*
X30146761Y2706667D02*
X30194380Y2849524D01*
X30194380Y3087620D01*
X30146761Y3182858D01*
X30099142Y3230477D01*
X30003904Y3278096D01*
X29908666Y3278096D01*
X29813428Y3230477D01*
X29765809Y3182858D01*
X29718190Y3087620D01*
X29670571Y2897143D01*
X29622952Y2801905D01*
X29575333Y2754286D01*
X29480095Y2706667D01*
X29384857Y2706667D01*
X29289619Y2754286D01*
X29242000Y2801905D01*
X29194380Y2897143D01*
X29194380Y3135239D01*
X29242000Y3278096D01*
X29194380Y3611429D02*
X30194380Y3849524D01*
X29480095Y4040000D01*
X30194380Y4230477D01*
X29194380Y4468572D01*
X29527714Y5278096D02*
X30194380Y5278096D01*
X29146761Y5040000D02*
X29861047Y4801905D01*
X29861047Y5420953D01*
G04 #@! TO.C,SW3*
X20494761Y2706667D02*
X20542380Y2849524D01*
X20542380Y3087620D01*
X20494761Y3182858D01*
X20447142Y3230477D01*
X20351904Y3278096D01*
X20256666Y3278096D01*
X20161428Y3230477D01*
X20113809Y3182858D01*
X20066190Y3087620D01*
X20018571Y2897143D01*
X19970952Y2801905D01*
X19923333Y2754286D01*
X19828095Y2706667D01*
X19732857Y2706667D01*
X19637619Y2754286D01*
X19590000Y2801905D01*
X19542380Y2897143D01*
X19542380Y3135239D01*
X19590000Y3278096D01*
X19542380Y3611429D02*
X20542380Y3849524D01*
X19828095Y4040000D01*
X20542380Y4230477D01*
X19542380Y4468572D01*
X19542380Y4754286D02*
X19542380Y5373334D01*
X19923333Y5040000D01*
X19923333Y5182858D01*
X19970952Y5278096D01*
X20018571Y5325715D01*
X20113809Y5373334D01*
X20351904Y5373334D01*
X20447142Y5325715D01*
X20494761Y5278096D01*
X20542380Y5182858D01*
X20542380Y4897143D01*
X20494761Y4801905D01*
X20447142Y4754286D01*
G04 #@! TO.C,C3*
X4572142Y10731334D02*
X4619761Y10683715D01*
X4667380Y10540858D01*
X4667380Y10445620D01*
X4619761Y10302762D01*
X4524523Y10207524D01*
X4429285Y10159905D01*
X4238809Y10112286D01*
X4095952Y10112286D01*
X3905476Y10159905D01*
X3810238Y10207524D01*
X3715000Y10302762D01*
X3667380Y10445620D01*
X3667380Y10540858D01*
X3715000Y10683715D01*
X3762619Y10731334D01*
X3667380Y11064667D02*
X3667380Y11683715D01*
X4048333Y11350381D01*
X4048333Y11493239D01*
X4095952Y11588477D01*
X4143571Y11636096D01*
X4238809Y11683715D01*
X4476904Y11683715D01*
X4572142Y11636096D01*
X4619761Y11588477D01*
X4667380Y11493239D01*
X4667380Y11207524D01*
X4619761Y11112286D01*
X4572142Y11064667D01*
G04 #@! TO.C,U1*
X2651380Y23090096D02*
X3460904Y23090096D01*
X3556142Y23137715D01*
X3603761Y23185334D01*
X3651380Y23280572D01*
X3651380Y23471048D01*
X3603761Y23566286D01*
X3556142Y23613905D01*
X3460904Y23661524D01*
X2651380Y23661524D01*
X3651380Y24661524D02*
X3651380Y24090096D01*
X3651380Y24375810D02*
X2651380Y24375810D01*
X2794238Y24280572D01*
X2889476Y24185334D01*
X2937095Y24090096D01*
G04 #@! TO.C,D1*
X28543380Y27177905D02*
X27543380Y27177905D01*
X27543380Y27416000D01*
X27591000Y27558858D01*
X27686238Y27654096D01*
X27781476Y27701715D01*
X27971952Y27749334D01*
X28114809Y27749334D01*
X28305285Y27701715D01*
X28400523Y27654096D01*
X28495761Y27558858D01*
X28543380Y27416000D01*
X28543380Y27177905D01*
X28543380Y28701715D02*
X28543380Y28130286D01*
X28543380Y28416000D02*
X27543380Y28416000D01*
X27686238Y28320762D01*
X27781476Y28225524D01*
X27829095Y28130286D01*
G04 #@! TO.C,C1*
X8382142Y10731334D02*
X8429761Y10683715D01*
X8477380Y10540858D01*
X8477380Y10445620D01*
X8429761Y10302762D01*
X8334523Y10207524D01*
X8239285Y10159905D01*
X8048809Y10112286D01*
X7905952Y10112286D01*
X7715476Y10159905D01*
X7620238Y10207524D01*
X7525000Y10302762D01*
X7477380Y10445620D01*
X7477380Y10540858D01*
X7525000Y10683715D01*
X7572619Y10731334D01*
X8477380Y11683715D02*
X8477380Y11112286D01*
X8477380Y11398000D02*
X7477380Y11398000D01*
X7620238Y11302762D01*
X7715476Y11207524D01*
X7763095Y11112286D01*
G04 #@! TO.C,C2*
X9652142Y27495334D02*
X9699761Y27447715D01*
X9747380Y27304858D01*
X9747380Y27209620D01*
X9699761Y27066762D01*
X9604523Y26971524D01*
X9509285Y26923905D01*
X9318809Y26876286D01*
X9175952Y26876286D01*
X8985476Y26923905D01*
X8890238Y26971524D01*
X8795000Y27066762D01*
X8747380Y27209620D01*
X8747380Y27304858D01*
X8795000Y27447715D01*
X8842619Y27495334D01*
X8842619Y27876286D02*
X8795000Y27923905D01*
X8747380Y28019143D01*
X8747380Y28257239D01*
X8795000Y28352477D01*
X8842619Y28400096D01*
X8937857Y28447715D01*
X9033095Y28447715D01*
X9175952Y28400096D01*
X9747380Y27828667D01*
X9747380Y28447715D01*
G04 #@! TO.C,R1*
X23971380Y11747334D02*
X23495190Y11414000D01*
X23971380Y11175905D02*
X22971380Y11175905D01*
X22971380Y11556858D01*
X23019000Y11652096D01*
X23066619Y11699715D01*
X23161857Y11747334D01*
X23304714Y11747334D01*
X23399952Y11699715D01*
X23447571Y11652096D01*
X23495190Y11556858D01*
X23495190Y11175905D01*
X23971380Y12699715D02*
X23971380Y12128286D01*
X23971380Y12414000D02*
X22971380Y12414000D01*
X23114238Y12318762D01*
X23209476Y12223524D01*
X23257095Y12128286D01*
G04 #@! TO.C,R2*
X31258880Y23431334D02*
X30782690Y23098000D01*
X31258880Y22859905D02*
X30258880Y22859905D01*
X30258880Y23240858D01*
X30306500Y23336096D01*
X30354119Y23383715D01*
X30449357Y23431334D01*
X30592214Y23431334D01*
X30687452Y23383715D01*
X30735071Y23336096D01*
X30782690Y23240858D01*
X30782690Y22859905D01*
X30354119Y23812286D02*
X30306500Y23859905D01*
X30258880Y23955143D01*
X30258880Y24193239D01*
X30306500Y24288477D01*
X30354119Y24336096D01*
X30449357Y24383715D01*
X30544595Y24383715D01*
X30687452Y24336096D01*
X31258880Y23764667D01*
X31258880Y24383715D01*
G04 #@! TO.C,SW1*
X1190761Y2706667D02*
X1238380Y2849524D01*
X1238380Y3087620D01*
X1190761Y3182858D01*
X1143142Y3230477D01*
X1047904Y3278096D01*
X952666Y3278096D01*
X857428Y3230477D01*
X809809Y3182858D01*
X762190Y3087620D01*
X714571Y2897143D01*
X666952Y2801905D01*
X619333Y2754286D01*
X524095Y2706667D01*
X428857Y2706667D01*
X333619Y2754286D01*
X286000Y2801905D01*
X238380Y2897143D01*
X238380Y3135239D01*
X286000Y3278096D01*
X238380Y3611429D02*
X1238380Y3849524D01*
X524095Y4040000D01*
X1238380Y4230477D01*
X238380Y4468572D01*
X1238380Y5373334D02*
X1238380Y4801905D01*
X1238380Y5087620D02*
X238380Y5087620D01*
X381238Y4992381D01*
X476476Y4897143D01*
X524095Y4801905D01*
G04 #@! TO.C,SW2*
X10842761Y2706667D02*
X10890380Y2849524D01*
X10890380Y3087620D01*
X10842761Y3182858D01*
X10795142Y3230477D01*
X10699904Y3278096D01*
X10604666Y3278096D01*
X10509428Y3230477D01*
X10461809Y3182858D01*
X10414190Y3087620D01*
X10366571Y2897143D01*
X10318952Y2801905D01*
X10271333Y2754286D01*
X10176095Y2706667D01*
X10080857Y2706667D01*
X9985619Y2754286D01*
X9938000Y2801905D01*
X9890380Y2897143D01*
X9890380Y3135239D01*
X9938000Y3278096D01*
X9890380Y3611429D02*
X10890380Y3849524D01*
X10176095Y4040000D01*
X10890380Y4230477D01*
X9890380Y4468572D01*
X9985619Y4801905D02*
X9938000Y4849524D01*
X9890380Y4944762D01*
X9890380Y5182858D01*
X9938000Y5278096D01*
X9985619Y5325715D01*
X10080857Y5373334D01*
X10176095Y5373334D01*
X10318952Y5325715D01*
X10890380Y4754286D01*
X10890380Y5373334D01*
G04 #@! TD*
%LPC*%
D13*
G04 #@! TO.C,Y1*
X3891000Y27408000D03*
X2691000Y27408000D03*
X1491000Y27408000D03*
G04 #@! TD*
D14*
G04 #@! TO.C,J2*
X37870000Y12168000D03*
D15*
X37870000Y14708000D03*
X37870000Y17248000D03*
X37870000Y19788000D03*
X37870000Y22328000D03*
X37870000Y24868000D03*
G04 #@! TD*
D10*
G04 #@! TO.C,C4*
G36*
X7644141Y27261703D02*
X7670278Y27257826D01*
X7695909Y27251406D01*
X7720788Y27242505D01*
X7744674Y27231207D01*
X7767337Y27217623D01*
X7788560Y27201883D01*
X7808139Y27184139D01*
X7825883Y27164560D01*
X7841623Y27143337D01*
X7855207Y27120674D01*
X7866505Y27096788D01*
X7875406Y27071909D01*
X7881826Y27046278D01*
X7885703Y27020141D01*
X7887000Y26993750D01*
X7887000Y26455250D01*
X7885703Y26428859D01*
X7881826Y26402722D01*
X7875406Y26377091D01*
X7866505Y26352212D01*
X7855207Y26328326D01*
X7841623Y26305663D01*
X7825883Y26284440D01*
X7808139Y26264861D01*
X7788560Y26247117D01*
X7767337Y26231377D01*
X7744674Y26217793D01*
X7720788Y26206495D01*
X7695909Y26197594D01*
X7670278Y26191174D01*
X7644141Y26187297D01*
X7617750Y26186000D01*
X6654250Y26186000D01*
X6627859Y26187297D01*
X6601722Y26191174D01*
X6576091Y26197594D01*
X6551212Y26206495D01*
X6527326Y26217793D01*
X6504663Y26231377D01*
X6483440Y26247117D01*
X6463861Y26264861D01*
X6446117Y26284440D01*
X6430377Y26305663D01*
X6416793Y26328326D01*
X6405495Y26352212D01*
X6396594Y26377091D01*
X6390174Y26402722D01*
X6386297Y26428859D01*
X6385000Y26455250D01*
X6385000Y26993750D01*
X6386297Y27020141D01*
X6390174Y27046278D01*
X6396594Y27071909D01*
X6405495Y27096788D01*
X6416793Y27120674D01*
X6430377Y27143337D01*
X6446117Y27164560D01*
X6463861Y27184139D01*
X6483440Y27201883D01*
X6504663Y27217623D01*
X6527326Y27231207D01*
X6551212Y27242505D01*
X6576091Y27251406D01*
X6601722Y27257826D01*
X6627859Y27261703D01*
X6654250Y27263000D01*
X7617750Y27263000D01*
X7644141Y27261703D01*
X7644141Y27261703D01*
G37*
D16*
X7136000Y26724500D03*
D10*
G36*
X7644141Y29136703D02*
X7670278Y29132826D01*
X7695909Y29126406D01*
X7720788Y29117505D01*
X7744674Y29106207D01*
X7767337Y29092623D01*
X7788560Y29076883D01*
X7808139Y29059139D01*
X7825883Y29039560D01*
X7841623Y29018337D01*
X7855207Y28995674D01*
X7866505Y28971788D01*
X7875406Y28946909D01*
X7881826Y28921278D01*
X7885703Y28895141D01*
X7887000Y28868750D01*
X7887000Y28330250D01*
X7885703Y28303859D01*
X7881826Y28277722D01*
X7875406Y28252091D01*
X7866505Y28227212D01*
X7855207Y28203326D01*
X7841623Y28180663D01*
X7825883Y28159440D01*
X7808139Y28139861D01*
X7788560Y28122117D01*
X7767337Y28106377D01*
X7744674Y28092793D01*
X7720788Y28081495D01*
X7695909Y28072594D01*
X7670278Y28066174D01*
X7644141Y28062297D01*
X7617750Y28061000D01*
X6654250Y28061000D01*
X6627859Y28062297D01*
X6601722Y28066174D01*
X6576091Y28072594D01*
X6551212Y28081495D01*
X6527326Y28092793D01*
X6504663Y28106377D01*
X6483440Y28122117D01*
X6463861Y28139861D01*
X6446117Y28159440D01*
X6430377Y28180663D01*
X6416793Y28203326D01*
X6405495Y28227212D01*
X6396594Y28252091D01*
X6390174Y28277722D01*
X6386297Y28303859D01*
X6385000Y28330250D01*
X6385000Y28868750D01*
X6386297Y28895141D01*
X6390174Y28921278D01*
X6396594Y28946909D01*
X6405495Y28971788D01*
X6416793Y28995674D01*
X6430377Y29018337D01*
X6446117Y29039560D01*
X6463861Y29059139D01*
X6483440Y29076883D01*
X6504663Y29092623D01*
X6527326Y29106207D01*
X6551212Y29117505D01*
X6576091Y29126406D01*
X6601722Y29132826D01*
X6627859Y29136703D01*
X6654250Y29138000D01*
X7617750Y29138000D01*
X7644141Y29136703D01*
X7644141Y29136703D01*
G37*
D16*
X7136000Y28599500D03*
G04 #@! TD*
D17*
G04 #@! TO.C,FID3*
X34314000Y2770000D03*
G04 #@! TD*
G04 #@! TO.C,FID2*
X5358000Y2770000D03*
G04 #@! TD*
G04 #@! TO.C,FID1*
X37870000Y28297000D03*
G04 #@! TD*
D18*
G04 #@! TO.C,Q1*
X27980000Y18198000D03*
X27980000Y16298000D03*
X29980000Y17248000D03*
G04 #@! TD*
D10*
G04 #@! TO.C,C5*
G36*
X15692104Y13480698D02*
X15718352Y13476804D01*
X15744093Y13470357D01*
X15769078Y13461417D01*
X15793066Y13450072D01*
X15815826Y13436429D01*
X15837140Y13420622D01*
X15856802Y13402802D01*
X15874622Y13383140D01*
X15890429Y13361826D01*
X15904072Y13339066D01*
X15915417Y13315078D01*
X15924357Y13290093D01*
X15930804Y13264352D01*
X15934698Y13238104D01*
X15936000Y13211600D01*
X15936000Y12400400D01*
X15934698Y12373896D01*
X15930804Y12347648D01*
X15924357Y12321907D01*
X15915417Y12296922D01*
X15904072Y12272934D01*
X15890429Y12250174D01*
X15874622Y12228860D01*
X15856802Y12209198D01*
X15837140Y12191378D01*
X15815826Y12175571D01*
X15793066Y12161928D01*
X15769078Y12150583D01*
X15744093Y12141643D01*
X15718352Y12135196D01*
X15692104Y12131302D01*
X15665600Y12130000D01*
X14354400Y12130000D01*
X14327896Y12131302D01*
X14301648Y12135196D01*
X14275907Y12141643D01*
X14250922Y12150583D01*
X14226934Y12161928D01*
X14204174Y12175571D01*
X14182860Y12191378D01*
X14163198Y12209198D01*
X14145378Y12228860D01*
X14129571Y12250174D01*
X14115928Y12272934D01*
X14104583Y12296922D01*
X14095643Y12321907D01*
X14089196Y12347648D01*
X14085302Y12373896D01*
X14084000Y12400400D01*
X14084000Y13211600D01*
X14085302Y13238104D01*
X14089196Y13264352D01*
X14095643Y13290093D01*
X14104583Y13315078D01*
X14115928Y13339066D01*
X14129571Y13361826D01*
X14145378Y13383140D01*
X14163198Y13402802D01*
X14182860Y13420622D01*
X14204174Y13436429D01*
X14226934Y13450072D01*
X14250922Y13461417D01*
X14275907Y13470357D01*
X14301648Y13476804D01*
X14327896Y13480698D01*
X14354400Y13482000D01*
X15665600Y13482000D01*
X15692104Y13480698D01*
X15692104Y13480698D01*
G37*
D19*
X15010000Y12806000D03*
D10*
G36*
X15692104Y10680698D02*
X15718352Y10676804D01*
X15744093Y10670357D01*
X15769078Y10661417D01*
X15793066Y10650072D01*
X15815826Y10636429D01*
X15837140Y10620622D01*
X15856802Y10602802D01*
X15874622Y10583140D01*
X15890429Y10561826D01*
X15904072Y10539066D01*
X15915417Y10515078D01*
X15924357Y10490093D01*
X15930804Y10464352D01*
X15934698Y10438104D01*
X15936000Y10411600D01*
X15936000Y9600400D01*
X15934698Y9573896D01*
X15930804Y9547648D01*
X15924357Y9521907D01*
X15915417Y9496922D01*
X15904072Y9472934D01*
X15890429Y9450174D01*
X15874622Y9428860D01*
X15856802Y9409198D01*
X15837140Y9391378D01*
X15815826Y9375571D01*
X15793066Y9361928D01*
X15769078Y9350583D01*
X15744093Y9341643D01*
X15718352Y9335196D01*
X15692104Y9331302D01*
X15665600Y9330000D01*
X14354400Y9330000D01*
X14327896Y9331302D01*
X14301648Y9335196D01*
X14275907Y9341643D01*
X14250922Y9350583D01*
X14226934Y9361928D01*
X14204174Y9375571D01*
X14182860Y9391378D01*
X14163198Y9409198D01*
X14145378Y9428860D01*
X14129571Y9450174D01*
X14115928Y9472934D01*
X14104583Y9496922D01*
X14095643Y9521907D01*
X14089196Y9547648D01*
X14085302Y9573896D01*
X14084000Y9600400D01*
X14084000Y10411600D01*
X14085302Y10438104D01*
X14089196Y10464352D01*
X14095643Y10490093D01*
X14104583Y10515078D01*
X14115928Y10539066D01*
X14129571Y10561826D01*
X14145378Y10583140D01*
X14163198Y10602802D01*
X14182860Y10620622D01*
X14204174Y10636429D01*
X14226934Y10650072D01*
X14250922Y10661417D01*
X14275907Y10670357D01*
X14301648Y10676804D01*
X14327896Y10680698D01*
X14354400Y10682000D01*
X15665600Y10682000D01*
X15692104Y10680698D01*
X15692104Y10680698D01*
G37*
D19*
X15010000Y10006000D03*
G04 #@! TD*
D20*
G04 #@! TO.C,U2*
X21177000Y22855000D03*
X20527000Y22855000D03*
X21817000Y22855000D03*
X22457000Y22855000D03*
X23097000Y22855000D03*
X23737000Y22855000D03*
X24377000Y22855000D03*
X19887000Y22855000D03*
X19247000Y22855000D03*
X18607000Y22855000D03*
X17967000Y22855000D03*
X17327000Y22855000D03*
X21177000Y15705000D03*
X21817000Y15705000D03*
X22457000Y15705000D03*
X23097000Y15705000D03*
X23737000Y15705000D03*
X24377000Y15705000D03*
X20527000Y15705000D03*
X19887000Y15705000D03*
X19247000Y15705000D03*
X18607000Y15705000D03*
X17967000Y15705000D03*
X17327000Y15705000D03*
G04 #@! TD*
D10*
G04 #@! TO.C,C6*
G36*
X20852141Y13388703D02*
X20878278Y13384826D01*
X20903909Y13378406D01*
X20928788Y13369505D01*
X20952674Y13358207D01*
X20975337Y13344623D01*
X20996560Y13328883D01*
X21016139Y13311139D01*
X21033883Y13291560D01*
X21049623Y13270337D01*
X21063207Y13247674D01*
X21074505Y13223788D01*
X21083406Y13198909D01*
X21089826Y13173278D01*
X21093703Y13147141D01*
X21095000Y13120750D01*
X21095000Y12582250D01*
X21093703Y12555859D01*
X21089826Y12529722D01*
X21083406Y12504091D01*
X21074505Y12479212D01*
X21063207Y12455326D01*
X21049623Y12432663D01*
X21033883Y12411440D01*
X21016139Y12391861D01*
X20996560Y12374117D01*
X20975337Y12358377D01*
X20952674Y12344793D01*
X20928788Y12333495D01*
X20903909Y12324594D01*
X20878278Y12318174D01*
X20852141Y12314297D01*
X20825750Y12313000D01*
X19862250Y12313000D01*
X19835859Y12314297D01*
X19809722Y12318174D01*
X19784091Y12324594D01*
X19759212Y12333495D01*
X19735326Y12344793D01*
X19712663Y12358377D01*
X19691440Y12374117D01*
X19671861Y12391861D01*
X19654117Y12411440D01*
X19638377Y12432663D01*
X19624793Y12455326D01*
X19613495Y12479212D01*
X19604594Y12504091D01*
X19598174Y12529722D01*
X19594297Y12555859D01*
X19593000Y12582250D01*
X19593000Y13120750D01*
X19594297Y13147141D01*
X19598174Y13173278D01*
X19604594Y13198909D01*
X19613495Y13223788D01*
X19624793Y13247674D01*
X19638377Y13270337D01*
X19654117Y13291560D01*
X19671861Y13311139D01*
X19691440Y13328883D01*
X19712663Y13344623D01*
X19735326Y13358207D01*
X19759212Y13369505D01*
X19784091Y13378406D01*
X19809722Y13384826D01*
X19835859Y13388703D01*
X19862250Y13390000D01*
X20825750Y13390000D01*
X20852141Y13388703D01*
X20852141Y13388703D01*
G37*
D16*
X20344000Y12851500D03*
D10*
G36*
X20852141Y11513703D02*
X20878278Y11509826D01*
X20903909Y11503406D01*
X20928788Y11494505D01*
X20952674Y11483207D01*
X20975337Y11469623D01*
X20996560Y11453883D01*
X21016139Y11436139D01*
X21033883Y11416560D01*
X21049623Y11395337D01*
X21063207Y11372674D01*
X21074505Y11348788D01*
X21083406Y11323909D01*
X21089826Y11298278D01*
X21093703Y11272141D01*
X21095000Y11245750D01*
X21095000Y10707250D01*
X21093703Y10680859D01*
X21089826Y10654722D01*
X21083406Y10629091D01*
X21074505Y10604212D01*
X21063207Y10580326D01*
X21049623Y10557663D01*
X21033883Y10536440D01*
X21016139Y10516861D01*
X20996560Y10499117D01*
X20975337Y10483377D01*
X20952674Y10469793D01*
X20928788Y10458495D01*
X20903909Y10449594D01*
X20878278Y10443174D01*
X20852141Y10439297D01*
X20825750Y10438000D01*
X19862250Y10438000D01*
X19835859Y10439297D01*
X19809722Y10443174D01*
X19784091Y10449594D01*
X19759212Y10458495D01*
X19735326Y10469793D01*
X19712663Y10483377D01*
X19691440Y10499117D01*
X19671861Y10516861D01*
X19654117Y10536440D01*
X19638377Y10557663D01*
X19624793Y10580326D01*
X19613495Y10604212D01*
X19604594Y10629091D01*
X19598174Y10654722D01*
X19594297Y10680859D01*
X19593000Y10707250D01*
X19593000Y11245750D01*
X19594297Y11272141D01*
X19598174Y11298278D01*
X19604594Y11323909D01*
X19613495Y11348788D01*
X19624793Y11372674D01*
X19638377Y11395337D01*
X19654117Y11416560D01*
X19671861Y11436139D01*
X19691440Y11453883D01*
X19712663Y11469623D01*
X19735326Y11483207D01*
X19759212Y11494505D01*
X19784091Y11503406D01*
X19809722Y11509826D01*
X19835859Y11513703D01*
X19862250Y11515000D01*
X20825750Y11515000D01*
X20852141Y11513703D01*
X20852141Y11513703D01*
G37*
D16*
X20344000Y10976500D03*
G04 #@! TD*
D14*
G04 #@! TO.C,J3*
X15772000Y28043000D03*
D15*
X18312000Y28043000D03*
X20852000Y28043000D03*
X23392000Y28043000D03*
X25932000Y28043000D03*
G04 #@! TD*
D14*
G04 #@! TO.C,J1*
X34060000Y13184000D03*
D15*
X34060000Y10644000D03*
X31520000Y13184000D03*
X31520000Y10644000D03*
X28980000Y13184000D03*
X28980000Y10644000D03*
G04 #@! TD*
D14*
G04 #@! TO.C,J4*
X34060000Y24868000D03*
D15*
X34060000Y22328000D03*
X34060000Y19788000D03*
X34060000Y17248000D03*
G04 #@! TD*
D21*
G04 #@! TO.C,SW4*
X37512000Y6580000D03*
X37512000Y2080000D03*
X31012000Y6580000D03*
X31012000Y2080000D03*
G04 #@! TD*
G04 #@! TO.C,SW3*
X21360000Y2080000D03*
X21360000Y6580000D03*
X27860000Y2080000D03*
X27860000Y6580000D03*
G04 #@! TD*
D10*
G04 #@! TO.C,C3*
G36*
X6374141Y12372703D02*
X6400278Y12368826D01*
X6425909Y12362406D01*
X6450788Y12353505D01*
X6474674Y12342207D01*
X6497337Y12328623D01*
X6518560Y12312883D01*
X6538139Y12295139D01*
X6555883Y12275560D01*
X6571623Y12254337D01*
X6585207Y12231674D01*
X6596505Y12207788D01*
X6605406Y12182909D01*
X6611826Y12157278D01*
X6615703Y12131141D01*
X6617000Y12104750D01*
X6617000Y11566250D01*
X6615703Y11539859D01*
X6611826Y11513722D01*
X6605406Y11488091D01*
X6596505Y11463212D01*
X6585207Y11439326D01*
X6571623Y11416663D01*
X6555883Y11395440D01*
X6538139Y11375861D01*
X6518560Y11358117D01*
X6497337Y11342377D01*
X6474674Y11328793D01*
X6450788Y11317495D01*
X6425909Y11308594D01*
X6400278Y11302174D01*
X6374141Y11298297D01*
X6347750Y11297000D01*
X5384250Y11297000D01*
X5357859Y11298297D01*
X5331722Y11302174D01*
X5306091Y11308594D01*
X5281212Y11317495D01*
X5257326Y11328793D01*
X5234663Y11342377D01*
X5213440Y11358117D01*
X5193861Y11375861D01*
X5176117Y11395440D01*
X5160377Y11416663D01*
X5146793Y11439326D01*
X5135495Y11463212D01*
X5126594Y11488091D01*
X5120174Y11513722D01*
X5116297Y11539859D01*
X5115000Y11566250D01*
X5115000Y12104750D01*
X5116297Y12131141D01*
X5120174Y12157278D01*
X5126594Y12182909D01*
X5135495Y12207788D01*
X5146793Y12231674D01*
X5160377Y12254337D01*
X5176117Y12275560D01*
X5193861Y12295139D01*
X5213440Y12312883D01*
X5234663Y12328623D01*
X5257326Y12342207D01*
X5281212Y12353505D01*
X5306091Y12362406D01*
X5331722Y12368826D01*
X5357859Y12372703D01*
X5384250Y12374000D01*
X6347750Y12374000D01*
X6374141Y12372703D01*
X6374141Y12372703D01*
G37*
D16*
X5866000Y11835500D03*
D10*
G36*
X6374141Y10497703D02*
X6400278Y10493826D01*
X6425909Y10487406D01*
X6450788Y10478505D01*
X6474674Y10467207D01*
X6497337Y10453623D01*
X6518560Y10437883D01*
X6538139Y10420139D01*
X6555883Y10400560D01*
X6571623Y10379337D01*
X6585207Y10356674D01*
X6596505Y10332788D01*
X6605406Y10307909D01*
X6611826Y10282278D01*
X6615703Y10256141D01*
X6617000Y10229750D01*
X6617000Y9691250D01*
X6615703Y9664859D01*
X6611826Y9638722D01*
X6605406Y9613091D01*
X6596505Y9588212D01*
X6585207Y9564326D01*
X6571623Y9541663D01*
X6555883Y9520440D01*
X6538139Y9500861D01*
X6518560Y9483117D01*
X6497337Y9467377D01*
X6474674Y9453793D01*
X6450788Y9442495D01*
X6425909Y9433594D01*
X6400278Y9427174D01*
X6374141Y9423297D01*
X6347750Y9422000D01*
X5384250Y9422000D01*
X5357859Y9423297D01*
X5331722Y9427174D01*
X5306091Y9433594D01*
X5281212Y9442495D01*
X5257326Y9453793D01*
X5234663Y9467377D01*
X5213440Y9483117D01*
X5193861Y9500861D01*
X5176117Y9520440D01*
X5160377Y9541663D01*
X5146793Y9564326D01*
X5135495Y9588212D01*
X5126594Y9613091D01*
X5120174Y9638722D01*
X5116297Y9664859D01*
X5115000Y9691250D01*
X5115000Y10229750D01*
X5116297Y10256141D01*
X5120174Y10282278D01*
X5126594Y10307909D01*
X5135495Y10332788D01*
X5146793Y10356674D01*
X5160377Y10379337D01*
X5176117Y10400560D01*
X5193861Y10420139D01*
X5213440Y10437883D01*
X5234663Y10453623D01*
X5257326Y10467207D01*
X5281212Y10478505D01*
X5306091Y10487406D01*
X5331722Y10493826D01*
X5357859Y10497703D01*
X5384250Y10499000D01*
X6347750Y10499000D01*
X6374141Y10497703D01*
X6374141Y10497703D01*
G37*
D16*
X5866000Y9960500D03*
G04 #@! TD*
D22*
G04 #@! TO.C,U1*
X10698000Y23530000D03*
X9898000Y23530000D03*
X9098000Y23530000D03*
X8298000Y23530000D03*
X7498000Y23530000D03*
X6698000Y23530000D03*
X5898000Y23530000D03*
X5098000Y23530000D03*
D23*
X3648000Y22080000D03*
X3648000Y21280000D03*
X3648000Y20480000D03*
X3648000Y19680000D03*
X3648000Y18880000D03*
X3648000Y18080000D03*
X3648000Y17280000D03*
X3648000Y16480000D03*
D22*
X5098000Y15030000D03*
X5898000Y15030000D03*
X6698000Y15030000D03*
X7498000Y15030000D03*
X8298000Y15030000D03*
X9098000Y15030000D03*
X9898000Y15030000D03*
X10698000Y15030000D03*
D23*
X12148000Y16480000D03*
X12148000Y17280000D03*
X12148000Y18080000D03*
X12148000Y18880000D03*
X12148000Y19680000D03*
X12148000Y20480000D03*
X12148000Y21280000D03*
X12148000Y22080000D03*
G04 #@! TD*
D10*
G04 #@! TO.C,D1*
G36*
X31610141Y28665703D02*
X31636278Y28661826D01*
X31661909Y28655406D01*
X31686788Y28646505D01*
X31710674Y28635207D01*
X31733337Y28621623D01*
X31754560Y28605883D01*
X31774139Y28588139D01*
X31791883Y28568560D01*
X31807623Y28547337D01*
X31821207Y28524674D01*
X31832505Y28500788D01*
X31841406Y28475909D01*
X31847826Y28450278D01*
X31851703Y28424141D01*
X31853000Y28397750D01*
X31853000Y27434250D01*
X31851703Y27407859D01*
X31847826Y27381722D01*
X31841406Y27356091D01*
X31832505Y27331212D01*
X31821207Y27307326D01*
X31807623Y27284663D01*
X31791883Y27263440D01*
X31774139Y27243861D01*
X31754560Y27226117D01*
X31733337Y27210377D01*
X31710674Y27196793D01*
X31686788Y27185495D01*
X31661909Y27176594D01*
X31636278Y27170174D01*
X31610141Y27166297D01*
X31583750Y27165000D01*
X31045250Y27165000D01*
X31018859Y27166297D01*
X30992722Y27170174D01*
X30967091Y27176594D01*
X30942212Y27185495D01*
X30918326Y27196793D01*
X30895663Y27210377D01*
X30874440Y27226117D01*
X30854861Y27243861D01*
X30837117Y27263440D01*
X30821377Y27284663D01*
X30807793Y27307326D01*
X30796495Y27331212D01*
X30787594Y27356091D01*
X30781174Y27381722D01*
X30777297Y27407859D01*
X30776000Y27434250D01*
X30776000Y28397750D01*
X30777297Y28424141D01*
X30781174Y28450278D01*
X30787594Y28475909D01*
X30796495Y28500788D01*
X30807793Y28524674D01*
X30821377Y28547337D01*
X30837117Y28568560D01*
X30854861Y28588139D01*
X30874440Y28605883D01*
X30895663Y28621623D01*
X30918326Y28635207D01*
X30942212Y28646505D01*
X30967091Y28655406D01*
X30992722Y28661826D01*
X31018859Y28665703D01*
X31045250Y28667000D01*
X31583750Y28667000D01*
X31610141Y28665703D01*
X31610141Y28665703D01*
G37*
D16*
X31314500Y27916000D03*
D10*
G36*
X29735141Y28665703D02*
X29761278Y28661826D01*
X29786909Y28655406D01*
X29811788Y28646505D01*
X29835674Y28635207D01*
X29858337Y28621623D01*
X29879560Y28605883D01*
X29899139Y28588139D01*
X29916883Y28568560D01*
X29932623Y28547337D01*
X29946207Y28524674D01*
X29957505Y28500788D01*
X29966406Y28475909D01*
X29972826Y28450278D01*
X29976703Y28424141D01*
X29978000Y28397750D01*
X29978000Y27434250D01*
X29976703Y27407859D01*
X29972826Y27381722D01*
X29966406Y27356091D01*
X29957505Y27331212D01*
X29946207Y27307326D01*
X29932623Y27284663D01*
X29916883Y27263440D01*
X29899139Y27243861D01*
X29879560Y27226117D01*
X29858337Y27210377D01*
X29835674Y27196793D01*
X29811788Y27185495D01*
X29786909Y27176594D01*
X29761278Y27170174D01*
X29735141Y27166297D01*
X29708750Y27165000D01*
X29170250Y27165000D01*
X29143859Y27166297D01*
X29117722Y27170174D01*
X29092091Y27176594D01*
X29067212Y27185495D01*
X29043326Y27196793D01*
X29020663Y27210377D01*
X28999440Y27226117D01*
X28979861Y27243861D01*
X28962117Y27263440D01*
X28946377Y27284663D01*
X28932793Y27307326D01*
X28921495Y27331212D01*
X28912594Y27356091D01*
X28906174Y27381722D01*
X28902297Y27407859D01*
X28901000Y27434250D01*
X28901000Y28397750D01*
X28902297Y28424141D01*
X28906174Y28450278D01*
X28912594Y28475909D01*
X28921495Y28500788D01*
X28932793Y28524674D01*
X28946377Y28547337D01*
X28962117Y28568560D01*
X28979861Y28588139D01*
X28999440Y28605883D01*
X29020663Y28621623D01*
X29043326Y28635207D01*
X29067212Y28646505D01*
X29092091Y28655406D01*
X29117722Y28661826D01*
X29143859Y28665703D01*
X29170250Y28667000D01*
X29708750Y28667000D01*
X29735141Y28665703D01*
X29735141Y28665703D01*
G37*
D16*
X29439500Y27916000D03*
G04 #@! TD*
D10*
G04 #@! TO.C,C1*
G36*
X10438141Y12372703D02*
X10464278Y12368826D01*
X10489909Y12362406D01*
X10514788Y12353505D01*
X10538674Y12342207D01*
X10561337Y12328623D01*
X10582560Y12312883D01*
X10602139Y12295139D01*
X10619883Y12275560D01*
X10635623Y12254337D01*
X10649207Y12231674D01*
X10660505Y12207788D01*
X10669406Y12182909D01*
X10675826Y12157278D01*
X10679703Y12131141D01*
X10681000Y12104750D01*
X10681000Y11566250D01*
X10679703Y11539859D01*
X10675826Y11513722D01*
X10669406Y11488091D01*
X10660505Y11463212D01*
X10649207Y11439326D01*
X10635623Y11416663D01*
X10619883Y11395440D01*
X10602139Y11375861D01*
X10582560Y11358117D01*
X10561337Y11342377D01*
X10538674Y11328793D01*
X10514788Y11317495D01*
X10489909Y11308594D01*
X10464278Y11302174D01*
X10438141Y11298297D01*
X10411750Y11297000D01*
X9448250Y11297000D01*
X9421859Y11298297D01*
X9395722Y11302174D01*
X9370091Y11308594D01*
X9345212Y11317495D01*
X9321326Y11328793D01*
X9298663Y11342377D01*
X9277440Y11358117D01*
X9257861Y11375861D01*
X9240117Y11395440D01*
X9224377Y11416663D01*
X9210793Y11439326D01*
X9199495Y11463212D01*
X9190594Y11488091D01*
X9184174Y11513722D01*
X9180297Y11539859D01*
X9179000Y11566250D01*
X9179000Y12104750D01*
X9180297Y12131141D01*
X9184174Y12157278D01*
X9190594Y12182909D01*
X9199495Y12207788D01*
X9210793Y12231674D01*
X9224377Y12254337D01*
X9240117Y12275560D01*
X9257861Y12295139D01*
X9277440Y12312883D01*
X9298663Y12328623D01*
X9321326Y12342207D01*
X9345212Y12353505D01*
X9370091Y12362406D01*
X9395722Y12368826D01*
X9421859Y12372703D01*
X9448250Y12374000D01*
X10411750Y12374000D01*
X10438141Y12372703D01*
X10438141Y12372703D01*
G37*
D16*
X9930000Y11835500D03*
D10*
G36*
X10438141Y10497703D02*
X10464278Y10493826D01*
X10489909Y10487406D01*
X10514788Y10478505D01*
X10538674Y10467207D01*
X10561337Y10453623D01*
X10582560Y10437883D01*
X10602139Y10420139D01*
X10619883Y10400560D01*
X10635623Y10379337D01*
X10649207Y10356674D01*
X10660505Y10332788D01*
X10669406Y10307909D01*
X10675826Y10282278D01*
X10679703Y10256141D01*
X10681000Y10229750D01*
X10681000Y9691250D01*
X10679703Y9664859D01*
X10675826Y9638722D01*
X10669406Y9613091D01*
X10660505Y9588212D01*
X10649207Y9564326D01*
X10635623Y9541663D01*
X10619883Y9520440D01*
X10602139Y9500861D01*
X10582560Y9483117D01*
X10561337Y9467377D01*
X10538674Y9453793D01*
X10514788Y9442495D01*
X10489909Y9433594D01*
X10464278Y9427174D01*
X10438141Y9423297D01*
X10411750Y9422000D01*
X9448250Y9422000D01*
X9421859Y9423297D01*
X9395722Y9427174D01*
X9370091Y9433594D01*
X9345212Y9442495D01*
X9321326Y9453793D01*
X9298663Y9467377D01*
X9277440Y9483117D01*
X9257861Y9500861D01*
X9240117Y9520440D01*
X9224377Y9541663D01*
X9210793Y9564326D01*
X9199495Y9588212D01*
X9190594Y9613091D01*
X9184174Y9638722D01*
X9180297Y9664859D01*
X9179000Y9691250D01*
X9179000Y10229750D01*
X9180297Y10256141D01*
X9184174Y10282278D01*
X9190594Y10307909D01*
X9199495Y10332788D01*
X9210793Y10356674D01*
X9224377Y10379337D01*
X9240117Y10400560D01*
X9257861Y10420139D01*
X9277440Y10437883D01*
X9298663Y10453623D01*
X9321326Y10467207D01*
X9345212Y10478505D01*
X9370091Y10487406D01*
X9395722Y10493826D01*
X9421859Y10497703D01*
X9448250Y10499000D01*
X10411750Y10499000D01*
X10438141Y10497703D01*
X10438141Y10497703D01*
G37*
D16*
X9930000Y9960500D03*
G04 #@! TD*
D10*
G04 #@! TO.C,C2*
G36*
X11708141Y27261703D02*
X11734278Y27257826D01*
X11759909Y27251406D01*
X11784788Y27242505D01*
X11808674Y27231207D01*
X11831337Y27217623D01*
X11852560Y27201883D01*
X11872139Y27184139D01*
X11889883Y27164560D01*
X11905623Y27143337D01*
X11919207Y27120674D01*
X11930505Y27096788D01*
X11939406Y27071909D01*
X11945826Y27046278D01*
X11949703Y27020141D01*
X11951000Y26993750D01*
X11951000Y26455250D01*
X11949703Y26428859D01*
X11945826Y26402722D01*
X11939406Y26377091D01*
X11930505Y26352212D01*
X11919207Y26328326D01*
X11905623Y26305663D01*
X11889883Y26284440D01*
X11872139Y26264861D01*
X11852560Y26247117D01*
X11831337Y26231377D01*
X11808674Y26217793D01*
X11784788Y26206495D01*
X11759909Y26197594D01*
X11734278Y26191174D01*
X11708141Y26187297D01*
X11681750Y26186000D01*
X10718250Y26186000D01*
X10691859Y26187297D01*
X10665722Y26191174D01*
X10640091Y26197594D01*
X10615212Y26206495D01*
X10591326Y26217793D01*
X10568663Y26231377D01*
X10547440Y26247117D01*
X10527861Y26264861D01*
X10510117Y26284440D01*
X10494377Y26305663D01*
X10480793Y26328326D01*
X10469495Y26352212D01*
X10460594Y26377091D01*
X10454174Y26402722D01*
X10450297Y26428859D01*
X10449000Y26455250D01*
X10449000Y26993750D01*
X10450297Y27020141D01*
X10454174Y27046278D01*
X10460594Y27071909D01*
X10469495Y27096788D01*
X10480793Y27120674D01*
X10494377Y27143337D01*
X10510117Y27164560D01*
X10527861Y27184139D01*
X10547440Y27201883D01*
X10568663Y27217623D01*
X10591326Y27231207D01*
X10615212Y27242505D01*
X10640091Y27251406D01*
X10665722Y27257826D01*
X10691859Y27261703D01*
X10718250Y27263000D01*
X11681750Y27263000D01*
X11708141Y27261703D01*
X11708141Y27261703D01*
G37*
D16*
X11200000Y26724500D03*
D10*
G36*
X11708141Y29136703D02*
X11734278Y29132826D01*
X11759909Y29126406D01*
X11784788Y29117505D01*
X11808674Y29106207D01*
X11831337Y29092623D01*
X11852560Y29076883D01*
X11872139Y29059139D01*
X11889883Y29039560D01*
X11905623Y29018337D01*
X11919207Y28995674D01*
X11930505Y28971788D01*
X11939406Y28946909D01*
X11945826Y28921278D01*
X11949703Y28895141D01*
X11951000Y28868750D01*
X11951000Y28330250D01*
X11949703Y28303859D01*
X11945826Y28277722D01*
X11939406Y28252091D01*
X11930505Y28227212D01*
X11919207Y28203326D01*
X11905623Y28180663D01*
X11889883Y28159440D01*
X11872139Y28139861D01*
X11852560Y28122117D01*
X11831337Y28106377D01*
X11808674Y28092793D01*
X11784788Y28081495D01*
X11759909Y28072594D01*
X11734278Y28066174D01*
X11708141Y28062297D01*
X11681750Y28061000D01*
X10718250Y28061000D01*
X10691859Y28062297D01*
X10665722Y28066174D01*
X10640091Y28072594D01*
X10615212Y28081495D01*
X10591326Y28092793D01*
X10568663Y28106377D01*
X10547440Y28122117D01*
X10527861Y28139861D01*
X10510117Y28159440D01*
X10494377Y28180663D01*
X10480793Y28203326D01*
X10469495Y28227212D01*
X10460594Y28252091D01*
X10454174Y28277722D01*
X10450297Y28303859D01*
X10449000Y28330250D01*
X10449000Y28868750D01*
X10450297Y28895141D01*
X10454174Y28921278D01*
X10460594Y28946909D01*
X10469495Y28971788D01*
X10480793Y28995674D01*
X10494377Y29018337D01*
X10510117Y29039560D01*
X10527861Y29059139D01*
X10547440Y29076883D01*
X10568663Y29092623D01*
X10591326Y29106207D01*
X10615212Y29117505D01*
X10640091Y29126406D01*
X10665722Y29132826D01*
X10691859Y29136703D01*
X10718250Y29138000D01*
X11681750Y29138000D01*
X11708141Y29136703D01*
X11708141Y29136703D01*
G37*
D16*
X11200000Y28599500D03*
G04 #@! TD*
D10*
G04 #@! TO.C,R1*
G36*
X25932141Y11513703D02*
X25958278Y11509826D01*
X25983909Y11503406D01*
X26008788Y11494505D01*
X26032674Y11483207D01*
X26055337Y11469623D01*
X26076560Y11453883D01*
X26096139Y11436139D01*
X26113883Y11416560D01*
X26129623Y11395337D01*
X26143207Y11372674D01*
X26154505Y11348788D01*
X26163406Y11323909D01*
X26169826Y11298278D01*
X26173703Y11272141D01*
X26175000Y11245750D01*
X26175000Y10707250D01*
X26173703Y10680859D01*
X26169826Y10654722D01*
X26163406Y10629091D01*
X26154505Y10604212D01*
X26143207Y10580326D01*
X26129623Y10557663D01*
X26113883Y10536440D01*
X26096139Y10516861D01*
X26076560Y10499117D01*
X26055337Y10483377D01*
X26032674Y10469793D01*
X26008788Y10458495D01*
X25983909Y10449594D01*
X25958278Y10443174D01*
X25932141Y10439297D01*
X25905750Y10438000D01*
X24942250Y10438000D01*
X24915859Y10439297D01*
X24889722Y10443174D01*
X24864091Y10449594D01*
X24839212Y10458495D01*
X24815326Y10469793D01*
X24792663Y10483377D01*
X24771440Y10499117D01*
X24751861Y10516861D01*
X24734117Y10536440D01*
X24718377Y10557663D01*
X24704793Y10580326D01*
X24693495Y10604212D01*
X24684594Y10629091D01*
X24678174Y10654722D01*
X24674297Y10680859D01*
X24673000Y10707250D01*
X24673000Y11245750D01*
X24674297Y11272141D01*
X24678174Y11298278D01*
X24684594Y11323909D01*
X24693495Y11348788D01*
X24704793Y11372674D01*
X24718377Y11395337D01*
X24734117Y11416560D01*
X24751861Y11436139D01*
X24771440Y11453883D01*
X24792663Y11469623D01*
X24815326Y11483207D01*
X24839212Y11494505D01*
X24864091Y11503406D01*
X24889722Y11509826D01*
X24915859Y11513703D01*
X24942250Y11515000D01*
X25905750Y11515000D01*
X25932141Y11513703D01*
X25932141Y11513703D01*
G37*
D16*
X25424000Y10976500D03*
D10*
G36*
X25932141Y13388703D02*
X25958278Y13384826D01*
X25983909Y13378406D01*
X26008788Y13369505D01*
X26032674Y13358207D01*
X26055337Y13344623D01*
X26076560Y13328883D01*
X26096139Y13311139D01*
X26113883Y13291560D01*
X26129623Y13270337D01*
X26143207Y13247674D01*
X26154505Y13223788D01*
X26163406Y13198909D01*
X26169826Y13173278D01*
X26173703Y13147141D01*
X26175000Y13120750D01*
X26175000Y12582250D01*
X26173703Y12555859D01*
X26169826Y12529722D01*
X26163406Y12504091D01*
X26154505Y12479212D01*
X26143207Y12455326D01*
X26129623Y12432663D01*
X26113883Y12411440D01*
X26096139Y12391861D01*
X26076560Y12374117D01*
X26055337Y12358377D01*
X26032674Y12344793D01*
X26008788Y12333495D01*
X25983909Y12324594D01*
X25958278Y12318174D01*
X25932141Y12314297D01*
X25905750Y12313000D01*
X24942250Y12313000D01*
X24915859Y12314297D01*
X24889722Y12318174D01*
X24864091Y12324594D01*
X24839212Y12333495D01*
X24815326Y12344793D01*
X24792663Y12358377D01*
X24771440Y12374117D01*
X24751861Y12391861D01*
X24734117Y12411440D01*
X24718377Y12432663D01*
X24704793Y12455326D01*
X24693495Y12479212D01*
X24684594Y12504091D01*
X24678174Y12529722D01*
X24674297Y12555859D01*
X24673000Y12582250D01*
X24673000Y13120750D01*
X24674297Y13147141D01*
X24678174Y13173278D01*
X24684594Y13198909D01*
X24693495Y13223788D01*
X24704793Y13247674D01*
X24718377Y13270337D01*
X24734117Y13291560D01*
X24751861Y13311139D01*
X24771440Y13328883D01*
X24792663Y13344623D01*
X24815326Y13358207D01*
X24839212Y13369505D01*
X24864091Y13378406D01*
X24889722Y13384826D01*
X24915859Y13388703D01*
X24942250Y13390000D01*
X25905750Y13390000D01*
X25932141Y13388703D01*
X25932141Y13388703D01*
G37*
D16*
X25424000Y12851500D03*
G04 #@! TD*
D10*
G04 #@! TO.C,R2*
G36*
X27830141Y24347703D02*
X27856278Y24343826D01*
X27881909Y24337406D01*
X27906788Y24328505D01*
X27930674Y24317207D01*
X27953337Y24303623D01*
X27974560Y24287883D01*
X27994139Y24270139D01*
X28011883Y24250560D01*
X28027623Y24229337D01*
X28041207Y24206674D01*
X28052505Y24182788D01*
X28061406Y24157909D01*
X28067826Y24132278D01*
X28071703Y24106141D01*
X28073000Y24079750D01*
X28073000Y23116250D01*
X28071703Y23089859D01*
X28067826Y23063722D01*
X28061406Y23038091D01*
X28052505Y23013212D01*
X28041207Y22989326D01*
X28027623Y22966663D01*
X28011883Y22945440D01*
X27994139Y22925861D01*
X27974560Y22908117D01*
X27953337Y22892377D01*
X27930674Y22878793D01*
X27906788Y22867495D01*
X27881909Y22858594D01*
X27856278Y22852174D01*
X27830141Y22848297D01*
X27803750Y22847000D01*
X27265250Y22847000D01*
X27238859Y22848297D01*
X27212722Y22852174D01*
X27187091Y22858594D01*
X27162212Y22867495D01*
X27138326Y22878793D01*
X27115663Y22892377D01*
X27094440Y22908117D01*
X27074861Y22925861D01*
X27057117Y22945440D01*
X27041377Y22966663D01*
X27027793Y22989326D01*
X27016495Y23013212D01*
X27007594Y23038091D01*
X27001174Y23063722D01*
X26997297Y23089859D01*
X26996000Y23116250D01*
X26996000Y24079750D01*
X26997297Y24106141D01*
X27001174Y24132278D01*
X27007594Y24157909D01*
X27016495Y24182788D01*
X27027793Y24206674D01*
X27041377Y24229337D01*
X27057117Y24250560D01*
X27074861Y24270139D01*
X27094440Y24287883D01*
X27115663Y24303623D01*
X27138326Y24317207D01*
X27162212Y24328505D01*
X27187091Y24337406D01*
X27212722Y24343826D01*
X27238859Y24347703D01*
X27265250Y24349000D01*
X27803750Y24349000D01*
X27830141Y24347703D01*
X27830141Y24347703D01*
G37*
D16*
X27534500Y23598000D03*
D10*
G36*
X29705141Y24347703D02*
X29731278Y24343826D01*
X29756909Y24337406D01*
X29781788Y24328505D01*
X29805674Y24317207D01*
X29828337Y24303623D01*
X29849560Y24287883D01*
X29869139Y24270139D01*
X29886883Y24250560D01*
X29902623Y24229337D01*
X29916207Y24206674D01*
X29927505Y24182788D01*
X29936406Y24157909D01*
X29942826Y24132278D01*
X29946703Y24106141D01*
X29948000Y24079750D01*
X29948000Y23116250D01*
X29946703Y23089859D01*
X29942826Y23063722D01*
X29936406Y23038091D01*
X29927505Y23013212D01*
X29916207Y22989326D01*
X29902623Y22966663D01*
X29886883Y22945440D01*
X29869139Y22925861D01*
X29849560Y22908117D01*
X29828337Y22892377D01*
X29805674Y22878793D01*
X29781788Y22867495D01*
X29756909Y22858594D01*
X29731278Y22852174D01*
X29705141Y22848297D01*
X29678750Y22847000D01*
X29140250Y22847000D01*
X29113859Y22848297D01*
X29087722Y22852174D01*
X29062091Y22858594D01*
X29037212Y22867495D01*
X29013326Y22878793D01*
X28990663Y22892377D01*
X28969440Y22908117D01*
X28949861Y22925861D01*
X28932117Y22945440D01*
X28916377Y22966663D01*
X28902793Y22989326D01*
X28891495Y23013212D01*
X28882594Y23038091D01*
X28876174Y23063722D01*
X28872297Y23089859D01*
X28871000Y23116250D01*
X28871000Y24079750D01*
X28872297Y24106141D01*
X28876174Y24132278D01*
X28882594Y24157909D01*
X28891495Y24182788D01*
X28902793Y24206674D01*
X28916377Y24229337D01*
X28932117Y24250560D01*
X28949861Y24270139D01*
X28969440Y24287883D01*
X28990663Y24303623D01*
X29013326Y24317207D01*
X29037212Y24328505D01*
X29062091Y24337406D01*
X29087722Y24343826D01*
X29113859Y24347703D01*
X29140250Y24349000D01*
X29678750Y24349000D01*
X29705141Y24347703D01*
X29705141Y24347703D01*
G37*
D16*
X29409500Y23598000D03*
G04 #@! TD*
D21*
G04 #@! TO.C,SW1*
X8556000Y6580000D03*
X8556000Y2080000D03*
X2056000Y6580000D03*
X2056000Y2080000D03*
G04 #@! TD*
G04 #@! TO.C,SW2*
X11708000Y2080000D03*
X11708000Y6580000D03*
X18208000Y2080000D03*
X18208000Y6580000D03*
G04 #@! TD*
M02*
