G04 #@! TF.GenerationSoftware,KiCad,Pcbnew,5.0.2-bee76a0~70~ubuntu16.04.1*
G04 #@! TF.CreationDate,2019-07-11T08:17:53+02:00*
G04 #@! TF.ProjectId,paste_dispenser,70617374-655f-4646-9973-70656e736572,rev?*
G04 #@! TF.SameCoordinates,PX3dfd240PY3dfd240*
G04 #@! TF.FileFunction,Paste,Top*
G04 #@! TF.FilePolarity,Positive*
%FSLAX46Y46*%
G04 Gerber Fmt 4.6, Leading zero omitted, Abs format (unit mm)*
G04 Created by KiCad (PCBNEW 5.0.2-bee76a0~70~ubuntu16.04.1) date Thu 11 Jul 2019 08:17:53 AM CEST*
%MOMM*%
%LPD*%
G01*
G04 APERTURE LIST*
%ADD10R,0.400000X3.200000*%
%ADD11C,0.100000*%
%ADD12C,0.975000*%
%ADD13R,0.900000X0.800000*%
%ADD14C,1.250000*%
%ADD15R,0.400000X1.000000*%
%ADD16R,0.550000X1.600000*%
%ADD17R,1.600000X0.550000*%
G04 APERTURE END LIST*
D10*
G04 #@! TO.C,Y1*
X3891000Y27408000D03*
X2691000Y27408000D03*
X1491000Y27408000D03*
G04 #@! TD*
D11*
G04 #@! TO.C,C4*
G36*
X7616142Y27210826D02*
X7639803Y27207316D01*
X7663007Y27201504D01*
X7685529Y27193446D01*
X7707153Y27183218D01*
X7727670Y27170921D01*
X7746883Y27156671D01*
X7764607Y27140607D01*
X7780671Y27122883D01*
X7794921Y27103670D01*
X7807218Y27083153D01*
X7817446Y27061529D01*
X7825504Y27039007D01*
X7831316Y27015803D01*
X7834826Y26992142D01*
X7836000Y26968250D01*
X7836000Y26480750D01*
X7834826Y26456858D01*
X7831316Y26433197D01*
X7825504Y26409993D01*
X7817446Y26387471D01*
X7807218Y26365847D01*
X7794921Y26345330D01*
X7780671Y26326117D01*
X7764607Y26308393D01*
X7746883Y26292329D01*
X7727670Y26278079D01*
X7707153Y26265782D01*
X7685529Y26255554D01*
X7663007Y26247496D01*
X7639803Y26241684D01*
X7616142Y26238174D01*
X7592250Y26237000D01*
X6679750Y26237000D01*
X6655858Y26238174D01*
X6632197Y26241684D01*
X6608993Y26247496D01*
X6586471Y26255554D01*
X6564847Y26265782D01*
X6544330Y26278079D01*
X6525117Y26292329D01*
X6507393Y26308393D01*
X6491329Y26326117D01*
X6477079Y26345330D01*
X6464782Y26365847D01*
X6454554Y26387471D01*
X6446496Y26409993D01*
X6440684Y26433197D01*
X6437174Y26456858D01*
X6436000Y26480750D01*
X6436000Y26968250D01*
X6437174Y26992142D01*
X6440684Y27015803D01*
X6446496Y27039007D01*
X6454554Y27061529D01*
X6464782Y27083153D01*
X6477079Y27103670D01*
X6491329Y27122883D01*
X6507393Y27140607D01*
X6525117Y27156671D01*
X6544330Y27170921D01*
X6564847Y27183218D01*
X6586471Y27193446D01*
X6608993Y27201504D01*
X6632197Y27207316D01*
X6655858Y27210826D01*
X6679750Y27212000D01*
X7592250Y27212000D01*
X7616142Y27210826D01*
X7616142Y27210826D01*
G37*
D12*
X7136000Y26724500D03*
D11*
G36*
X7616142Y29085826D02*
X7639803Y29082316D01*
X7663007Y29076504D01*
X7685529Y29068446D01*
X7707153Y29058218D01*
X7727670Y29045921D01*
X7746883Y29031671D01*
X7764607Y29015607D01*
X7780671Y28997883D01*
X7794921Y28978670D01*
X7807218Y28958153D01*
X7817446Y28936529D01*
X7825504Y28914007D01*
X7831316Y28890803D01*
X7834826Y28867142D01*
X7836000Y28843250D01*
X7836000Y28355750D01*
X7834826Y28331858D01*
X7831316Y28308197D01*
X7825504Y28284993D01*
X7817446Y28262471D01*
X7807218Y28240847D01*
X7794921Y28220330D01*
X7780671Y28201117D01*
X7764607Y28183393D01*
X7746883Y28167329D01*
X7727670Y28153079D01*
X7707153Y28140782D01*
X7685529Y28130554D01*
X7663007Y28122496D01*
X7639803Y28116684D01*
X7616142Y28113174D01*
X7592250Y28112000D01*
X6679750Y28112000D01*
X6655858Y28113174D01*
X6632197Y28116684D01*
X6608993Y28122496D01*
X6586471Y28130554D01*
X6564847Y28140782D01*
X6544330Y28153079D01*
X6525117Y28167329D01*
X6507393Y28183393D01*
X6491329Y28201117D01*
X6477079Y28220330D01*
X6464782Y28240847D01*
X6454554Y28262471D01*
X6446496Y28284993D01*
X6440684Y28308197D01*
X6437174Y28331858D01*
X6436000Y28355750D01*
X6436000Y28843250D01*
X6437174Y28867142D01*
X6440684Y28890803D01*
X6446496Y28914007D01*
X6454554Y28936529D01*
X6464782Y28958153D01*
X6477079Y28978670D01*
X6491329Y28997883D01*
X6507393Y29015607D01*
X6525117Y29031671D01*
X6544330Y29045921D01*
X6564847Y29058218D01*
X6586471Y29068446D01*
X6608993Y29076504D01*
X6632197Y29082316D01*
X6655858Y29085826D01*
X6679750Y29087000D01*
X7592250Y29087000D01*
X7616142Y29085826D01*
X7616142Y29085826D01*
G37*
D12*
X7136000Y28599500D03*
G04 #@! TD*
D13*
G04 #@! TO.C,Q1*
X27980000Y18198000D03*
X27980000Y16298000D03*
X29980000Y17248000D03*
G04 #@! TD*
D11*
G04 #@! TO.C,C5*
G36*
X15659504Y13429796D02*
X15683773Y13426196D01*
X15707571Y13420235D01*
X15730671Y13411970D01*
X15752849Y13401480D01*
X15773893Y13388867D01*
X15793598Y13374253D01*
X15811777Y13357777D01*
X15828253Y13339598D01*
X15842867Y13319893D01*
X15855480Y13298849D01*
X15865970Y13276671D01*
X15874235Y13253571D01*
X15880196Y13229773D01*
X15883796Y13205504D01*
X15885000Y13181000D01*
X15885000Y12431000D01*
X15883796Y12406496D01*
X15880196Y12382227D01*
X15874235Y12358429D01*
X15865970Y12335329D01*
X15855480Y12313151D01*
X15842867Y12292107D01*
X15828253Y12272402D01*
X15811777Y12254223D01*
X15793598Y12237747D01*
X15773893Y12223133D01*
X15752849Y12210520D01*
X15730671Y12200030D01*
X15707571Y12191765D01*
X15683773Y12185804D01*
X15659504Y12182204D01*
X15635000Y12181000D01*
X14385000Y12181000D01*
X14360496Y12182204D01*
X14336227Y12185804D01*
X14312429Y12191765D01*
X14289329Y12200030D01*
X14267151Y12210520D01*
X14246107Y12223133D01*
X14226402Y12237747D01*
X14208223Y12254223D01*
X14191747Y12272402D01*
X14177133Y12292107D01*
X14164520Y12313151D01*
X14154030Y12335329D01*
X14145765Y12358429D01*
X14139804Y12382227D01*
X14136204Y12406496D01*
X14135000Y12431000D01*
X14135000Y13181000D01*
X14136204Y13205504D01*
X14139804Y13229773D01*
X14145765Y13253571D01*
X14154030Y13276671D01*
X14164520Y13298849D01*
X14177133Y13319893D01*
X14191747Y13339598D01*
X14208223Y13357777D01*
X14226402Y13374253D01*
X14246107Y13388867D01*
X14267151Y13401480D01*
X14289329Y13411970D01*
X14312429Y13420235D01*
X14336227Y13426196D01*
X14360496Y13429796D01*
X14385000Y13431000D01*
X15635000Y13431000D01*
X15659504Y13429796D01*
X15659504Y13429796D01*
G37*
D14*
X15010000Y12806000D03*
D11*
G36*
X15659504Y10629796D02*
X15683773Y10626196D01*
X15707571Y10620235D01*
X15730671Y10611970D01*
X15752849Y10601480D01*
X15773893Y10588867D01*
X15793598Y10574253D01*
X15811777Y10557777D01*
X15828253Y10539598D01*
X15842867Y10519893D01*
X15855480Y10498849D01*
X15865970Y10476671D01*
X15874235Y10453571D01*
X15880196Y10429773D01*
X15883796Y10405504D01*
X15885000Y10381000D01*
X15885000Y9631000D01*
X15883796Y9606496D01*
X15880196Y9582227D01*
X15874235Y9558429D01*
X15865970Y9535329D01*
X15855480Y9513151D01*
X15842867Y9492107D01*
X15828253Y9472402D01*
X15811777Y9454223D01*
X15793598Y9437747D01*
X15773893Y9423133D01*
X15752849Y9410520D01*
X15730671Y9400030D01*
X15707571Y9391765D01*
X15683773Y9385804D01*
X15659504Y9382204D01*
X15635000Y9381000D01*
X14385000Y9381000D01*
X14360496Y9382204D01*
X14336227Y9385804D01*
X14312429Y9391765D01*
X14289329Y9400030D01*
X14267151Y9410520D01*
X14246107Y9423133D01*
X14226402Y9437747D01*
X14208223Y9454223D01*
X14191747Y9472402D01*
X14177133Y9492107D01*
X14164520Y9513151D01*
X14154030Y9535329D01*
X14145765Y9558429D01*
X14139804Y9582227D01*
X14136204Y9606496D01*
X14135000Y9631000D01*
X14135000Y10381000D01*
X14136204Y10405504D01*
X14139804Y10429773D01*
X14145765Y10453571D01*
X14154030Y10476671D01*
X14164520Y10498849D01*
X14177133Y10519893D01*
X14191747Y10539598D01*
X14208223Y10557777D01*
X14226402Y10574253D01*
X14246107Y10588867D01*
X14267151Y10601480D01*
X14289329Y10611970D01*
X14312429Y10620235D01*
X14336227Y10626196D01*
X14360496Y10629796D01*
X14385000Y10631000D01*
X15635000Y10631000D01*
X15659504Y10629796D01*
X15659504Y10629796D01*
G37*
D14*
X15010000Y10006000D03*
G04 #@! TD*
D15*
G04 #@! TO.C,U2*
X21177000Y22855000D03*
X20527000Y22855000D03*
X21817000Y22855000D03*
X22457000Y22855000D03*
X23097000Y22855000D03*
X23737000Y22855000D03*
X24377000Y22855000D03*
X19887000Y22855000D03*
X19247000Y22855000D03*
X18607000Y22855000D03*
X17967000Y22855000D03*
X17327000Y22855000D03*
X21177000Y15705000D03*
X21817000Y15705000D03*
X22457000Y15705000D03*
X23097000Y15705000D03*
X23737000Y15705000D03*
X24377000Y15705000D03*
X20527000Y15705000D03*
X19887000Y15705000D03*
X19247000Y15705000D03*
X18607000Y15705000D03*
X17967000Y15705000D03*
X17327000Y15705000D03*
G04 #@! TD*
D11*
G04 #@! TO.C,C6*
G36*
X20824142Y13337826D02*
X20847803Y13334316D01*
X20871007Y13328504D01*
X20893529Y13320446D01*
X20915153Y13310218D01*
X20935670Y13297921D01*
X20954883Y13283671D01*
X20972607Y13267607D01*
X20988671Y13249883D01*
X21002921Y13230670D01*
X21015218Y13210153D01*
X21025446Y13188529D01*
X21033504Y13166007D01*
X21039316Y13142803D01*
X21042826Y13119142D01*
X21044000Y13095250D01*
X21044000Y12607750D01*
X21042826Y12583858D01*
X21039316Y12560197D01*
X21033504Y12536993D01*
X21025446Y12514471D01*
X21015218Y12492847D01*
X21002921Y12472330D01*
X20988671Y12453117D01*
X20972607Y12435393D01*
X20954883Y12419329D01*
X20935670Y12405079D01*
X20915153Y12392782D01*
X20893529Y12382554D01*
X20871007Y12374496D01*
X20847803Y12368684D01*
X20824142Y12365174D01*
X20800250Y12364000D01*
X19887750Y12364000D01*
X19863858Y12365174D01*
X19840197Y12368684D01*
X19816993Y12374496D01*
X19794471Y12382554D01*
X19772847Y12392782D01*
X19752330Y12405079D01*
X19733117Y12419329D01*
X19715393Y12435393D01*
X19699329Y12453117D01*
X19685079Y12472330D01*
X19672782Y12492847D01*
X19662554Y12514471D01*
X19654496Y12536993D01*
X19648684Y12560197D01*
X19645174Y12583858D01*
X19644000Y12607750D01*
X19644000Y13095250D01*
X19645174Y13119142D01*
X19648684Y13142803D01*
X19654496Y13166007D01*
X19662554Y13188529D01*
X19672782Y13210153D01*
X19685079Y13230670D01*
X19699329Y13249883D01*
X19715393Y13267607D01*
X19733117Y13283671D01*
X19752330Y13297921D01*
X19772847Y13310218D01*
X19794471Y13320446D01*
X19816993Y13328504D01*
X19840197Y13334316D01*
X19863858Y13337826D01*
X19887750Y13339000D01*
X20800250Y13339000D01*
X20824142Y13337826D01*
X20824142Y13337826D01*
G37*
D12*
X20344000Y12851500D03*
D11*
G36*
X20824142Y11462826D02*
X20847803Y11459316D01*
X20871007Y11453504D01*
X20893529Y11445446D01*
X20915153Y11435218D01*
X20935670Y11422921D01*
X20954883Y11408671D01*
X20972607Y11392607D01*
X20988671Y11374883D01*
X21002921Y11355670D01*
X21015218Y11335153D01*
X21025446Y11313529D01*
X21033504Y11291007D01*
X21039316Y11267803D01*
X21042826Y11244142D01*
X21044000Y11220250D01*
X21044000Y10732750D01*
X21042826Y10708858D01*
X21039316Y10685197D01*
X21033504Y10661993D01*
X21025446Y10639471D01*
X21015218Y10617847D01*
X21002921Y10597330D01*
X20988671Y10578117D01*
X20972607Y10560393D01*
X20954883Y10544329D01*
X20935670Y10530079D01*
X20915153Y10517782D01*
X20893529Y10507554D01*
X20871007Y10499496D01*
X20847803Y10493684D01*
X20824142Y10490174D01*
X20800250Y10489000D01*
X19887750Y10489000D01*
X19863858Y10490174D01*
X19840197Y10493684D01*
X19816993Y10499496D01*
X19794471Y10507554D01*
X19772847Y10517782D01*
X19752330Y10530079D01*
X19733117Y10544329D01*
X19715393Y10560393D01*
X19699329Y10578117D01*
X19685079Y10597330D01*
X19672782Y10617847D01*
X19662554Y10639471D01*
X19654496Y10661993D01*
X19648684Y10685197D01*
X19645174Y10708858D01*
X19644000Y10732750D01*
X19644000Y11220250D01*
X19645174Y11244142D01*
X19648684Y11267803D01*
X19654496Y11291007D01*
X19662554Y11313529D01*
X19672782Y11335153D01*
X19685079Y11355670D01*
X19699329Y11374883D01*
X19715393Y11392607D01*
X19733117Y11408671D01*
X19752330Y11422921D01*
X19772847Y11435218D01*
X19794471Y11445446D01*
X19816993Y11453504D01*
X19840197Y11459316D01*
X19863858Y11462826D01*
X19887750Y11464000D01*
X20800250Y11464000D01*
X20824142Y11462826D01*
X20824142Y11462826D01*
G37*
D12*
X20344000Y10976500D03*
G04 #@! TD*
D11*
G04 #@! TO.C,C3*
G36*
X6346142Y12321826D02*
X6369803Y12318316D01*
X6393007Y12312504D01*
X6415529Y12304446D01*
X6437153Y12294218D01*
X6457670Y12281921D01*
X6476883Y12267671D01*
X6494607Y12251607D01*
X6510671Y12233883D01*
X6524921Y12214670D01*
X6537218Y12194153D01*
X6547446Y12172529D01*
X6555504Y12150007D01*
X6561316Y12126803D01*
X6564826Y12103142D01*
X6566000Y12079250D01*
X6566000Y11591750D01*
X6564826Y11567858D01*
X6561316Y11544197D01*
X6555504Y11520993D01*
X6547446Y11498471D01*
X6537218Y11476847D01*
X6524921Y11456330D01*
X6510671Y11437117D01*
X6494607Y11419393D01*
X6476883Y11403329D01*
X6457670Y11389079D01*
X6437153Y11376782D01*
X6415529Y11366554D01*
X6393007Y11358496D01*
X6369803Y11352684D01*
X6346142Y11349174D01*
X6322250Y11348000D01*
X5409750Y11348000D01*
X5385858Y11349174D01*
X5362197Y11352684D01*
X5338993Y11358496D01*
X5316471Y11366554D01*
X5294847Y11376782D01*
X5274330Y11389079D01*
X5255117Y11403329D01*
X5237393Y11419393D01*
X5221329Y11437117D01*
X5207079Y11456330D01*
X5194782Y11476847D01*
X5184554Y11498471D01*
X5176496Y11520993D01*
X5170684Y11544197D01*
X5167174Y11567858D01*
X5166000Y11591750D01*
X5166000Y12079250D01*
X5167174Y12103142D01*
X5170684Y12126803D01*
X5176496Y12150007D01*
X5184554Y12172529D01*
X5194782Y12194153D01*
X5207079Y12214670D01*
X5221329Y12233883D01*
X5237393Y12251607D01*
X5255117Y12267671D01*
X5274330Y12281921D01*
X5294847Y12294218D01*
X5316471Y12304446D01*
X5338993Y12312504D01*
X5362197Y12318316D01*
X5385858Y12321826D01*
X5409750Y12323000D01*
X6322250Y12323000D01*
X6346142Y12321826D01*
X6346142Y12321826D01*
G37*
D12*
X5866000Y11835500D03*
D11*
G36*
X6346142Y10446826D02*
X6369803Y10443316D01*
X6393007Y10437504D01*
X6415529Y10429446D01*
X6437153Y10419218D01*
X6457670Y10406921D01*
X6476883Y10392671D01*
X6494607Y10376607D01*
X6510671Y10358883D01*
X6524921Y10339670D01*
X6537218Y10319153D01*
X6547446Y10297529D01*
X6555504Y10275007D01*
X6561316Y10251803D01*
X6564826Y10228142D01*
X6566000Y10204250D01*
X6566000Y9716750D01*
X6564826Y9692858D01*
X6561316Y9669197D01*
X6555504Y9645993D01*
X6547446Y9623471D01*
X6537218Y9601847D01*
X6524921Y9581330D01*
X6510671Y9562117D01*
X6494607Y9544393D01*
X6476883Y9528329D01*
X6457670Y9514079D01*
X6437153Y9501782D01*
X6415529Y9491554D01*
X6393007Y9483496D01*
X6369803Y9477684D01*
X6346142Y9474174D01*
X6322250Y9473000D01*
X5409750Y9473000D01*
X5385858Y9474174D01*
X5362197Y9477684D01*
X5338993Y9483496D01*
X5316471Y9491554D01*
X5294847Y9501782D01*
X5274330Y9514079D01*
X5255117Y9528329D01*
X5237393Y9544393D01*
X5221329Y9562117D01*
X5207079Y9581330D01*
X5194782Y9601847D01*
X5184554Y9623471D01*
X5176496Y9645993D01*
X5170684Y9669197D01*
X5167174Y9692858D01*
X5166000Y9716750D01*
X5166000Y10204250D01*
X5167174Y10228142D01*
X5170684Y10251803D01*
X5176496Y10275007D01*
X5184554Y10297529D01*
X5194782Y10319153D01*
X5207079Y10339670D01*
X5221329Y10358883D01*
X5237393Y10376607D01*
X5255117Y10392671D01*
X5274330Y10406921D01*
X5294847Y10419218D01*
X5316471Y10429446D01*
X5338993Y10437504D01*
X5362197Y10443316D01*
X5385858Y10446826D01*
X5409750Y10448000D01*
X6322250Y10448000D01*
X6346142Y10446826D01*
X6346142Y10446826D01*
G37*
D12*
X5866000Y9960500D03*
G04 #@! TD*
D16*
G04 #@! TO.C,U1*
X10698000Y23530000D03*
X9898000Y23530000D03*
X9098000Y23530000D03*
X8298000Y23530000D03*
X7498000Y23530000D03*
X6698000Y23530000D03*
X5898000Y23530000D03*
X5098000Y23530000D03*
D17*
X3648000Y22080000D03*
X3648000Y21280000D03*
X3648000Y20480000D03*
X3648000Y19680000D03*
X3648000Y18880000D03*
X3648000Y18080000D03*
X3648000Y17280000D03*
X3648000Y16480000D03*
D16*
X5098000Y15030000D03*
X5898000Y15030000D03*
X6698000Y15030000D03*
X7498000Y15030000D03*
X8298000Y15030000D03*
X9098000Y15030000D03*
X9898000Y15030000D03*
X10698000Y15030000D03*
D17*
X12148000Y16480000D03*
X12148000Y17280000D03*
X12148000Y18080000D03*
X12148000Y18880000D03*
X12148000Y19680000D03*
X12148000Y20480000D03*
X12148000Y21280000D03*
X12148000Y22080000D03*
G04 #@! TD*
D11*
G04 #@! TO.C,D1*
G36*
X31582142Y28614826D02*
X31605803Y28611316D01*
X31629007Y28605504D01*
X31651529Y28597446D01*
X31673153Y28587218D01*
X31693670Y28574921D01*
X31712883Y28560671D01*
X31730607Y28544607D01*
X31746671Y28526883D01*
X31760921Y28507670D01*
X31773218Y28487153D01*
X31783446Y28465529D01*
X31791504Y28443007D01*
X31797316Y28419803D01*
X31800826Y28396142D01*
X31802000Y28372250D01*
X31802000Y27459750D01*
X31800826Y27435858D01*
X31797316Y27412197D01*
X31791504Y27388993D01*
X31783446Y27366471D01*
X31773218Y27344847D01*
X31760921Y27324330D01*
X31746671Y27305117D01*
X31730607Y27287393D01*
X31712883Y27271329D01*
X31693670Y27257079D01*
X31673153Y27244782D01*
X31651529Y27234554D01*
X31629007Y27226496D01*
X31605803Y27220684D01*
X31582142Y27217174D01*
X31558250Y27216000D01*
X31070750Y27216000D01*
X31046858Y27217174D01*
X31023197Y27220684D01*
X30999993Y27226496D01*
X30977471Y27234554D01*
X30955847Y27244782D01*
X30935330Y27257079D01*
X30916117Y27271329D01*
X30898393Y27287393D01*
X30882329Y27305117D01*
X30868079Y27324330D01*
X30855782Y27344847D01*
X30845554Y27366471D01*
X30837496Y27388993D01*
X30831684Y27412197D01*
X30828174Y27435858D01*
X30827000Y27459750D01*
X30827000Y28372250D01*
X30828174Y28396142D01*
X30831684Y28419803D01*
X30837496Y28443007D01*
X30845554Y28465529D01*
X30855782Y28487153D01*
X30868079Y28507670D01*
X30882329Y28526883D01*
X30898393Y28544607D01*
X30916117Y28560671D01*
X30935330Y28574921D01*
X30955847Y28587218D01*
X30977471Y28597446D01*
X30999993Y28605504D01*
X31023197Y28611316D01*
X31046858Y28614826D01*
X31070750Y28616000D01*
X31558250Y28616000D01*
X31582142Y28614826D01*
X31582142Y28614826D01*
G37*
D12*
X31314500Y27916000D03*
D11*
G36*
X29707142Y28614826D02*
X29730803Y28611316D01*
X29754007Y28605504D01*
X29776529Y28597446D01*
X29798153Y28587218D01*
X29818670Y28574921D01*
X29837883Y28560671D01*
X29855607Y28544607D01*
X29871671Y28526883D01*
X29885921Y28507670D01*
X29898218Y28487153D01*
X29908446Y28465529D01*
X29916504Y28443007D01*
X29922316Y28419803D01*
X29925826Y28396142D01*
X29927000Y28372250D01*
X29927000Y27459750D01*
X29925826Y27435858D01*
X29922316Y27412197D01*
X29916504Y27388993D01*
X29908446Y27366471D01*
X29898218Y27344847D01*
X29885921Y27324330D01*
X29871671Y27305117D01*
X29855607Y27287393D01*
X29837883Y27271329D01*
X29818670Y27257079D01*
X29798153Y27244782D01*
X29776529Y27234554D01*
X29754007Y27226496D01*
X29730803Y27220684D01*
X29707142Y27217174D01*
X29683250Y27216000D01*
X29195750Y27216000D01*
X29171858Y27217174D01*
X29148197Y27220684D01*
X29124993Y27226496D01*
X29102471Y27234554D01*
X29080847Y27244782D01*
X29060330Y27257079D01*
X29041117Y27271329D01*
X29023393Y27287393D01*
X29007329Y27305117D01*
X28993079Y27324330D01*
X28980782Y27344847D01*
X28970554Y27366471D01*
X28962496Y27388993D01*
X28956684Y27412197D01*
X28953174Y27435858D01*
X28952000Y27459750D01*
X28952000Y28372250D01*
X28953174Y28396142D01*
X28956684Y28419803D01*
X28962496Y28443007D01*
X28970554Y28465529D01*
X28980782Y28487153D01*
X28993079Y28507670D01*
X29007329Y28526883D01*
X29023393Y28544607D01*
X29041117Y28560671D01*
X29060330Y28574921D01*
X29080847Y28587218D01*
X29102471Y28597446D01*
X29124993Y28605504D01*
X29148197Y28611316D01*
X29171858Y28614826D01*
X29195750Y28616000D01*
X29683250Y28616000D01*
X29707142Y28614826D01*
X29707142Y28614826D01*
G37*
D12*
X29439500Y27916000D03*
G04 #@! TD*
D11*
G04 #@! TO.C,C1*
G36*
X10410142Y12321826D02*
X10433803Y12318316D01*
X10457007Y12312504D01*
X10479529Y12304446D01*
X10501153Y12294218D01*
X10521670Y12281921D01*
X10540883Y12267671D01*
X10558607Y12251607D01*
X10574671Y12233883D01*
X10588921Y12214670D01*
X10601218Y12194153D01*
X10611446Y12172529D01*
X10619504Y12150007D01*
X10625316Y12126803D01*
X10628826Y12103142D01*
X10630000Y12079250D01*
X10630000Y11591750D01*
X10628826Y11567858D01*
X10625316Y11544197D01*
X10619504Y11520993D01*
X10611446Y11498471D01*
X10601218Y11476847D01*
X10588921Y11456330D01*
X10574671Y11437117D01*
X10558607Y11419393D01*
X10540883Y11403329D01*
X10521670Y11389079D01*
X10501153Y11376782D01*
X10479529Y11366554D01*
X10457007Y11358496D01*
X10433803Y11352684D01*
X10410142Y11349174D01*
X10386250Y11348000D01*
X9473750Y11348000D01*
X9449858Y11349174D01*
X9426197Y11352684D01*
X9402993Y11358496D01*
X9380471Y11366554D01*
X9358847Y11376782D01*
X9338330Y11389079D01*
X9319117Y11403329D01*
X9301393Y11419393D01*
X9285329Y11437117D01*
X9271079Y11456330D01*
X9258782Y11476847D01*
X9248554Y11498471D01*
X9240496Y11520993D01*
X9234684Y11544197D01*
X9231174Y11567858D01*
X9230000Y11591750D01*
X9230000Y12079250D01*
X9231174Y12103142D01*
X9234684Y12126803D01*
X9240496Y12150007D01*
X9248554Y12172529D01*
X9258782Y12194153D01*
X9271079Y12214670D01*
X9285329Y12233883D01*
X9301393Y12251607D01*
X9319117Y12267671D01*
X9338330Y12281921D01*
X9358847Y12294218D01*
X9380471Y12304446D01*
X9402993Y12312504D01*
X9426197Y12318316D01*
X9449858Y12321826D01*
X9473750Y12323000D01*
X10386250Y12323000D01*
X10410142Y12321826D01*
X10410142Y12321826D01*
G37*
D12*
X9930000Y11835500D03*
D11*
G36*
X10410142Y10446826D02*
X10433803Y10443316D01*
X10457007Y10437504D01*
X10479529Y10429446D01*
X10501153Y10419218D01*
X10521670Y10406921D01*
X10540883Y10392671D01*
X10558607Y10376607D01*
X10574671Y10358883D01*
X10588921Y10339670D01*
X10601218Y10319153D01*
X10611446Y10297529D01*
X10619504Y10275007D01*
X10625316Y10251803D01*
X10628826Y10228142D01*
X10630000Y10204250D01*
X10630000Y9716750D01*
X10628826Y9692858D01*
X10625316Y9669197D01*
X10619504Y9645993D01*
X10611446Y9623471D01*
X10601218Y9601847D01*
X10588921Y9581330D01*
X10574671Y9562117D01*
X10558607Y9544393D01*
X10540883Y9528329D01*
X10521670Y9514079D01*
X10501153Y9501782D01*
X10479529Y9491554D01*
X10457007Y9483496D01*
X10433803Y9477684D01*
X10410142Y9474174D01*
X10386250Y9473000D01*
X9473750Y9473000D01*
X9449858Y9474174D01*
X9426197Y9477684D01*
X9402993Y9483496D01*
X9380471Y9491554D01*
X9358847Y9501782D01*
X9338330Y9514079D01*
X9319117Y9528329D01*
X9301393Y9544393D01*
X9285329Y9562117D01*
X9271079Y9581330D01*
X9258782Y9601847D01*
X9248554Y9623471D01*
X9240496Y9645993D01*
X9234684Y9669197D01*
X9231174Y9692858D01*
X9230000Y9716750D01*
X9230000Y10204250D01*
X9231174Y10228142D01*
X9234684Y10251803D01*
X9240496Y10275007D01*
X9248554Y10297529D01*
X9258782Y10319153D01*
X9271079Y10339670D01*
X9285329Y10358883D01*
X9301393Y10376607D01*
X9319117Y10392671D01*
X9338330Y10406921D01*
X9358847Y10419218D01*
X9380471Y10429446D01*
X9402993Y10437504D01*
X9426197Y10443316D01*
X9449858Y10446826D01*
X9473750Y10448000D01*
X10386250Y10448000D01*
X10410142Y10446826D01*
X10410142Y10446826D01*
G37*
D12*
X9930000Y9960500D03*
G04 #@! TD*
D11*
G04 #@! TO.C,C2*
G36*
X11680142Y27210826D02*
X11703803Y27207316D01*
X11727007Y27201504D01*
X11749529Y27193446D01*
X11771153Y27183218D01*
X11791670Y27170921D01*
X11810883Y27156671D01*
X11828607Y27140607D01*
X11844671Y27122883D01*
X11858921Y27103670D01*
X11871218Y27083153D01*
X11881446Y27061529D01*
X11889504Y27039007D01*
X11895316Y27015803D01*
X11898826Y26992142D01*
X11900000Y26968250D01*
X11900000Y26480750D01*
X11898826Y26456858D01*
X11895316Y26433197D01*
X11889504Y26409993D01*
X11881446Y26387471D01*
X11871218Y26365847D01*
X11858921Y26345330D01*
X11844671Y26326117D01*
X11828607Y26308393D01*
X11810883Y26292329D01*
X11791670Y26278079D01*
X11771153Y26265782D01*
X11749529Y26255554D01*
X11727007Y26247496D01*
X11703803Y26241684D01*
X11680142Y26238174D01*
X11656250Y26237000D01*
X10743750Y26237000D01*
X10719858Y26238174D01*
X10696197Y26241684D01*
X10672993Y26247496D01*
X10650471Y26255554D01*
X10628847Y26265782D01*
X10608330Y26278079D01*
X10589117Y26292329D01*
X10571393Y26308393D01*
X10555329Y26326117D01*
X10541079Y26345330D01*
X10528782Y26365847D01*
X10518554Y26387471D01*
X10510496Y26409993D01*
X10504684Y26433197D01*
X10501174Y26456858D01*
X10500000Y26480750D01*
X10500000Y26968250D01*
X10501174Y26992142D01*
X10504684Y27015803D01*
X10510496Y27039007D01*
X10518554Y27061529D01*
X10528782Y27083153D01*
X10541079Y27103670D01*
X10555329Y27122883D01*
X10571393Y27140607D01*
X10589117Y27156671D01*
X10608330Y27170921D01*
X10628847Y27183218D01*
X10650471Y27193446D01*
X10672993Y27201504D01*
X10696197Y27207316D01*
X10719858Y27210826D01*
X10743750Y27212000D01*
X11656250Y27212000D01*
X11680142Y27210826D01*
X11680142Y27210826D01*
G37*
D12*
X11200000Y26724500D03*
D11*
G36*
X11680142Y29085826D02*
X11703803Y29082316D01*
X11727007Y29076504D01*
X11749529Y29068446D01*
X11771153Y29058218D01*
X11791670Y29045921D01*
X11810883Y29031671D01*
X11828607Y29015607D01*
X11844671Y28997883D01*
X11858921Y28978670D01*
X11871218Y28958153D01*
X11881446Y28936529D01*
X11889504Y28914007D01*
X11895316Y28890803D01*
X11898826Y28867142D01*
X11900000Y28843250D01*
X11900000Y28355750D01*
X11898826Y28331858D01*
X11895316Y28308197D01*
X11889504Y28284993D01*
X11881446Y28262471D01*
X11871218Y28240847D01*
X11858921Y28220330D01*
X11844671Y28201117D01*
X11828607Y28183393D01*
X11810883Y28167329D01*
X11791670Y28153079D01*
X11771153Y28140782D01*
X11749529Y28130554D01*
X11727007Y28122496D01*
X11703803Y28116684D01*
X11680142Y28113174D01*
X11656250Y28112000D01*
X10743750Y28112000D01*
X10719858Y28113174D01*
X10696197Y28116684D01*
X10672993Y28122496D01*
X10650471Y28130554D01*
X10628847Y28140782D01*
X10608330Y28153079D01*
X10589117Y28167329D01*
X10571393Y28183393D01*
X10555329Y28201117D01*
X10541079Y28220330D01*
X10528782Y28240847D01*
X10518554Y28262471D01*
X10510496Y28284993D01*
X10504684Y28308197D01*
X10501174Y28331858D01*
X10500000Y28355750D01*
X10500000Y28843250D01*
X10501174Y28867142D01*
X10504684Y28890803D01*
X10510496Y28914007D01*
X10518554Y28936529D01*
X10528782Y28958153D01*
X10541079Y28978670D01*
X10555329Y28997883D01*
X10571393Y29015607D01*
X10589117Y29031671D01*
X10608330Y29045921D01*
X10628847Y29058218D01*
X10650471Y29068446D01*
X10672993Y29076504D01*
X10696197Y29082316D01*
X10719858Y29085826D01*
X10743750Y29087000D01*
X11656250Y29087000D01*
X11680142Y29085826D01*
X11680142Y29085826D01*
G37*
D12*
X11200000Y28599500D03*
G04 #@! TD*
D11*
G04 #@! TO.C,R1*
G36*
X25904142Y11462826D02*
X25927803Y11459316D01*
X25951007Y11453504D01*
X25973529Y11445446D01*
X25995153Y11435218D01*
X26015670Y11422921D01*
X26034883Y11408671D01*
X26052607Y11392607D01*
X26068671Y11374883D01*
X26082921Y11355670D01*
X26095218Y11335153D01*
X26105446Y11313529D01*
X26113504Y11291007D01*
X26119316Y11267803D01*
X26122826Y11244142D01*
X26124000Y11220250D01*
X26124000Y10732750D01*
X26122826Y10708858D01*
X26119316Y10685197D01*
X26113504Y10661993D01*
X26105446Y10639471D01*
X26095218Y10617847D01*
X26082921Y10597330D01*
X26068671Y10578117D01*
X26052607Y10560393D01*
X26034883Y10544329D01*
X26015670Y10530079D01*
X25995153Y10517782D01*
X25973529Y10507554D01*
X25951007Y10499496D01*
X25927803Y10493684D01*
X25904142Y10490174D01*
X25880250Y10489000D01*
X24967750Y10489000D01*
X24943858Y10490174D01*
X24920197Y10493684D01*
X24896993Y10499496D01*
X24874471Y10507554D01*
X24852847Y10517782D01*
X24832330Y10530079D01*
X24813117Y10544329D01*
X24795393Y10560393D01*
X24779329Y10578117D01*
X24765079Y10597330D01*
X24752782Y10617847D01*
X24742554Y10639471D01*
X24734496Y10661993D01*
X24728684Y10685197D01*
X24725174Y10708858D01*
X24724000Y10732750D01*
X24724000Y11220250D01*
X24725174Y11244142D01*
X24728684Y11267803D01*
X24734496Y11291007D01*
X24742554Y11313529D01*
X24752782Y11335153D01*
X24765079Y11355670D01*
X24779329Y11374883D01*
X24795393Y11392607D01*
X24813117Y11408671D01*
X24832330Y11422921D01*
X24852847Y11435218D01*
X24874471Y11445446D01*
X24896993Y11453504D01*
X24920197Y11459316D01*
X24943858Y11462826D01*
X24967750Y11464000D01*
X25880250Y11464000D01*
X25904142Y11462826D01*
X25904142Y11462826D01*
G37*
D12*
X25424000Y10976500D03*
D11*
G36*
X25904142Y13337826D02*
X25927803Y13334316D01*
X25951007Y13328504D01*
X25973529Y13320446D01*
X25995153Y13310218D01*
X26015670Y13297921D01*
X26034883Y13283671D01*
X26052607Y13267607D01*
X26068671Y13249883D01*
X26082921Y13230670D01*
X26095218Y13210153D01*
X26105446Y13188529D01*
X26113504Y13166007D01*
X26119316Y13142803D01*
X26122826Y13119142D01*
X26124000Y13095250D01*
X26124000Y12607750D01*
X26122826Y12583858D01*
X26119316Y12560197D01*
X26113504Y12536993D01*
X26105446Y12514471D01*
X26095218Y12492847D01*
X26082921Y12472330D01*
X26068671Y12453117D01*
X26052607Y12435393D01*
X26034883Y12419329D01*
X26015670Y12405079D01*
X25995153Y12392782D01*
X25973529Y12382554D01*
X25951007Y12374496D01*
X25927803Y12368684D01*
X25904142Y12365174D01*
X25880250Y12364000D01*
X24967750Y12364000D01*
X24943858Y12365174D01*
X24920197Y12368684D01*
X24896993Y12374496D01*
X24874471Y12382554D01*
X24852847Y12392782D01*
X24832330Y12405079D01*
X24813117Y12419329D01*
X24795393Y12435393D01*
X24779329Y12453117D01*
X24765079Y12472330D01*
X24752782Y12492847D01*
X24742554Y12514471D01*
X24734496Y12536993D01*
X24728684Y12560197D01*
X24725174Y12583858D01*
X24724000Y12607750D01*
X24724000Y13095250D01*
X24725174Y13119142D01*
X24728684Y13142803D01*
X24734496Y13166007D01*
X24742554Y13188529D01*
X24752782Y13210153D01*
X24765079Y13230670D01*
X24779329Y13249883D01*
X24795393Y13267607D01*
X24813117Y13283671D01*
X24832330Y13297921D01*
X24852847Y13310218D01*
X24874471Y13320446D01*
X24896993Y13328504D01*
X24920197Y13334316D01*
X24943858Y13337826D01*
X24967750Y13339000D01*
X25880250Y13339000D01*
X25904142Y13337826D01*
X25904142Y13337826D01*
G37*
D12*
X25424000Y12851500D03*
G04 #@! TD*
D11*
G04 #@! TO.C,R2*
G36*
X27802142Y24296826D02*
X27825803Y24293316D01*
X27849007Y24287504D01*
X27871529Y24279446D01*
X27893153Y24269218D01*
X27913670Y24256921D01*
X27932883Y24242671D01*
X27950607Y24226607D01*
X27966671Y24208883D01*
X27980921Y24189670D01*
X27993218Y24169153D01*
X28003446Y24147529D01*
X28011504Y24125007D01*
X28017316Y24101803D01*
X28020826Y24078142D01*
X28022000Y24054250D01*
X28022000Y23141750D01*
X28020826Y23117858D01*
X28017316Y23094197D01*
X28011504Y23070993D01*
X28003446Y23048471D01*
X27993218Y23026847D01*
X27980921Y23006330D01*
X27966671Y22987117D01*
X27950607Y22969393D01*
X27932883Y22953329D01*
X27913670Y22939079D01*
X27893153Y22926782D01*
X27871529Y22916554D01*
X27849007Y22908496D01*
X27825803Y22902684D01*
X27802142Y22899174D01*
X27778250Y22898000D01*
X27290750Y22898000D01*
X27266858Y22899174D01*
X27243197Y22902684D01*
X27219993Y22908496D01*
X27197471Y22916554D01*
X27175847Y22926782D01*
X27155330Y22939079D01*
X27136117Y22953329D01*
X27118393Y22969393D01*
X27102329Y22987117D01*
X27088079Y23006330D01*
X27075782Y23026847D01*
X27065554Y23048471D01*
X27057496Y23070993D01*
X27051684Y23094197D01*
X27048174Y23117858D01*
X27047000Y23141750D01*
X27047000Y24054250D01*
X27048174Y24078142D01*
X27051684Y24101803D01*
X27057496Y24125007D01*
X27065554Y24147529D01*
X27075782Y24169153D01*
X27088079Y24189670D01*
X27102329Y24208883D01*
X27118393Y24226607D01*
X27136117Y24242671D01*
X27155330Y24256921D01*
X27175847Y24269218D01*
X27197471Y24279446D01*
X27219993Y24287504D01*
X27243197Y24293316D01*
X27266858Y24296826D01*
X27290750Y24298000D01*
X27778250Y24298000D01*
X27802142Y24296826D01*
X27802142Y24296826D01*
G37*
D12*
X27534500Y23598000D03*
D11*
G36*
X29677142Y24296826D02*
X29700803Y24293316D01*
X29724007Y24287504D01*
X29746529Y24279446D01*
X29768153Y24269218D01*
X29788670Y24256921D01*
X29807883Y24242671D01*
X29825607Y24226607D01*
X29841671Y24208883D01*
X29855921Y24189670D01*
X29868218Y24169153D01*
X29878446Y24147529D01*
X29886504Y24125007D01*
X29892316Y24101803D01*
X29895826Y24078142D01*
X29897000Y24054250D01*
X29897000Y23141750D01*
X29895826Y23117858D01*
X29892316Y23094197D01*
X29886504Y23070993D01*
X29878446Y23048471D01*
X29868218Y23026847D01*
X29855921Y23006330D01*
X29841671Y22987117D01*
X29825607Y22969393D01*
X29807883Y22953329D01*
X29788670Y22939079D01*
X29768153Y22926782D01*
X29746529Y22916554D01*
X29724007Y22908496D01*
X29700803Y22902684D01*
X29677142Y22899174D01*
X29653250Y22898000D01*
X29165750Y22898000D01*
X29141858Y22899174D01*
X29118197Y22902684D01*
X29094993Y22908496D01*
X29072471Y22916554D01*
X29050847Y22926782D01*
X29030330Y22939079D01*
X29011117Y22953329D01*
X28993393Y22969393D01*
X28977329Y22987117D01*
X28963079Y23006330D01*
X28950782Y23026847D01*
X28940554Y23048471D01*
X28932496Y23070993D01*
X28926684Y23094197D01*
X28923174Y23117858D01*
X28922000Y23141750D01*
X28922000Y24054250D01*
X28923174Y24078142D01*
X28926684Y24101803D01*
X28932496Y24125007D01*
X28940554Y24147529D01*
X28950782Y24169153D01*
X28963079Y24189670D01*
X28977329Y24208883D01*
X28993393Y24226607D01*
X29011117Y24242671D01*
X29030330Y24256921D01*
X29050847Y24269218D01*
X29072471Y24279446D01*
X29094993Y24287504D01*
X29118197Y24293316D01*
X29141858Y24296826D01*
X29165750Y24298000D01*
X29653250Y24298000D01*
X29677142Y24296826D01*
X29677142Y24296826D01*
G37*
D12*
X29409500Y23598000D03*
G04 #@! TD*
M02*
